<svg width="151" height="150" viewBox="0 0 151 150" fill="none" xmlns="http://www.w3.org/2000/svg">
<circle cx="75.8604" cy="75" r="75" fill="#5296FF"/>
<path d="M112.421 58.2917C104.859 58.2917 92.2546 58.2917 87.2129 70.8958C82.1712 83.5 88.4733 94.8437 94.7754 101.146M56.9629 38.125H112.421" stroke="#0D0711" stroke-width="10.0833" stroke-linecap="round" stroke-linejoin="round"/>
<path d="M62.0048 23H107.38C108.717 23 109.999 23.5312 110.945 24.4767C111.89 25.4222 112.421 26.7045 112.421 28.0417V74.1427C112.421 82.7942 108.388 90.9491 101.491 96.1748C92.3103 103.132 79.8725 112.51 74.609 116.271C65.7861 122.573 49.4006 128.875 36.7965 116.271C24.1948 103.667 27.3459 87.1376 36.799 78.4583C46.2521 69.7791 56.9657 61.1957 56.9657 61.1957V28.0417C56.9657 26.7045 57.4968 25.4222 58.4423 24.4767C59.3878 23.5312 60.6677 23 62.0048 23Z" stroke="#0D0711" stroke-width="10.0833" stroke-linecap="round" stroke-linejoin="round"/>
</svg>
