<svg width="141" height="140" viewBox="0 0 141 140" fill="none" xmlns="http://www.w3.org/2000/svg">
<path d="M0.860352 70C0.860352 31.3401 32.2004 0 70.8604 0H118.86C131.011 0 140.86 9.84974 140.86 22V70C140.86 108.66 109.52 140 70.8604 140H19.8604C9.36694 140 0.860352 131.493 0.860352 121V70Z" fill="#B6FF58"/>
<path d="M85.9853 17C85.9853 21.1109 84.3523 25.0533 81.4455 27.9602C78.5387 30.867 74.5962 32.5 70.4854 32.5C66.3745 32.5 62.432 30.867 59.5252 27.9602C56.6184 25.0533 54.9854 21.1109 54.9854 17H47.2354C44.3808 17 42.0635 19.3095 41.986 22.1615C41.8104 28.8058 41.2498 40.1234 39.4854 45.4167C37.5194 51.3144 29.5679 58.7105 25.8815 61.9061C24.6932 62.9343 23.9854 64.4119 23.9854 65.9826V115.167C23.9854 116.537 24.5297 117.851 25.4986 118.82C26.4676 119.789 27.7817 120.333 29.152 120.333H111.819C113.189 120.333 114.503 119.789 115.472 118.82C116.441 117.851 116.985 116.537 116.985 115.167V65.9826C116.985 64.4145 116.275 62.9343 115.089 61.9061C111.405 58.7105 103.451 51.3144 101.485 45.4167C99.7209 40.1234 99.1604 28.8058 98.9847 22.1615C98.9072 19.3095 96.5899 17 93.7353 17H85.9853Z" stroke="#0D0711" stroke-width="10.3333" stroke-linejoin="round"/>
<path d="M78.2354 68.667H93.7354V99.667H78.2354V68.667Z" stroke="#0D0711" stroke-width="10.3333" stroke-linejoin="round"/>
<path d="M47.2354 68.667H62.7354V99.667H47.2354M62.7354 84.167H47.2354" stroke="#0D0711" stroke-width="10.3333" stroke-linecap="round" stroke-linejoin="round"/>
</svg>
