<svg width="172" height="171" viewBox="0 0 172 171" fill="none" xmlns="http://www.w3.org/2000/svg">
<path d="M171.86 85.5C171.86 102.41 166.846 118.941 157.451 133.001C148.056 147.062 134.703 158.02 119.08 164.492C103.457 170.963 86.2655 172.656 69.6801 169.357C53.0948 166.058 37.8601 157.915 25.9027 145.958C13.9453 134 5.80225 118.766 2.50321 102.18C-0.795826 85.5948 0.897359 68.4036 7.36865 52.7806C13.8399 37.1575 24.7987 23.8042 38.8591 14.4093C52.9195 5.01449 69.4501 -2.01653e-07 86.3604 0V85.5H171.86Z" fill="#5296FF"/>
<path d="M86.7354 35V48.9792M109.61 136.667H132.485L122.319 35H51.152L40.9854 136.667H63.8604L86.7354 73.125L109.61 136.667Z" stroke="#0D0711" stroke-width="10.1667" stroke-linecap="round" stroke-linejoin="round"/>
<path d="M68.9449 35C68.9449 35 68.9449 50.25 63.8616 55.3333C58.7783 60.4167 48.3574 62.9583 48.3574 62.9583M104.528 35C104.528 35 104.528 50.25 109.612 55.3333C114.695 60.4167 125.116 62.9583 125.116 62.9583" stroke="#0D0711" stroke-width="10.1667" stroke-linecap="round" stroke-linejoin="round"/>
</svg>
