<svg width="141" height="140" viewBox="0 0 141 140" fill="none" xmlns="http://www.w3.org/2000/svg">
<path d="M0.860352 22C0.860352 9.84974 10.7101 0 22.8604 0H118.86C131.011 0 140.86 9.84974 140.86 22V70C140.86 108.66 109.52 140 70.8604 140C32.2004 140 0.860352 108.66 0.860352 70V22Z" fill="#B6FF58"/>
<g clip-path="url(#clip0_138_2022)">
<path fill-rule="evenodd" clip-rule="evenodd" d="M101.112 35.5833C103.304 35.583 105.433 36.3149 107.161 37.6626C108.889 39.0103 110.117 40.8967 110.651 43.0222L110.813 43.799L119.004 92.9657C119.229 94.3145 119.171 95.6955 118.832 97.0205C118.493 98.3454 117.882 99.5851 117.037 100.66C116.192 101.736 115.133 102.623 113.925 103.266C112.718 103.908 111.39 104.292 110.026 104.392L109.309 104.417H83.324C81.8436 104.417 80.3823 104.082 79.0491 103.439C77.7159 102.795 76.5453 101.859 75.6245 100.7L75.1426 100.036L70.8602 93.6147L66.5778 100.036C65.7566 101.268 64.6678 102.299 63.3924 103.052C62.1171 103.804 60.6883 104.259 59.2126 104.382L58.3965 104.417H32.4119C31.0449 104.416 29.6931 104.131 28.4427 103.579C27.1922 103.026 26.0706 102.22 25.1495 101.21C24.2284 100.2 23.5279 99.0087 23.0929 97.7129C22.6578 96.417 22.4977 95.0447 22.6228 93.6835L22.7162 92.9657L30.9074 43.799C31.2675 41.6367 32.3397 39.6567 33.9538 38.1735C35.568 36.6903 37.6314 35.789 39.8164 35.6128L40.608 35.5833H101.112ZM103.571 60.1666H38.1496L32.4119 94.5833H58.3965L66.7696 82.0212C67.2186 81.3478 67.8268 80.7957 68.5404 80.4138C69.254 80.0319 70.0509 79.8322 70.8602 79.8322C71.6696 79.8322 72.4664 80.0319 73.18 80.4138C73.8936 80.7957 74.5019 81.3478 74.9509 82.0212L83.324 94.5833H109.309L103.571 60.1666ZM101.112 45.4166H40.608L39.7869 50.3333H101.934L101.112 45.4166Z" fill="#0D0711"/>
</g>
<defs>
<clipPath id="clip0_138_2022">
<rect width="118" height="118" fill="white" transform="translate(11.8604 11)"/>
</clipPath>
</defs>
</svg>
