<svg width="171" height="171" viewBox="0 0 171 171" fill="none" xmlns="http://www.w3.org/2000/svg">
<path d="M86 86H171C171 132.944 132.944 171 86 171V86Z" fill="#B6FF58"/>
<path d="M86 86L7.62939e-06 86C3.47712e-06 38.5035 38.5035 -3.47712e-06 86 -7.62939e-06L86 86Z" fill="#B6FF58"/>
<path d="M119.937 79.875V118.937M119.937 118.937V137.167H52.2292V118.937M119.937 118.937H138.167V79.875C138.167 72.0625 132.958 62.9479 125.146 56.4375C117.333 49.9271 106.917 48.625 106.917 48.625L86.0833 69.4583M52.2292 118.937H34V79.875C34 72.0625 39.2083 62.9479 47.0208 56.4375C54.8333 49.9271 65.25 48.625 65.25 48.625L86.0833 69.4583M52.2292 118.937V79.875M86.0833 69.4583V92.8958" stroke="#0D0711" stroke-width="10.4167" stroke-linecap="round" stroke-linejoin="round"/>
<path d="M47.0208 56.4375C54.8333 49.9271 65.25 48.625 65.25 48.625L86.0833 69.4583L106.917 48.625C106.917 48.625 117.333 49.9271 125.146 56.4375L130.354 44.7187L125.146 33H47.0208L41.8125 44.7187L47.0208 56.4375Z" stroke="#0D0711" stroke-width="10.4167" stroke-linecap="round" stroke-linejoin="round"/>
</svg>
