<svg width="149" height="143" viewBox="0 0 149 143" fill="none" xmlns="http://www.w3.org/2000/svg">
<path d="M61.0487 5.13835C68.9852 -1.71279 80.7355 -1.71278 88.672 5.13836L110.822 24.2593C111.711 25.0268 112.662 25.7189 113.666 26.3283L138.674 41.5118C147.634 46.9521 151.265 58.1412 147.21 67.8158L135.892 94.8167C135.438 95.9004 135.074 97.0202 134.805 98.1643L128.111 126.669C125.712 136.883 116.206 143.798 105.763 142.926L76.6181 140.492C75.4483 140.395 74.2724 140.395 73.1026 140.492L43.9577 142.926C33.5149 143.798 24.0088 136.883 21.61 126.669L14.9153 98.1643C14.6465 97.0202 14.2832 95.9004 13.8289 94.8167L2.51111 67.8157C-1.54411 58.1412 2.08693 46.9521 11.0472 41.5118L36.0545 26.3283C37.0582 25.7189 38.0096 25.0268 38.8986 24.2593L61.0487 5.13835Z" fill="#BEF318"/>
<path d="M62.0059 32.1215V18H46.7559V43.4167M87.4225 32.1215V18H102.673V43.4167" stroke="#0D0711" stroke-width="10.1667" stroke-linecap="round" stroke-linejoin="round"/>
<path d="M41.6719 81.5417H26.4219V106.958H41.6719M107.755 81.5417H123.005V106.958H107.755M84.8802 66.2917V76.4583M56.9219 66.2917H92.5052M41.6719 58.6667C41.6719 44.629 53.0509 33.25 67.0885 33.25H82.3385C96.3762 33.25 107.755 44.629 107.755 58.6667V109.5C107.755 112.196 106.684 114.782 104.777 116.689C102.871 118.596 100.285 119.667 97.5885 119.667H51.8385C49.1422 119.667 46.5562 118.596 44.6496 116.689C42.743 114.782 41.6719 112.196 41.6719 109.5V58.6667Z" stroke="#0D0711" stroke-width="10.1667" stroke-linecap="round" stroke-linejoin="round"/>
</svg>
