<svg width="148" height="168" viewBox="0 0 148 168" fill="none" xmlns="http://www.w3.org/2000/svg">
<path d="M13.7135 106.207C-3.23786 96.115 -3.23781 70.8849 13.7135 60.7929L109.86 3.55192C126.811 -6.54014 148 6.07497 148 26.2591L148 140.741C148 160.925 126.811 173.54 109.859 163.448L13.7135 106.207Z" fill="#5296FF"/>
<path d="M134.287 61.1569C151.238 71.3094 151.238 96.6906 134.286 106.843L38.1405 164.427C21.1891 174.579 -1.98397e-07 161.889 -8.57574e-07 141.584L-4.59634e-06 26.4163C-5.25552e-06 6.11128 21.1892 -6.57927 38.1405 3.57322L134.287 61.1569Z" fill="#5296FF"/>
<path d="M108.125 64.625V117.125M108.125 117.125V135.5H39.875V117.125M108.125 117.125H126.5V64.625C126.5 56.75 121.25 47.5625 113.375 41C105.5 34.4375 89.75 30.5 89.75 30.5H58.25C58.25 30.5 42.5 34.4375 34.625 41C26.75 47.5625 21.5 56.75 21.5 64.625V117.125H39.875M39.875 117.125V64.625" stroke="#0D0711" stroke-width="10.5" stroke-linecap="round" stroke-linejoin="round"/>
<path d="M89.75 30.5C89.75 34.6772 88.0906 38.6832 85.1369 41.6369C82.1832 44.5906 78.1772 46.25 74 46.25C69.8228 46.25 65.8168 44.5906 62.8631 41.6369C59.9094 38.6832 58.25 34.6772 58.25 30.5" stroke="#0D0711" stroke-width="10.5" stroke-linecap="round" stroke-linejoin="round"/>
</svg>
