<svg width="345" height="451" viewBox="0 0 345 451" fill="none" xmlns="http://www.w3.org/2000/svg">
<path d="M162.467 128.004C162.467 128.174 162.636 128.343 162.636 128.852V264.452C162.636 266.486 161.79 268.181 160.605 269.707C159.081 271.232 157.219 272.08 155.357 272.08C153.325 272.08 151.463 271.232 150.109 269.707C148.754 268.351 147.908 266.656 147.908 264.452V127.496C147.908 123.258 146.384 119.529 143.337 116.648C140.12 113.766 136.396 112.41 132.502 112.41C128.439 112.41 124.884 113.766 121.667 116.648C118.62 119.699 117.096 123.258 117.096 127.496V165.464C117.096 167.498 116.419 169.363 115.065 170.719C113.541 172.244 111.848 173.092 109.817 173.092C107.785 173.092 106.092 172.244 104.568 170.719C103.045 169.363 102.368 167.668 102.368 165.464V127.496C102.368 123.428 100.844 119.868 97.966 116.648C94.7494 113.766 91.025 112.41 87.1312 112.41C83.2374 112.41 79.6822 113.766 76.2963 116.648C73.0798 119.529 71.5561 123.089 71.5561 127.496V165.464C71.5561 167.498 70.8789 169.363 69.5246 170.719C68.0009 172.244 66.308 173.092 64.2764 173.092C62.2449 173.092 60.552 172.244 59.0283 170.719C57.5047 169.363 56.6582 167.668 56.6582 165.464V127.496C56.6582 119.19 59.7055 112.241 65.6308 106.139C71.5561 100.376 78.6665 97.3248 86.9619 97.3248C96.2731 97.3248 103.891 100.884 109.817 107.664C115.573 100.715 123.191 97.3248 132.502 97.3248C140.797 97.3248 147.908 100.376 153.833 106.139C159.758 112.071 162.806 119.19 162.806 127.496C162.636 127.665 162.467 128.004 162.467 128.004Z" fill="#0D0711"/>
<path d="M253.376 164.956C253.376 167.159 252.699 169.024 251.345 170.38C249.99 171.736 248.128 172.414 245.927 172.414C244.573 172.414 243.049 171.736 241.187 170.38C239.494 168.685 238.648 166.82 238.648 164.956C232.384 170.041 224.935 172.414 216.47 172.414C205.805 172.414 196.832 168.854 189.552 161.905C182.103 154.786 178.379 145.971 178.379 135.462C178.379 124.953 182.103 115.97 189.552 108.512C197.001 101.054 205.974 97.3248 216.47 97.3248C226.966 97.3248 235.77 101.054 242.88 108.512C249.821 115.8 253.376 124.784 253.376 135.462V164.956ZM216.301 157.667C222.565 157.667 227.982 155.463 232.215 151.226C236.447 146.988 238.478 141.734 238.478 135.462C238.478 129.021 236.447 123.597 232.215 119.021C227.982 114.444 222.565 112.071 216.301 112.071C210.037 112.071 204.45 114.444 199.879 119.021C195.308 123.597 192.938 129.021 192.938 135.462C192.938 141.734 195.308 146.988 199.879 151.226C204.281 155.463 209.698 157.667 216.301 157.667Z" fill="#0D0711"/>
<path d="M283.68 165.125C283.68 166.99 283.003 168.685 281.648 170.38C280.125 171.905 278.432 172.583 276.4 172.583C274.369 172.583 272.506 171.905 271.152 170.38C269.628 168.854 268.951 167.159 268.951 165.125V134.954C268.951 124.445 272.676 115.631 280.125 108.173C287.404 100.884 296.377 97.1553 306.704 97.1553C308.566 97.1553 310.428 97.8333 312.121 99.1893C313.476 100.884 314.153 102.579 314.153 104.444C314.153 106.308 313.476 108.003 312.121 109.698C310.598 111.224 308.735 111.902 306.704 111.902C300.44 111.902 295.022 114.105 290.621 118.512C286.05 123.089 283.849 128.513 283.849 134.784V165.125H283.68Z" fill="#0D0711"/>
<path d="M131.826 302.081C131.826 303.946 131.148 305.641 129.794 307.336C128.101 308.692 126.239 309.37 124.377 309.37C122.514 309.37 120.821 308.692 119.129 307.336C117.774 305.641 117.097 303.946 117.097 302.081V264.622C110.325 269.707 102.707 272.249 94.2422 272.249C83.746 272.249 74.7734 268.52 67.4937 261.232C60.0448 253.943 56.3203 245.129 56.3203 234.62C56.3203 224.111 60.0448 215.297 67.3244 208.009C74.7734 200.551 83.5767 196.822 94.0729 196.822C104.4 196.822 113.203 200.551 120.652 208.009C128.101 215.467 131.826 224.281 131.826 234.62V302.081ZM116.928 234.62C116.928 228.518 114.727 223.094 110.325 218.348C105.585 213.941 100.168 211.738 94.0729 211.738C87.8091 211.738 82.3916 213.941 77.99 218.518C73.419 223.094 71.2182 228.349 71.2182 234.62C71.2182 240.892 73.419 246.316 77.99 250.723C82.3916 255.299 87.8091 257.503 94.0729 257.503C100.168 257.503 105.585 255.299 110.325 250.892C114.727 246.146 116.928 240.722 116.928 234.62Z" fill="#0D0711"/>
<path d="M191.755 241.231C193.279 245.807 196.157 249.536 200.051 252.418C204.114 255.299 208.685 256.825 213.425 256.825C215.287 256.825 216.303 256.825 216.472 256.655L217.658 256.486L218.843 256.316L219.689 256.147L220.366 255.977C223.414 255.299 226.799 253.943 230.185 251.74C231.878 250.553 233.74 250.553 235.772 251.231C237.804 252.079 239.327 253.265 240.174 255.13C242.036 258.859 240.851 262.079 236.618 265.13C231.54 268.012 227.138 269.876 223.413 270.893L222.398 271.063L221.213 271.232L219.689 271.402L217.996 271.571L215.795 271.741H213.594C203.098 271.741 194.295 268.012 186.846 260.554C179.566 253.265 175.842 244.282 175.842 233.942C175.842 223.433 179.566 214.45 186.846 207.161C194.126 199.873 203.098 196.144 213.594 196.144C223.752 196.144 232.217 199.364 239.327 205.805C247.284 213.094 251.347 222.416 251.347 233.942C251.347 235.807 250.67 237.502 249.316 239.197C247.623 240.553 245.76 241.231 243.898 241.231H191.755ZM235.264 226.484C233.74 221.399 230.862 217.67 226.63 214.958C222.906 212.416 218.504 211.229 213.594 211.229C208.854 211.229 204.283 212.755 200.22 215.636C196.326 218.518 193.618 222.077 191.925 226.654H235.264V226.484Z" fill="#0D0711"/>
<path d="M276.742 252.418C278.435 255.469 280.974 256.994 284.191 256.994C286.222 256.994 288.084 256.316 289.608 254.791C291.132 253.265 291.809 251.401 291.809 249.197C291.809 247.163 291.132 245.299 289.608 243.773C288.084 242.248 286.222 241.57 284.191 241.57C277.927 241.57 272.679 239.366 268.277 234.959C263.875 230.722 261.675 225.467 261.675 219.026C261.675 212.755 263.875 207.5 268.277 203.093C272.679 198.686 277.927 196.482 284.191 196.482C289.439 196.482 294.179 198.008 298.411 201.229C302.644 204.449 305.014 208.178 305.86 212.246C306.199 213.433 305.86 215.297 304.845 218.009C303.829 219.535 302.305 220.721 300.104 221.23C295.872 222.077 292.825 220.213 291.301 215.636C290.285 212.924 287.915 211.568 284.191 211.568C282.159 211.568 280.297 212.246 278.773 213.772C277.25 215.297 276.572 217.162 276.572 219.196C276.572 221.23 277.25 223.094 278.773 224.62C280.297 226.145 282.159 226.823 284.191 226.823C290.455 226.823 295.703 229.027 300.104 233.434C304.506 237.841 306.707 243.095 306.707 249.367C306.707 255.469 304.506 260.723 300.104 265.469C295.703 269.876 290.455 272.08 284.191 272.08C279.112 272.08 274.372 270.385 270.139 267.164C266.245 264.113 263.537 260.384 262.013 255.808C261.336 253.943 261.675 252.079 262.86 250.214C264.214 248.35 265.738 247.333 267.6 246.824C271.324 245.807 274.202 247.672 276.742 252.418Z" fill="#0D0711"/>
<rect width="117.933" height="114.522" rx="13.2365" transform="matrix(0.944065 -0.32976 0.329045 0.944314 195.982 316.129)" fill="#BEF318"/>
<g clip-path="url(#clip0_52_1862)">
<path d="M226.057 322.751L225.689 321.694C225.284 320.531 224.002 319.911 222.84 320.317L218.617 321.792C217.455 322.198 216.836 323.481 217.242 324.644L217.61 325.701C215.287 326.513 214.049 329.08 214.86 331.406L218.912 343.035C219.317 344.197 220.599 344.817 221.761 344.411L233.587 340.28L230.738 338.904L221.024 342.297L219.55 338.068L221.662 337.331L222.399 339.445L223.455 339.076L222.718 336.962L227.997 335.118L227.629 334.06L219.182 337.011L216.972 330.668C216.566 329.505 217.185 328.222 218.347 327.816L226.794 324.865C227.955 324.46 229.237 325.079 229.642 326.242L230.748 329.414L232.859 328.676L231.754 325.504C230.944 323.179 228.38 321.939 226.057 322.751ZM223.945 323.489L219.722 324.964L219.353 323.907L223.577 322.431L223.945 323.489ZM223.307 328.455L221.932 331.307L224.781 332.684L226.156 329.832L223.307 328.455ZM239.008 333.406L233.881 330.928C233.633 330.896 233.385 330.864 233.174 330.938L230.217 331.97C229.795 332.118 229.52 332.688 229.667 333.111L230.699 336.071C230.772 336.283 230.952 336.457 231.131 336.632L236.258 339.11C236.401 339.179 236.649 339.211 236.965 339.1C237.177 339.026 237.351 338.847 237.525 338.667L239.45 334.675C239.519 334.532 239.551 334.284 239.441 333.967C239.367 333.755 239.188 333.581 239.008 333.406ZM231.588 333.864C231.271 333.974 230.843 333.768 230.733 333.451C230.622 333.133 230.829 332.706 231.146 332.595C231.462 332.484 231.89 332.691 232 333.008C232.111 333.325 231.904 333.753 231.588 333.864Z" fill="#0D0711"/>
</g>
<path d="M222.075 358.512L221.58 357.09L228.213 354.773L228.708 356.195L226.381 357.007L228.638 363.485L226.664 364.174L224.407 357.697L222.075 358.512ZM230.323 358.734L230.157 358.257C229.717 356.994 229.728 355.914 230.189 355.014C230.654 354.113 231.437 353.47 232.54 353.085C233.64 352.701 234.655 352.716 235.585 353.129C236.516 353.542 237.202 354.38 237.641 355.642L237.808 356.12C238.248 357.382 238.231 358.465 237.759 359.368C237.287 360.271 236.502 360.915 235.402 361.299C234.3 361.684 233.286 361.669 232.363 361.253C231.443 360.836 230.763 359.996 230.323 358.734ZM232.406 358.183C232.676 358.957 233.028 359.477 233.461 359.743C233.897 360.005 234.377 360.044 234.901 359.861C235.433 359.675 235.79 359.344 235.972 358.866C236.153 358.385 236.109 357.758 235.839 356.984L235.565 356.197C235.294 355.419 234.939 354.9 234.5 354.64C234.059 354.376 233.573 354.337 233.041 354.523C232.517 354.706 232.166 355.037 231.989 355.517C231.813 355.992 231.861 356.619 232.132 357.396L232.406 358.183ZM238.61 351.141L244.522 349.076L247.274 356.975L245.305 357.663L243.048 351.186L240.651 352.023L241.698 355.655C241.996 356.687 242.069 357.52 241.917 358.153C241.768 358.785 241.287 359.243 240.473 359.527C240.358 359.568 240.232 359.604 240.097 359.635C239.966 359.664 239.834 359.678 239.703 359.675L239.136 358.047C239.234 358.049 239.322 358.043 239.398 358.029C239.473 358.011 239.548 357.989 239.624 357.962C239.964 357.843 240.155 357.635 240.197 357.336C240.241 357.032 240.173 356.571 239.994 355.952L238.61 351.141ZM246.198 348.491L248.167 347.803L249.117 350.532L250.365 350.096C251.435 349.723 252.299 349.689 252.957 349.994C253.619 350.299 254.085 350.838 254.355 351.612C254.628 352.397 254.598 353.109 254.266 353.748C253.936 354.387 253.235 354.893 252.161 355.269L248.95 356.39L246.198 348.491ZM249.607 351.937L250.429 354.297L251.541 353.909C251.986 353.754 252.271 353.542 252.397 353.275C252.522 353.004 252.518 352.679 252.386 352.299C252.258 351.934 252.06 351.679 251.79 351.534C251.521 351.389 251.164 351.394 250.719 351.549L249.607 351.937ZM261.256 352.091L257.424 349.438L258.323 347.688L263.724 351.229L261.256 352.091ZM255.782 348.636L257.132 348.165L258.607 344.156L260.663 343.438L258.369 349.339L256.281 350.069L255.782 348.636ZM256.381 353.795L253.628 345.896L255.602 345.206L258.355 353.105L256.381 353.795ZM262.713 347.42L262.547 346.943C262.107 345.681 262.118 344.6 262.579 343.7C263.044 342.799 263.828 342.156 264.931 341.771C266.03 341.387 267.045 341.402 267.976 341.815C268.906 342.228 269.592 343.066 270.032 344.328L270.198 344.806C270.638 346.068 270.622 347.151 270.15 348.054C269.677 348.957 268.892 349.601 267.793 349.985C266.69 350.37 265.677 350.355 264.753 349.939C263.833 349.522 263.153 348.682 262.713 347.42ZM264.797 346.869C265.066 347.643 265.418 348.163 265.851 348.43C266.287 348.691 266.767 348.73 267.292 348.547C267.823 348.362 268.18 348.03 268.363 347.552C268.544 347.071 268.499 346.444 268.23 345.67L267.956 344.883C267.685 344.106 267.329 343.587 266.89 343.326C266.449 343.062 265.963 343.023 265.431 343.209C264.907 343.392 264.556 343.724 264.379 344.203C264.204 344.678 264.251 345.305 264.522 346.082L264.797 346.869ZM236.17 380.98L232.338 378.326L233.237 376.576L238.638 380.118L236.17 380.98ZM230.696 377.525L232.046 377.053L233.521 373.045L235.577 372.327L233.283 378.228L231.195 378.957L230.696 377.525ZM231.294 382.683L228.542 374.784L230.516 374.094L233.269 381.993L231.294 382.683ZM238.22 380.264L238.328 371.335L240.53 370.566L246.226 377.467L244.089 378.214L240.347 373.447C240.26 373.336 240.181 373.227 240.112 373.122C240.047 373.015 239.982 372.906 239.919 372.794L239.875 372.809C239.895 372.936 239.911 373.062 239.922 373.188C239.937 373.313 239.943 373.447 239.941 373.59L239.989 379.646L238.22 380.264ZM239.398 378.039L239.348 376.498L242.798 375.294L243.721 376.529L239.398 378.039ZM246.768 370.888C246.961 371.442 247.216 371.772 247.534 371.88C247.85 371.985 248.276 371.944 248.811 371.757C249.256 371.602 249.637 371.444 249.954 371.284C250.271 371.121 250.596 370.932 250.931 370.718L251.419 372.118C250.995 372.392 250.591 372.622 250.206 372.809C249.823 372.992 249.384 373.169 248.889 373.342C247.797 373.724 246.931 373.783 246.292 373.519C245.656 373.254 245.179 372.666 244.862 371.755L244.032 369.373L246.001 368.686L246.768 370.888ZM250.752 367.026L253.504 374.925L251.53 375.615L248.778 367.716L250.752 367.026ZM255.169 374.343L252.417 366.444L258.063 364.472L258.558 365.894L254.87 367.182L255.468 368.896L258.657 367.782L259.144 369.182L255.955 370.296L256.634 372.244L260.382 370.934L260.875 372.35L255.169 374.343ZM260.472 368.329L260.305 367.851C259.864 366.586 259.875 365.505 260.337 364.609C260.802 363.708 261.59 363.064 262.7 362.676C263.763 362.305 264.689 362.275 265.48 362.588C266.27 362.9 266.826 363.477 267.147 364.318L267.194 364.453L265.193 365.152L265.133 364.997C264.971 364.567 264.727 364.27 264.403 364.108C264.079 363.945 263.673 363.949 263.184 364.12C262.675 364.298 262.327 364.62 262.14 365.087C261.958 365.552 262.003 366.175 262.275 366.957L262.57 367.803C262.833 368.559 263.18 369.071 263.61 369.338C264.042 369.601 264.528 369.638 265.066 369.45C265.547 369.282 265.86 369.029 266.006 368.69C266.15 368.347 266.156 367.968 266.023 367.552L265.976 367.398L267.977 366.699L268.03 366.851C268.297 367.699 268.216 368.492 267.788 369.23C267.363 369.966 266.621 370.52 265.562 370.89C264.448 371.279 263.431 371.263 262.509 370.842C261.588 370.422 260.909 369.584 260.472 368.329ZM267.128 362.9L266.633 361.479L273.266 359.162L273.761 360.583L271.434 361.396L273.691 367.874L271.717 368.563L269.46 362.086L267.128 362.9ZM276.973 366.728L274.22 358.829L277.371 357.728C278.319 357.397 279.121 357.307 279.778 357.459C280.439 357.61 280.894 358.041 281.142 358.754C281.293 359.188 281.322 359.579 281.229 359.928C281.135 360.277 280.963 360.551 280.711 360.748L280.719 360.77C281.108 360.747 281.474 360.855 281.817 361.092C282.158 361.326 282.418 361.7 282.597 362.213C282.848 362.933 282.757 363.592 282.324 364.189C281.891 364.786 281.212 365.247 280.287 365.57L276.973 366.728ZM278.475 364.736L279.793 364.276C280.194 364.136 280.455 363.935 280.575 363.674C280.699 363.412 280.702 363.113 280.585 362.776C280.469 362.443 280.281 362.213 280.021 362.085C279.765 361.955 279.436 361.96 279.035 362.1L277.717 362.561L278.475 364.736ZM277.288 361.329L278.449 360.924C278.846 360.785 279.104 360.604 279.22 360.38C279.341 360.156 279.349 359.893 279.244 359.593C279.141 359.297 278.972 359.098 278.738 358.997C278.508 358.895 278.194 358.913 277.796 359.052L276.636 359.458L277.288 361.329ZM284.696 364.03L281.944 356.131L287.59 354.159L288.085 355.58L284.397 356.868L284.994 358.583L288.183 357.469L288.671 358.868L285.482 359.982L286.161 361.93L289.908 360.621L290.402 362.037L284.696 364.03ZM291.595 361.62L288.842 353.721L290.811 353.033L291.896 356.147L294.869 355.109L293.783 351.995L295.752 351.307L298.505 359.206L296.536 359.894L295.368 356.541L292.395 357.58L293.564 360.932L291.595 361.62ZM300.175 358.623L297.423 350.724L299.392 350.036L300.477 353.15L303.449 352.112L302.364 348.998L304.333 348.31L307.085 356.209L305.116 356.897L303.948 353.544L300.976 354.583L302.144 357.935L300.175 358.623ZM307.752 355.976L307.859 347.048L310.061 346.279L315.757 353.18L313.62 353.927L309.879 349.16C309.791 349.049 309.713 348.94 309.644 348.835C309.578 348.728 309.514 348.618 309.45 348.507L309.407 348.522C309.427 348.649 309.443 348.775 309.454 348.901C309.469 349.025 309.475 349.159 309.472 349.302L309.52 355.359L307.752 355.976ZM308.93 353.752L308.88 352.211L312.329 351.006L313.252 352.242L308.93 353.752ZM322.445 350.844L320.476 351.532L319.533 348.825L317.759 349.444L317.339 349.372C316.586 349.529 315.95 349.455 315.43 349.15C314.912 348.84 314.54 348.36 314.313 347.709C314.036 346.913 314.089 346.191 314.471 345.542C314.853 344.893 315.543 344.395 316.541 344.046L319.692 342.945L322.445 350.844ZM319.051 347.441L318.209 345.027L317.168 345.391C316.684 345.56 316.383 345.787 316.267 346.071C316.155 346.353 316.16 346.672 316.284 347.026C316.41 347.388 316.607 347.652 316.876 347.818C317.147 347.979 317.525 347.974 318.009 347.805L319.051 347.441ZM318.079 352.369L315.969 353.106L316.666 348.786L318.716 348.069L318.079 352.369ZM237.546 400.625L234.794 392.726L241.617 390.343L244.369 398.242L242.4 398.929L240.143 392.452L237.258 393.46L239.515 399.937L237.546 400.625ZM246.04 397.658L243.287 389.759L246.509 388.634C247.496 388.289 248.334 388.25 249.023 388.516C249.716 388.781 250.209 389.335 250.503 390.178C250.796 391.021 250.757 391.765 250.386 392.41C250.014 393.055 249.333 393.55 248.343 393.896L247.09 394.334L248.009 396.97L246.04 397.658ZM246.604 392.94L247.7 392.557C248.177 392.39 248.47 392.166 248.579 391.885C248.687 391.603 248.673 391.265 248.536 390.871C248.4 390.481 248.203 390.213 247.945 390.067C247.687 389.918 247.319 389.927 246.841 390.094L245.746 390.477L246.604 392.94ZM251.873 391.458L251.707 390.981C251.267 389.718 251.278 388.637 251.739 387.738C252.204 386.837 252.988 386.194 254.091 385.809C255.19 385.425 256.205 385.44 257.136 385.853C258.067 386.266 258.752 387.104 259.192 388.366L259.358 388.844C259.798 390.106 259.782 391.189 259.31 392.092C258.838 392.995 258.052 393.639 256.953 394.023C255.85 394.408 254.837 394.393 253.913 393.977C252.993 393.56 252.313 392.72 251.873 391.458ZM253.957 390.907C254.226 391.681 254.578 392.201 255.012 392.467C255.447 392.729 255.928 392.768 256.452 392.585C256.983 392.399 257.34 392.068 257.523 391.59C257.704 391.109 257.66 390.482 257.39 389.708L257.116 388.921C256.845 388.143 256.49 387.624 256.05 387.364C255.609 387.1 255.123 387.061 254.592 387.247C254.067 387.43 253.716 387.761 253.539 388.241C253.364 388.716 253.412 389.343 253.683 390.12L253.957 390.907ZM268.402 391.612L267.854 390.038L263.097 391.7L263.645 393.273L261.791 393.921L260.747 390.926L269.219 387.967L270.262 390.962L268.402 391.612ZM259.976 383.93L265.964 381.838L268.716 389.737L266.742 390.427L264.485 383.949L262.012 384.813L262.849 387.6C263.085 388.382 263.223 389.011 263.263 389.488C263.302 389.961 263.264 390.41 263.149 390.836L261.403 391.446C261.54 390.932 261.599 390.444 261.581 389.984C261.565 389.519 261.433 388.873 261.186 388.047L259.976 383.93ZM270.225 387.415C270.328 387.408 270.443 387.394 270.569 387.374C270.695 387.35 270.827 387.314 270.964 387.266C271.253 387.165 271.48 387.025 271.645 386.846C271.808 386.663 271.915 386.382 271.966 386.004L272.011 386.256L267.065 381.454L269.126 380.734L271.667 383.4C271.845 383.585 271.97 383.74 272.042 383.865C272.113 383.987 272.199 384.107 272.301 384.225L272.345 384.21C272.345 384.06 272.341 383.913 272.331 383.77C272.321 383.624 272.324 383.428 272.34 383.183L272.548 379.538L274.327 378.917L273.761 385.742C273.688 386.639 273.503 387.325 273.206 387.798C272.91 388.266 272.427 388.618 271.754 388.853C271.526 388.932 271.34 388.987 271.197 389.017C271.058 389.049 270.926 389.065 270.8 389.064L270.225 387.415ZM282.807 384.815L278.974 382.162L279.873 380.412L285.275 383.953L282.807 384.815ZM277.332 381.36L278.683 380.889L280.158 376.88L282.213 376.162L279.919 382.063L277.831 382.793L277.332 381.36ZM277.931 386.519L275.179 378.62L277.153 377.93L279.905 385.829L277.931 386.519ZM292.375 383.238L291.826 381.665L285.86 383.749L283.108 375.85L285.077 375.162L287.334 381.64L290.219 380.632L287.962 374.154L289.936 373.465L292.194 379.942L293.186 379.596L294.23 382.59L292.375 383.238ZM301.562 378.264L299.588 378.954L298.021 374.456C297.978 374.333 297.931 374.194 297.88 374.037C297.829 373.876 297.782 373.732 297.742 373.604L297.693 373.621C297.682 373.763 297.666 373.905 297.646 374.046C297.629 374.182 297.61 374.33 297.589 374.492L296.729 379.952L294.603 380.695L291.851 372.796L293.82 372.108L295.372 376.562C295.415 376.685 295.466 376.838 295.525 377.02C295.583 377.198 295.632 377.35 295.671 377.474L295.72 377.457C295.732 377.339 295.746 377.198 295.762 377.035C295.781 376.87 295.801 376.711 295.82 376.558L296.678 371.11L298.81 370.365L301.562 378.264ZM309.247 375.58L307.279 376.267L306.335 373.56L304.562 374.18L304.141 374.108C303.389 374.265 302.753 374.191 302.233 373.886C301.715 373.576 301.343 373.095 301.116 372.444C300.839 371.649 300.891 370.926 301.273 370.278C301.656 369.629 302.346 369.13 303.344 368.782L306.495 367.681L309.247 375.58ZM305.853 372.177L305.012 369.763L303.971 370.127C303.486 370.296 303.186 370.522 303.07 370.806C302.957 371.089 302.963 371.408 303.086 371.762C303.212 372.124 303.41 372.387 303.679 372.553C303.95 372.714 304.327 372.71 304.812 372.541L305.853 372.177ZM304.881 377.105L302.771 377.842L303.468 373.521L305.518 372.805L304.881 377.105Z" fill="#0D0711"/>
<path d="M13.1855 4.39042C13.4272 1.96565 15.5887 0.196337 18.0134 0.43855L119.642 10.5906C122.067 10.8328 123.837 12.9948 123.595 15.4196L121.848 32.9467L11.439 21.9176L13.1855 4.39042Z" fill="#5296FF"/>
<path d="M11.4395 21.9175L201.499 40.9032C203.923 41.1454 205.693 43.3074 205.452 45.7322L204.143 58.8689C203.901 61.2937 201.739 63.063 199.315 62.8208L9.25536 43.8351L11.4395 21.9175Z" fill="#5296FF"/>
<path d="M9.25391 43.8353L140.8 56.9758L139.053 74.503C138.812 76.9277 136.65 78.697 134.226 78.4548L11.4601 66.1914C9.03543 65.9492 7.26569 63.7872 7.50732 61.3624L9.25391 43.8353Z" fill="#5296FF"/>
<path d="M19.3503 19.9183L20.3505 9.88039L28.4993 10.6944L27.499 20.7323L25.3825 20.5209L26.2227 12.0893L22.3069 11.6982L21.4667 20.1297L19.3503 19.9183ZM29.6361 20.9458L30.6364 10.9079L34.4626 11.2901C35.63 11.4067 36.4983 11.7766 37.0674 12.3998C37.6412 13.0234 37.8761 13.8569 37.7722 14.9002C37.6686 15.9389 37.2737 16.7118 36.5872 17.2188C35.9054 17.7263 34.9785 17.9215 33.8065 17.8044L32.0968 17.6336L31.7457 21.1565L29.6361 20.9458ZM32.2541 16.0548L33.7777 16.207C34.4257 16.2718 34.8887 16.1672 35.1666 15.8932C35.4446 15.6193 35.6099 15.218 35.6626 14.6894C35.7148 14.1655 35.6312 13.7463 35.4119 13.432C35.193 13.113 34.7596 12.9212 34.1115 12.8565L32.588 12.7043L32.2541 16.0548ZM46.8574 22.6661L44.7409 22.4547L45.3503 16.3395C45.3663 16.1787 45.3839 16.0017 45.4032 15.8087C45.4275 15.6115 45.4499 15.4327 45.4706 15.2723L45.4223 15.2675C45.3337 15.4118 45.2452 15.5538 45.157 15.6936C45.0688 15.8333 44.9701 15.9859 44.8608 16.1514L40.7906 22.0601L38.5018 21.8314L39.5021 11.7935L41.6186 12.0049L41.0092 18.1201C40.9932 18.2809 40.973 18.4599 40.9487 18.6571C40.929 18.8548 40.9091 19.0315 40.8889 19.1873L40.9441 19.1928C41.0162 19.0747 41.0996 18.9368 41.1942 18.7791C41.2934 18.6219 41.3949 18.465 41.4987 18.3082L45.5688 12.3995L47.8577 12.6282L46.8574 22.6661ZM48.9945 22.8796L49.9948 12.8417L52.1044 13.0524L51.7004 17.1062L55.7403 17.5097L56.1443 13.4559L58.2538 13.6667L57.2535 23.7046L55.144 23.4939L55.5789 19.1299L51.539 18.7263L51.1041 23.0903L48.9945 22.8796ZM67.7462 24.7527L65.6298 24.5413L66.2391 18.4262C66.2552 18.2653 66.2728 18.0884 66.292 17.8953C66.3163 17.6982 66.3388 17.5194 66.3594 17.359L66.3112 17.3542C66.2225 17.4985 66.1341 17.6405 66.0459 17.7802C65.9577 17.92 65.8589 18.0726 65.7496 18.238L61.6795 24.1467L59.3907 23.9181L60.391 13.8802L62.5074 14.0916L61.8981 20.2067C61.882 20.3676 61.8619 20.5466 61.8376 20.7438C61.8179 20.9414 61.7979 21.1181 61.7778 21.2739L61.8329 21.2794C61.905 21.1613 61.9884 21.0234 62.083 20.8658C62.1823 20.7086 62.2838 20.5516 62.3876 20.3949L66.4577 14.4862L68.7465 14.7148L67.7462 24.7527ZM69.8834 24.9662L70.8837 14.9283L73.5861 15.1983L75.3374 21.9391C75.377 22.1009 75.4106 22.2528 75.4382 22.3948C75.4663 22.5322 75.4856 22.6874 75.4963 22.8602L75.5376 22.8643C75.5867 22.6975 75.6388 22.5472 75.6939 22.4134C75.7491 22.2797 75.8117 22.1397 75.882 21.9935L78.9359 15.7327L81.6797 16.0068L80.6794 26.0447L78.5905 25.836L79.2287 19.4313C79.2443 19.2751 79.2636 19.1052 79.2865 18.9218C79.3144 18.7343 79.3429 18.5654 79.3718 18.4151L79.3166 18.4096C79.2785 18.559 79.2271 18.7256 79.1624 18.9095C79.1027 19.0892 79.0375 19.2544 78.9668 19.4052L75.9639 25.5736L74.2335 25.4008L72.5278 18.7619C72.4882 18.6002 72.4546 18.4251 72.4269 18.2366C72.3998 18.0436 72.3822 17.8701 72.3744 17.7161L72.3192 17.7106C72.3179 17.8637 72.3101 18.0346 72.2959 18.2235C72.2868 18.4083 72.2745 18.5788 72.2589 18.7351L71.6207 25.1398L69.8834 24.9662ZM81.5618 26.1328L86.3724 16.4268L88.5992 16.6492L91.4685 27.1224L89.1935 26.8952L87.3221 19.5435C87.2825 19.3817 87.2514 19.2278 87.2288 19.0816C87.2109 18.9359 87.1952 18.7905 87.1818 18.6452L87.1267 18.6397C87.0849 18.7794 87.0383 18.921 86.9869 19.0644C86.9405 19.2037 86.8822 19.3464 86.8119 19.4926L83.5266 26.3291L81.5618 26.1328ZM83.9402 24.1354L84.5856 22.6193L89.0185 23.0621L89.3589 24.6766L83.9402 24.1354ZM92.3579 27.2113L93.3581 17.1734L100.114 17.8483L99.9542 19.4546L95.2938 18.9891L95.0472 21.4641L99.0802 21.8669L98.9222 23.4526L94.8892 23.0497L94.613 25.8212L99.3492 26.2943L99.1898 27.8938L92.3579 27.2113ZM100.7 28.0446L101.7 18.0066L104.402 18.2766L106.154 25.0175C106.193 25.1792 106.227 25.3311 106.254 25.4732C106.282 25.6106 106.302 25.7657 106.312 25.9385L106.354 25.9426C106.403 25.7758 106.455 25.6255 106.51 25.4917C106.565 25.358 106.628 25.218 106.698 25.0719L109.752 18.811L112.496 19.0851L111.496 29.123L109.407 28.9144L110.045 22.5097C110.061 22.3534 110.08 22.1836 110.103 22.0002C110.131 21.8127 110.159 21.6438 110.188 21.4935L110.133 21.488C110.095 21.6373 110.043 21.8039 109.979 21.9878C109.919 22.1675 109.854 22.3327 109.783 22.4835L106.78 28.652L105.05 28.4791L103.344 21.8403C103.304 21.6785 103.271 21.5034 103.243 21.315C103.216 21.1219 103.198 20.9484 103.191 20.7945L103.135 20.789C103.134 20.942 103.126 21.113 103.112 21.3019C103.103 21.4866 103.091 21.6572 103.075 21.8134L102.437 28.2181L100.7 28.0446ZM113.699 28.3265C113.73 28.0094 113.865 27.749 114.104 27.5454C114.343 27.3371 114.664 27.2532 115.069 27.2936C115.473 27.334 115.772 27.4799 115.965 27.7313C116.163 27.9786 116.247 28.2607 116.215 28.5779C116.183 28.895 116.048 29.1577 115.809 29.3659C115.571 29.5696 115.249 29.6512 114.845 29.6108C114.436 29.5699 114.134 29.4261 113.941 29.1793C113.748 28.9279 113.667 28.6436 113.699 28.3265ZM114.23 22.9973C114.261 22.6802 114.396 22.4198 114.635 22.2162C114.874 22.0079 115.198 21.9243 115.607 21.9651C116.011 22.0055 116.31 22.1514 116.503 22.4028C116.697 22.6496 116.778 22.9315 116.746 23.2487C116.714 23.5658 116.577 23.826 116.334 24.0291C116.096 24.2328 115.774 24.3144 115.37 24.274C114.965 24.2336 114.666 24.09 114.473 23.8432C114.279 23.5964 114.198 23.3144 114.23 22.9973ZM17.5654 37.8296L18.5657 27.7917L21.2681 28.0616L23.0194 34.8025C23.059 34.9643 23.0926 35.1162 23.1202 35.2582C23.1483 35.3956 23.1676 35.5507 23.1783 35.7235L23.2196 35.7277C23.2688 35.5608 23.3209 35.4105 23.376 35.2768C23.4311 35.143 23.4938 35.0031 23.564 34.8569L26.6179 28.596L29.3617 28.8701L28.3614 38.9081L26.2725 38.6994L26.9108 32.2947C26.9263 32.1384 26.9456 31.9686 26.9685 31.7852C26.9965 31.5977 27.0249 31.4288 27.0538 31.2785L26.9987 31.273C26.9606 31.4224 26.9091 31.589 26.8444 31.7728C26.7847 31.9525 26.7195 32.1178 26.6488 32.2685L23.6459 38.437L21.9155 38.2641L20.2098 31.6253C20.1702 31.4635 20.1366 31.2884 20.109 31.1C20.0818 30.907 20.0642 30.7335 20.0564 30.5795L20.0012 30.574C19.9999 30.727 19.9922 30.898 19.978 31.0869C19.9688 31.2717 19.9565 31.4422 19.9409 31.5985L19.3027 38.0031L17.5654 37.8296ZM29.299 39.0017L34.1096 29.2957L36.3364 29.5181L39.2057 39.9913L36.9307 39.7641L35.0592 32.4124C35.0197 32.2506 34.9886 32.0967 34.966 31.9505C34.948 31.8048 34.9324 31.6593 34.919 31.5141L34.8638 31.5086C34.8221 31.6483 34.7755 31.7899 34.724 31.9333C34.6777 32.0726 34.6194 32.2153 34.5491 32.3614L31.2638 39.198L29.299 39.0017ZM31.6774 37.0042L32.3228 35.4881L36.7556 35.931L37.0961 37.5455L31.6774 37.0042ZM39.8203 37.1771L39.8389 36.9909L41.9898 37.2058L41.974 37.3644C41.925 37.8562 42.0467 38.242 42.3391 38.5219C42.6366 38.7976 43.0702 38.9639 43.6401 39.0208C44.2054 39.0773 44.6512 39.0058 44.9775 38.8063C45.3037 38.6068 45.4856 38.3186 45.5231 37.9417C45.563 37.5419 45.4487 37.2217 45.1802 36.9814C44.9122 36.7365 44.3013 36.4387 43.3475 36.0881C42.3221 35.7118 41.5569 35.2617 41.0521 34.7378C40.5524 34.2098 40.341 33.5365 40.4179 32.7179C40.5063 31.8309 40.9146 31.1568 41.6429 30.6957C42.3758 30.2351 43.3144 30.062 44.4588 30.1763C45.5986 30.2902 46.4837 30.6548 47.114 31.2701C47.7489 31.8859 48.021 32.6488 47.9303 33.5589L47.9131 33.7312L45.7967 33.5198L45.8118 33.3681C45.8544 32.9407 45.7506 32.5845 45.5005 32.2996C45.2509 32.0101 44.8526 31.838 44.3057 31.7833C43.7587 31.7287 43.344 31.7917 43.0614 31.9724C42.7834 32.1535 42.627 32.4187 42.5922 32.768C42.5574 33.1173 42.6689 33.3954 42.9268 33.6022C43.1898 33.8048 43.7954 34.0858 44.7436 34.4451C45.7548 34.8246 46.5191 35.2839 47.0363 35.823C47.5581 36.3625 47.776 37.0875 47.6899 37.998C47.5951 38.9494 47.1651 39.6538 46.4001 40.1112C45.635 40.5686 44.6619 40.7383 43.4807 40.6203C42.3134 40.5037 41.3856 40.1487 40.6974 39.5555C40.0138 38.9626 39.7214 38.1698 39.8203 37.1771ZM48.8496 32.4392L49.0096 30.8328L57.0963 31.6406L56.9362 33.247L53.9511 32.9488L53.1109 41.3804L50.9945 41.1689L51.8347 32.7374L48.8496 32.4392ZM57.3163 41.8004L58.3166 31.7625L65.0727 32.4374L64.9126 34.0438L60.2523 33.5782L60.0056 36.0532L64.0386 36.4561L63.8806 38.0418L59.8476 37.6389L59.5714 40.4104L64.3076 40.8835L64.1482 42.4829L57.3163 41.8004ZM65.658 42.6337L66.6583 32.5958L70.3121 32.9608C71.4841 33.0779 72.3687 33.4471 72.9659 34.0684C73.5682 34.6856 73.8194 35.4952 73.7196 36.4971C73.6188 37.5083 73.2112 38.2683 72.4967 38.7771C71.7827 39.2814 70.842 39.4752 69.6746 39.3586L68.1303 39.2043L67.7676 42.8445L65.658 42.6337ZM68.2856 37.6463L69.7609 37.7936C70.3768 37.8552 70.8237 37.7489 71.1016 37.475C71.3842 37.2015 71.553 36.8122 71.6079 36.3071C71.6579 35.8061 71.5706 35.4005 71.3462 35.0903C71.1219 34.7801 70.7017 34.5942 70.0859 34.5327L68.6106 34.3853L68.2856 37.6463ZM71.1457 43.1819L69.2489 38.3204L71.486 38.4394L73.5172 43.4188L71.1457 43.1819ZM74.7723 38.7886L74.8342 38.1681C74.9945 36.5595 75.5297 35.3805 76.4399 34.6313C77.3547 33.8825 78.4762 33.5744 79.8044 33.7071C81.0683 33.8334 82.0373 34.2644 82.7113 35.0001C83.3858 35.7313 83.6715 36.6139 83.5684 37.6481L83.5512 37.8204L81.421 37.6076L81.4409 37.4077C81.5009 36.8056 81.3815 36.3271 81.0826 35.9724C80.7842 35.613 80.2972 35.3996 79.6216 35.3321C78.9368 35.2637 78.3617 35.4453 77.8963 35.8769C77.4313 36.3039 77.1446 37.0621 77.036 38.1513L76.9275 39.2406C76.8267 40.2518 76.9552 41.0352 77.313 41.5908C77.6712 42.1418 78.2111 42.4534 78.9326 42.5254C79.5761 42.5897 80.0735 42.4653 80.425 42.1523C80.7811 41.8397 81.0038 41.3978 81.0933 40.8265L81.118 40.6479L83.2483 40.8607L83.2304 41.04C83.0828 42.0557 82.6175 42.8587 81.8346 43.4489C81.0516 44.0392 80.0282 44.2711 78.7643 44.1449C77.4269 44.0113 76.3862 43.4849 75.6423 42.5658C74.9034 41.6425 74.6134 40.3835 74.7723 38.7886ZM83.0861 44.3747L87.8967 34.6686L90.1234 34.8911L92.9928 45.3643L90.7178 45.137L88.8463 37.7854C88.8067 37.6236 88.7757 37.4696 88.7531 37.3235C88.7351 37.1778 88.7195 37.0323 88.7061 36.8871L88.6509 36.8816C88.6091 37.0213 88.5626 37.1629 88.5111 37.3063C88.4648 37.4455 88.4064 37.5882 88.3362 37.7344L85.0509 44.571L83.0861 44.3747ZM85.4644 42.3772L86.1099 40.8611L90.5427 41.3039L90.8831 42.9185L85.4644 42.3772ZM93.8821 45.4531L94.8824 35.4152L98.5362 35.7802C99.7082 35.8973 100.593 36.2665 101.19 36.8878C101.792 37.505 102.044 38.3146 101.944 39.3165C101.843 40.3277 101.435 41.0877 100.721 41.5965C100.007 42.1008 99.0661 42.2946 97.8987 42.178L96.3544 42.0237L95.9917 45.6639L93.8821 45.4531ZM96.5097 40.4657L97.985 40.613C98.6009 40.6746 99.0478 40.5683 99.3257 40.2944C99.6083 40.0209 99.777 39.6316 99.832 39.1265C99.8819 38.6255 99.7947 38.2199 99.5703 37.9097C99.3459 37.5995 98.9258 37.4136 98.31 37.3521L96.8346 37.2047L96.5097 40.4657ZM99.3697 46.0013L97.473 41.1398L99.7101 41.2588L101.741 46.2382L99.3697 46.0013ZM102.913 46.3553L103.914 36.3174L107.278 36.6534C108.629 36.7884 109.718 37.315 110.546 38.2332C111.374 39.1514 111.714 40.3505 111.566 41.8304L111.504 42.4578C111.356 43.9424 110.786 45.0528 109.793 45.7892C108.801 46.5256 107.629 46.8263 106.278 46.6914L102.913 46.3553ZM105.173 44.9866L106.407 45.1098C107.189 45.1879 107.846 44.9913 108.381 44.5202C108.92 44.0495 109.24 43.3063 109.341 42.2905L109.412 41.5735C109.514 40.5578 109.346 39.7682 108.91 39.2048C108.48 38.6372 107.874 38.3144 107.092 38.2363L105.858 38.1131L105.173 44.9866ZM111.511 48.8087C111.796 48.5122 112.021 48.1934 112.185 47.8524C112.353 47.5164 112.459 47.1209 112.505 46.6659L112.652 45.1836L114.521 45.3702L114.38 46.8532C114.321 47.4415 114.132 47.968 113.812 48.4327C113.496 48.9024 113.097 49.2943 112.615 49.6083L111.511 48.8087ZM119.722 37.8965L122.024 38.1265L123.792 45.1893C123.825 45.3226 123.848 45.4455 123.86 45.5581C123.877 45.6666 123.894 45.7937 123.912 45.9394L123.974 45.9456C124.021 45.8063 124.063 45.6852 124.101 45.5822C124.144 45.4751 124.193 45.3593 124.247 45.2348L127.422 38.6657L129.442 38.8675L124.702 48.5666L122.468 48.3435L119.722 37.8965ZM129.29 48.9901L130.29 38.9522L132.407 39.1636L131.406 49.2015L129.29 48.9901ZM133.248 46.5099L133.267 46.3237L135.417 46.5386L135.402 46.6972C135.353 47.189 135.474 47.5748 135.767 47.8547C136.064 48.1304 136.498 48.2967 137.068 48.3536C137.633 48.4101 138.079 48.3386 138.405 48.1391C138.731 47.9396 138.913 47.6514 138.951 47.2745C138.991 46.8747 138.876 46.5545 138.608 46.3142C138.34 46.0693 137.729 45.7715 136.775 45.4209C135.75 45.0446 134.985 44.5945 134.48 44.0706C133.98 43.5426 133.769 42.8693 133.846 42.0507C133.934 41.1637 134.342 40.4896 135.071 40.0285C135.803 39.5679 136.742 39.3948 137.886 39.5091C139.026 39.623 139.911 39.9876 140.542 40.6029C141.177 41.2187 141.449 41.9816 141.358 42.8917L141.341 43.064L139.224 42.8526L139.239 42.7009C139.282 42.2735 139.178 41.9173 138.928 41.6324C138.679 41.3429 138.28 41.1708 137.733 41.1161C137.186 41.0615 136.772 41.1245 136.489 41.3052C136.211 41.4863 136.055 41.7515 136.02 42.1008C135.985 42.4501 136.097 42.7282 136.354 42.935C136.617 43.1376 137.223 43.4186 138.171 43.7779C139.183 44.1574 139.947 44.6167 140.464 45.1558C140.986 45.6953 141.204 46.4203 141.118 47.3308C141.023 48.2822 140.593 48.9866 139.828 49.444C139.063 49.9014 138.09 50.0711 136.908 49.9531C135.741 49.8365 134.813 49.4815 134.125 48.8883C133.441 48.2954 133.149 47.5026 133.248 46.5099ZM141.092 50.1691L145.903 40.4631L148.13 40.6855L150.999 51.1587L148.724 50.9315L146.853 43.5798C146.813 43.418 146.782 43.2641 146.759 43.1179C146.741 42.9722 146.726 42.8267 146.712 42.6815L146.657 42.676C146.615 42.8157 146.569 42.9573 146.517 43.1007C146.471 43.24 146.413 43.3827 146.342 43.5288L143.057 50.3654L141.092 50.1691ZM143.471 48.1716L144.116 46.6556L148.549 47.0984L148.889 48.7129L143.471 48.1716ZM151.386 52.7919C151.671 52.4954 151.896 52.1767 152.06 51.8356C152.228 51.4996 152.334 51.1041 152.38 50.6491L152.527 49.1669L154.396 49.3535L154.255 50.8364C154.196 51.4247 154.007 51.9512 153.687 52.4159C153.371 52.8857 152.972 53.2775 152.49 53.5915L151.386 52.7919ZM159.858 52.0437L160.858 42.0057L163.561 42.2757L165.312 49.0166C165.351 49.1783 165.385 49.3302 165.413 49.4723C165.441 49.6097 165.46 49.7648 165.471 49.9376L165.512 49.9417C165.561 49.7749 165.613 49.6246 165.668 49.4908C165.723 49.3571 165.786 49.2171 165.856 49.071L168.91 42.8101L171.654 43.0842L170.654 53.1221L168.565 52.9135L169.203 46.5088C169.219 46.3525 169.238 46.1827 169.261 45.9993C169.289 45.8118 169.317 45.6428 169.346 45.4926L169.291 45.487C169.253 45.6364 169.202 45.803 169.137 45.9869C169.077 46.1666 169.012 46.3318 168.941 46.4826L165.938 52.6511L164.208 52.4782L162.502 45.8394C162.463 45.6776 162.429 45.5025 162.401 45.3141C162.374 45.121 162.357 44.9475 162.349 44.7936L162.294 44.788C162.292 44.9411 162.285 45.1121 162.27 45.301C162.261 45.4857 162.249 45.6563 162.233 45.8125L161.595 52.2172L159.858 52.0437ZM181.147 54.1703L179.03 53.9588L179.639 47.8437C179.655 47.6828 179.673 47.5059 179.692 47.3129C179.717 47.1157 179.739 46.9369 179.76 46.7765L179.711 46.7717C179.623 46.916 179.534 47.058 179.446 47.1978C179.358 47.3375 179.259 47.4901 179.15 47.6556L175.08 53.5642L172.791 53.3356L173.791 43.2977L175.908 43.5091L175.298 49.6242C175.282 49.7851 175.262 49.9641 175.238 50.1613C175.218 50.3589 175.198 50.5356 175.178 50.6915L175.233 50.697C175.305 50.5788 175.389 50.4409 175.483 50.2833C175.583 50.1261 175.684 49.9691 175.788 49.8124L179.858 43.9037L182.147 44.1323L181.147 54.1703ZM183.284 54.3838L184.284 44.3458L188.11 44.728C189.278 44.8447 190.146 45.2145 190.715 45.8377C191.289 46.4613 191.524 47.2948 191.42 48.3381C191.316 49.3768 190.921 50.1497 190.235 50.6567C189.553 51.1642 188.626 51.3594 187.454 51.2423L185.744 51.0716L185.393 54.5945L183.284 54.3838ZM185.902 49.4928L187.425 49.645C188.073 49.7097 188.536 49.6051 188.814 49.3312C189.092 49.0572 189.257 48.6559 189.31 48.1274C189.362 47.6034 189.279 47.1843 189.059 46.8699C188.841 46.551 188.407 46.3592 187.759 46.2944L186.235 46.1422L185.902 49.4928ZM24.0369 57.5706L21.9205 57.3592L22.5298 51.2441C22.5459 51.0832 22.5635 50.9063 22.5827 50.7132C22.607 50.516 22.6295 50.3373 22.6501 50.1768L22.6018 50.172C22.5132 50.3164 22.4248 50.4584 22.3366 50.5981C22.2484 50.7378 22.1496 50.8904 22.0403 51.0559L17.9702 56.9646L15.6814 56.736L16.6817 46.698L18.7981 46.9095L18.1887 53.0246C18.1727 53.1855 18.1525 53.3645 18.1283 53.5617C18.1086 53.7593 18.0886 53.936 18.0685 54.0918L18.1236 54.0973C18.1957 53.9792 18.2791 53.8413 18.3737 53.6837C18.4729 53.5265 18.5745 53.3695 18.6783 53.2128L22.7484 47.3041L25.0372 47.5327L24.0369 57.5706ZM35.8808 58.7538L32.6259 53.7566L34.2704 52.6258L38.5212 59.0175L35.8808 58.7538ZM31.3756 52.26L32.975 52.4198L36.8604 48.7138L39.1355 48.941L33.5788 54.1163L31.2141 53.8801L31.3756 52.26ZM29.6211 58.1284L30.6213 48.0905L32.7378 48.3019L31.7375 58.3399L29.6211 58.1284ZM39.3696 54.3467L39.4315 53.7262C39.5913 52.1221 40.1309 50.946 41.0503 50.1976C41.9747 49.4451 43.0965 49.1348 44.4155 49.2665C45.7346 49.3983 46.7752 49.9247 47.5375 50.8456C48.3003 51.762 48.6018 53.0222 48.4419 54.6263L48.3801 55.2468C48.2203 56.8508 47.6758 58.0288 46.7468 58.7808C45.8182 59.5283 44.6944 59.8361 43.3754 59.7043C42.0563 59.5726 41.0177 59.0487 40.2595 58.1328C39.5064 57.2128 39.2098 55.9507 39.3696 54.3467ZM41.5213 54.7635C41.4178 55.8022 41.5498 56.5976 41.9172 57.1495C42.2891 57.7019 42.829 58.0135 43.5368 58.0842C44.2492 58.1554 44.8445 57.9572 45.3228 57.4897C45.8011 57.0223 46.092 56.2692 46.1955 55.2304L46.2964 54.217C46.4004 53.1737 46.2639 52.3779 45.8868 51.8296C45.5102 51.2767 44.9658 50.9647 44.2534 50.8936C43.5456 50.8229 42.9549 51.0215 42.4812 51.4894C42.0126 51.9532 41.7263 52.7068 41.6223 53.7501L41.5213 54.7635ZM49.6688 60.1311L50.6691 50.0932L52.7787 50.3039L52.3747 54.3577L56.4146 54.7612L56.8186 50.7075L58.9282 50.9182L57.9279 60.9561L55.8183 60.7454L56.2532 56.3814L52.2133 55.9778L51.7784 60.3418L49.6688 60.1311ZM60.065 61.1696L61.0653 51.1317L67.8214 51.8066L67.6614 53.4129L63.001 52.9474L62.7544 55.4224L66.7874 55.8252L66.6294 57.4109L62.5964 57.008L62.3202 59.7795L67.0564 60.2526L66.897 61.8521L60.065 61.1696ZM71.0722 54.9582C70.998 55.7028 71.1092 56.2175 71.4057 56.5024C71.7027 56.7828 72.2235 56.9601 72.9681 57.0345C73.4966 57.0873 73.9815 57.1125 74.4227 57.1102C74.8689 57.1037 75.3241 57.0772 75.7883 57.0307L75.6317 58.6026C74.9708 58.6666 74.4039 58.6958 73.931 58.6904C73.4581 58.6849 72.9459 58.6546 72.3943 58.5995C71.0201 58.4622 70.0726 58.096 69.5517 57.5009C69.0312 56.9012 68.8271 56.0383 68.9393 54.9122L69.2347 51.9477L71.3512 52.1592L71.0722 54.9582ZM77.28 52.7514L76.2797 62.7893L74.1633 62.5779L75.1636 52.54L77.28 52.7514ZM78.4169 63.0028L79.4172 52.9649L81.5267 53.1756L81.1228 57.2294L85.1627 57.633L85.5666 53.5792L87.6762 53.7899L86.6759 63.8278L84.5663 63.6171L85.0012 59.2531L80.9613 58.8495L80.5264 63.2136L78.4169 63.0028ZM88.8962 59.294L88.958 58.6736C89.1179 57.0695 89.6575 55.8933 90.5769 55.145C91.5013 54.3925 92.623 54.0822 93.9421 54.2139C95.2611 54.3457 96.3018 54.8721 97.0641 55.793C97.8269 56.7094 98.1284 57.9696 97.9685 59.5737L97.9067 60.1941C97.7468 61.7982 97.2024 62.9762 96.2734 63.7282C95.3448 64.4756 94.221 64.7835 92.902 64.6517C91.5829 64.5199 90.5443 63.9961 89.7861 63.0802C89.033 62.1601 88.7364 60.8981 88.8962 59.294ZM91.0479 59.7109C90.9444 60.7496 91.0763 61.545 91.4437 62.0969C91.8157 62.6493 92.3556 62.9609 93.0634 63.0316C93.7758 63.1027 94.3711 62.9046 94.8494 62.4371C95.3276 61.9696 95.6185 61.2165 95.722 60.1778L95.823 59.1644C95.927 58.1211 95.7905 57.3253 95.4134 56.777C95.0368 56.2241 94.4923 55.9121 93.78 55.8409C93.0722 55.7702 92.4814 55.9689 92.0078 56.4368C91.5392 56.9006 91.2529 57.6541 91.1489 58.6975L91.0479 59.7109ZM102.726 60.6755L102.787 60.055C102.948 58.4464 103.483 57.2674 104.393 56.5182C105.308 55.7694 106.429 55.4613 107.758 55.594C109.022 55.7203 109.991 56.1513 110.665 56.887C111.339 57.6182 111.625 58.5008 111.522 59.535L111.504 59.7073L109.374 59.4945L109.394 59.2946C109.454 58.6925 109.335 58.2141 109.036 57.8593C108.737 57.4999 108.25 57.2865 107.575 57.219C106.89 57.1506 106.315 57.3322 105.85 57.7638C105.385 58.1908 105.098 58.949 104.989 60.0382L104.881 61.1275C104.78 62.1387 104.908 62.9221 105.266 63.4777C105.624 64.0287 106.164 64.3403 106.886 64.4123C107.529 64.4766 108.027 64.3522 108.378 64.0392C108.734 63.7266 108.957 63.2847 109.047 62.7134L109.071 62.5348L111.202 62.7476L111.184 62.9269C111.036 63.9426 110.571 64.7456 109.788 65.3358C109.005 65.9261 107.981 66.158 106.718 66.0318C105.38 65.8982 104.339 65.3718 103.596 64.4527C102.857 63.5294 102.567 62.2704 102.726 60.6755ZM112.294 66.3869L113.294 56.349L120.064 57.0253L119.904 58.6316L115.251 58.1668L115.02 60.4832L116.916 60.6726C118.019 60.7828 118.84 61.1341 119.38 61.7264C119.92 62.3188 120.141 63.0976 120.045 64.0628C119.949 65.028 119.578 65.7521 118.931 66.2352C118.284 66.7137 117.409 66.8979 116.306 66.7877L112.294 66.3869ZM114.863 62.062L114.569 65.0127L116.271 65.1828C116.837 65.2393 117.259 65.1445 117.539 64.8986C117.819 64.6527 117.981 64.3068 118.025 63.861C118.07 63.4106 117.979 63.0418 117.753 62.7545C117.526 62.4627 117.131 62.2885 116.565 62.2321L114.863 62.062ZM121.215 67.2781L122.215 57.2401L130.364 58.0541L129.364 68.0921L127.247 67.8806L128.087 59.4491L124.172 59.0579L123.331 67.4895L121.215 67.2781Z" fill="#0D0711"/>
<path d="M125.352 157.067C125.352 157.067 130.237 164.617 135.483 165.337C140.729 166.057 147.464 160.103 147.464 160.103C147.464 160.103 140.785 165.281 140.088 170.368C139.392 175.454 144.432 182.242 144.432 182.242C144.432 182.242 139.748 173.592 134.452 172.865C129.157 172.138 122.32 179.207 122.32 179.207C122.32 179.207 128.55 174.013 129.253 168.881C129.956 163.748 125.352 157.067 125.352 157.067Z" fill="#0D0711"/>
<path d="M304.479 200.981C304.479 200.981 313.218 203.071 317.511 199.969C321.805 196.867 322.577 187.904 322.577 187.904C322.577 187.904 321.311 196.267 324.312 200.43C327.312 204.593 335.638 206.025 335.638 206.025C335.638 206.025 326.286 202.999 321.952 206.13C317.618 209.262 317.539 219.102 317.539 219.102C317.539 219.102 318.471 211.038 315.443 206.837C312.415 202.636 304.479 200.981 304.479 200.981Z" fill="#0D0711"/>
<path d="M265.76 17.6211C265.76 17.6211 271.453 24.5808 276.747 24.7126C282.04 24.8445 288.072 18.177 288.072 18.177C288.072 18.177 282.009 24.067 281.882 29.1995C281.754 34.3319 287.517 40.5166 287.517 40.5166C287.517 40.5166 281.901 32.4412 276.558 32.3081C271.215 32.175 265.205 39.9607 265.205 39.9607C265.205 39.9607 270.82 34.106 270.949 28.9271C271.077 23.7482 265.76 17.6211 265.76 17.6211Z" fill="#0D0711"/>
<path d="M82.0684 292.561C82.0684 292.561 73.7186 295.884 71.9889 300.895C70.2592 305.905 74.7773 313.681 74.7773 313.681C74.7773 313.681 71.0085 306.112 66.162 304.434C61.3156 302.757 53.6825 306.381 53.6825 306.381C53.6825 306.381 63.0707 303.47 64.8167 298.413C66.5627 293.355 60.9735 285.261 60.9735 285.261C60.9735 285.261 64.8443 292.393 69.7346 294.085C74.625 295.778 82.0684 292.561 82.0684 292.561Z" fill="#0D0711"/>
<rect width="22.8594" height="38.9593" rx="11.4297" transform="matrix(-0.919453 0.392881 -0.392171 -0.920029 40.3438 110.706)" fill="#5296FF"/>
<path d="M19.2845 88.1648C18.8507 87.9905 18.3578 88.2012 18.1834 88.6353L15.342 95.7104C15.1676 96.1445 15.3779 96.6378 15.8116 96.8121C16.2453 96.9864 16.7383 96.7758 16.9127 96.3416L19.4384 90.0527L25.7212 92.5778C26.1549 92.7521 26.6479 92.5415 26.8222 92.1073C26.9966 91.6731 26.7863 91.1799 26.3526 91.0056L19.2845 88.1648ZM26.6848 104.894L19.7473 88.6183L18.1902 89.2836L25.1277 105.559L26.6848 104.894Z" fill="#0D0711"/>
<rect width="29.7954" height="50.7199" rx="14.8977" transform="matrix(0.563974 0.825695 -0.825187 0.565001 43.7891 240.581)" fill="#BEF318"/>
<path d="M20.3772 273.247C20.2647 273.846 20.6586 274.422 21.257 274.535L31.0085 276.365C31.6069 276.477 32.1833 276.082 32.2958 275.483C32.4083 274.884 32.0144 274.307 31.416 274.195L22.748 272.568L24.3779 263.891C24.4904 263.292 24.0965 262.715 23.4981 262.603C22.8997 262.491 22.3234 262.885 22.2109 263.484L20.3772 273.247ZM39.8428 259.527L20.8386 272.539L22.0828 274.361L41.0869 261.349L39.8428 259.527Z" fill="#0D0711"/>
<rect width="21.2462" height="36.1715" rx="10.6231" transform="matrix(-0.759902 -0.649527 0.649044 -0.761187 166.541 376.16)" fill="#BEF318"/>
<path d="M176.575 349.308C176.54 348.874 176.162 348.551 175.729 348.585L168.676 349.144C168.243 349.178 167.92 349.557 167.954 349.991C167.988 350.424 168.367 350.748 168.799 350.713L175.069 350.216L175.562 356.494C175.596 356.927 175.975 357.25 176.407 357.216C176.84 357.182 177.164 356.803 177.129 356.369L176.575 349.308ZM165.729 362.382L176.389 349.881L175.193 348.859L164.533 361.361L165.729 362.382Z" fill="#0D0711"/>
<ellipse cx="45.9932" cy="46.0212" rx="45.9932" ry="46.0212" transform="matrix(0.865762 0.500457 -0.499544 0.866289 64.7891 297.21)" fill="#0D0711"/>
<mask id="path-25-inside-1_52_1862" fill="white">
<path d="M47.9402 343.17C42.9515 351.821 41.5997 362.102 44.182 371.751C46.7643 381.4 53.0692 389.627 61.7098 394.621C70.3503 399.616 80.6187 400.969 90.256 398.384C99.8933 395.799 108.11 389.486 113.099 380.835L109.841 378.952C105.351 386.738 97.9559 392.419 89.2824 394.746C80.6088 397.073 71.3673 395.855 63.5908 391.359C55.8142 386.864 50.1398 379.46 47.8157 370.776C45.4917 362.092 46.7083 352.839 51.1981 345.053L47.9402 343.17Z"/>
</mask>
<path d="M47.9402 343.17C42.9515 351.821 41.5997 362.102 44.182 371.751C46.7643 381.4 53.0692 389.627 61.7098 394.621C70.3503 399.616 80.6187 400.969 90.256 398.384C99.8933 395.799 108.11 389.486 113.099 380.835L109.841 378.952C105.351 386.738 97.9559 392.419 89.2824 394.746C80.6088 397.073 71.3673 395.855 63.5908 391.359C55.8142 386.864 50.1398 379.46 47.8157 370.776C45.4917 362.092 46.7083 352.839 51.1981 345.053L47.9402 343.17Z" stroke="#E97C18" stroke-width="4.41218" mask="url(#path-25-inside-1_52_1862)"/>
<g clip-path="url(#clip1_52_1862)" filter="url(#filter0_d_52_1862)">
<path d="M90.7164 353.569L96.8706 360.518L93.204 366.876L89.3936 364.674L83.527 374.847C83.3325 375.185 83.0122 375.431 82.6365 375.532C82.2607 375.632 81.8604 375.58 81.5236 375.385L68.8221 368.043C68.4852 367.848 68.2394 367.527 68.1387 367.151C68.0381 366.775 68.0908 366.374 68.2853 366.037L74.1518 355.863L70.3414 353.661L74.008 347.302L83.0955 349.164C82.512 350.176 82.3539 351.378 82.6559 352.507C82.958 353.635 83.6954 354.598 84.706 355.182C85.7166 355.766 86.9175 355.924 88.0447 355.622C89.1719 355.319 90.1329 354.581 90.7164 353.569Z" stroke="#E97C18" stroke-width="2.94145" stroke-linecap="round" stroke-linejoin="round"/>
<path d="M79.8672 359.167L83.0426 361.003L77.4707 366.26" stroke="#E97C18" stroke-width="2.94145" stroke-linecap="round" stroke-linejoin="round"/>
</g>
<path d="M57.6539 339.4C57.2156 339.856 56.7789 340.12 56.3437 340.19C55.9135 340.256 55.4885 340.183 55.0687 339.973C54.6539 339.757 54.2479 339.457 53.8508 339.075L51.579 336.885C51.1448 336.467 50.812 336.054 50.5807 335.648C50.3545 335.236 50.2738 334.821 50.3385 334.403C50.4031 333.975 50.6545 333.533 51.0927 333.078C51.48 332.675 51.8599 332.428 52.2324 332.338C52.61 332.242 52.9848 332.277 53.357 332.441C53.7343 332.601 54.1162 332.867 54.5028 333.239L55.0112 333.729L54.1933 334.58L53.7405 334.143C53.5022 333.914 53.2803 333.726 53.0748 333.578C52.8691 333.421 52.6649 333.347 52.4624 333.356C52.2599 333.365 52.0389 333.494 51.7994 333.743C51.5548 333.998 51.432 334.237 51.4311 334.461C51.4249 334.679 51.5046 334.904 51.6701 335.135C51.8355 335.356 52.0506 335.594 52.3153 335.849L54.8652 338.306C55.1882 338.617 55.4705 338.838 55.7121 338.969C55.9484 339.095 56.1649 339.135 56.3615 339.089C56.5581 339.044 56.7558 338.918 56.9546 338.711C57.189 338.467 57.3042 338.241 57.3002 338.033C57.2909 337.82 57.2037 337.608 57.0385 337.398C56.8734 337.188 56.6637 336.96 56.4095 336.716L55.9329 336.256L56.7508 335.405L57.2274 335.865C57.6193 336.242 57.9203 336.624 58.1304 337.011C58.3352 337.392 58.4102 337.781 58.3555 338.177C58.2954 338.569 58.0616 338.976 57.6539 339.4Z" fill="white"/>
<path d="M59.6542 337.227L54.3773 330.014L58.3433 327.106L63.6202 334.319L62.6154 335.056L57.8661 328.564L55.9098 329.999L60.6591 336.49L59.6542 337.227Z" fill="white"/>
<path d="M66.6968 332.813C66.1547 333.076 65.6703 333.181 65.2437 333.126C64.817 333.072 64.4397 332.883 64.1116 332.56C63.7802 332.23 63.4863 331.8 63.2296 331.271L61.7524 328.222C61.4957 327.692 61.3454 327.205 61.3014 326.76C61.2608 326.305 61.351 325.902 61.5722 325.549C61.7967 325.186 62.18 324.873 62.7222 324.61C63.2643 324.347 63.7438 324.24 64.1606 324.292C64.5774 324.343 64.9467 324.523 65.2684 324.833C65.5967 325.14 65.8892 325.558 66.1458 326.088L67.6279 329.146C67.8813 329.67 68.0299 330.162 68.0737 330.623C68.1242 331.081 68.0436 331.496 67.8321 331.869C67.6174 332.235 67.239 332.55 66.6968 332.813ZM66.2686 331.929C66.5661 331.785 66.762 331.616 66.8564 331.423C66.9475 331.223 66.9665 331.001 66.9136 330.757C66.8574 330.506 66.7571 330.232 66.6128 329.934L64.9045 326.408C64.7602 326.111 64.6102 325.868 64.4547 325.682C64.2959 325.489 64.1132 325.374 63.9066 325.335C63.6968 325.29 63.4432 325.339 63.1456 325.484C62.8481 325.628 62.6489 325.799 62.5479 325.995C62.4504 326.181 62.4281 326.397 62.4811 326.641C62.5309 326.878 62.6279 327.146 62.7723 327.444L64.4805 330.97C64.6249 331.268 64.778 331.516 64.94 331.716C65.0988 331.908 65.2846 332.031 65.4977 332.083C65.7141 332.125 65.9711 332.074 66.2686 331.929Z" fill="white"/>
<path d="M69.6635 331.362L67.1158 322.793L69.2394 322.16C69.7536 322.006 70.1904 321.98 70.5499 322.08C70.9143 322.171 71.2194 322.372 71.4651 322.683C71.7108 322.993 71.9081 323.399 72.057 323.9C72.1911 324.351 72.2265 324.767 72.1631 325.146C72.1067 325.524 71.9508 325.851 71.6954 326.126C71.4379 326.395 71.0767 326.599 70.6119 326.737L69.6716 327.017L70.8573 331.006L69.6635 331.362ZM69.4168 326.161L69.9662 325.997C70.3113 325.894 70.5709 325.774 70.7451 325.638C70.9192 325.502 71.0203 325.326 71.0482 325.11C71.074 324.887 71.0345 324.6 70.9296 324.247C70.808 323.838 70.683 323.534 70.5546 323.334C70.4333 323.132 70.2649 323.017 70.0496 322.989C69.8343 322.961 69.5259 323.007 69.1244 323.127L68.5644 323.294L69.4168 326.161Z" fill="white"/>
<path d="M75.734 329.821L74.6183 321.886L73.1228 322.097L72.9938 321.179L77.1746 320.589L77.3037 321.507L75.8518 321.712L76.9675 329.647L75.734 329.821Z" fill="white"/>
<path d="M79.0842 329.37L79.1989 320.431L80.3012 320.445L80.2218 326.636L82.9137 320.478L83.8066 320.49L83.6919 329.429L82.6006 329.415L82.6813 323.124L80.0102 329.382L79.0842 329.37Z" fill="white"/>
<path d="M84.6934 329.522L86.3039 320.729L88.3208 321.1C88.7184 321.173 89.0538 321.279 89.3271 321.419C89.6076 321.56 89.8288 321.739 89.9909 321.956C90.1529 322.173 90.2551 322.431 90.2974 322.73C90.341 323.023 90.3283 323.357 90.2594 323.733C90.1931 324.095 90.0885 324.401 89.9454 324.652C89.811 324.896 89.6358 325.078 89.42 325.195C89.2115 325.314 88.9586 325.368 88.6615 325.359C89.0012 325.503 89.2615 325.693 89.4426 325.928C89.625 326.156 89.739 326.432 89.7845 326.754C89.8386 327.071 89.8272 327.439 89.7504 327.859C89.6814 328.235 89.5751 328.571 89.4313 328.866C89.2876 329.161 89.1019 329.4 88.8741 329.583C88.6537 329.767 88.3876 329.894 88.0759 329.964C87.7727 330.028 87.426 330.024 87.0356 329.952L84.6934 329.522ZM86.0798 328.868L86.9039 329.019C87.4533 329.12 87.8415 329.061 88.0687 328.84C88.3043 328.614 88.4745 328.216 88.5792 327.644C88.6468 327.275 88.6526 326.958 88.5964 326.693C88.5489 326.423 88.4279 326.206 88.2336 326.043C88.0478 325.874 87.7741 325.757 87.4127 325.69L86.6862 325.557L86.0798 328.868ZM86.8572 324.623L87.5837 324.757C87.9307 324.821 88.2104 324.823 88.4228 324.765C88.6365 324.7 88.8031 324.566 88.9223 324.363C89.0416 324.161 89.1331 323.886 89.1967 323.538C89.2709 323.133 89.2632 322.829 89.1734 322.625C89.0837 322.422 88.9126 322.274 88.6603 322.183C88.4094 322.085 88.0742 321.997 87.655 321.92L87.3622 321.866L86.8572 324.623Z" fill="white"/>
<path d="M90.1896 330.607L93.337 322.241L94.5028 322.681L93.1428 326.296L95.2888 327.105L96.6488 323.49L97.8146 323.93L94.6672 332.295L93.5014 331.856L94.974 327.941L92.8281 327.132L91.3554 331.046L90.1896 330.607Z" fill="white"/>
<path d="M95.3837 332.611L101.568 325.89L102.602 326.503L99.6893 335.167L98.6745 334.564L99.4703 332.419L97.9055 331.491L96.3889 333.208L95.3837 332.611ZM98.503 330.806L99.7833 331.566L101.19 327.718L98.503 330.806Z" fill="white"/>
<path d="M99.9288 335.298L103.948 333.437C103.759 333.046 103.702 332.617 103.777 332.152C103.862 331.685 104.111 331.207 104.523 330.717C104.831 330.352 105.171 330.086 105.543 329.918C105.919 329.745 106.334 329.71 106.786 329.813C107.238 329.915 107.728 330.19 108.256 330.636L109.638 331.803L103.881 338.636L102.929 337.831L105.317 334.997L104.778 334.542C104.766 334.532 104.73 334.501 104.668 334.449C104.611 334.391 104.577 334.358 104.566 334.348L100.991 336.194L99.9288 335.298ZM105.539 334.015L105.893 334.314L108.11 331.682L107.731 331.362C107.304 331.001 106.903 330.821 106.527 330.822C106.157 330.827 105.792 331.043 105.432 331.471C105.025 331.954 104.82 332.397 104.817 332.799C104.815 333.202 105.055 333.607 105.539 334.015Z" fill="white"/>
<path d="M107.666 343.371C107.321 342.876 107.142 342.413 107.128 341.983C107.115 341.552 107.242 341.149 107.509 340.774C107.782 340.395 108.16 340.037 108.642 339.7L111.417 337.761C111.899 337.424 112.356 337.199 112.787 337.085C113.229 336.974 113.642 337 114.024 337.163C114.417 337.328 114.786 337.658 115.131 338.153C115.476 338.648 115.656 339.105 115.671 339.525C115.687 339.945 115.567 340.339 115.312 340.706C115.061 341.078 114.694 341.433 114.212 341.77L111.428 343.716C110.952 344.049 110.49 344.273 110.042 344.388C109.598 344.51 109.176 344.496 108.775 344.345C108.38 344.19 108.011 343.865 107.666 343.371ZM108.47 342.808C108.659 343.08 108.857 343.247 109.062 343.31C109.273 343.369 109.495 343.353 109.727 343.262C109.966 343.167 110.221 343.025 110.492 342.836L113.701 340.593C113.972 340.404 114.187 340.217 114.346 340.034C114.511 339.847 114.597 339.648 114.602 339.438C114.614 339.223 114.525 338.98 114.336 338.709C114.147 338.437 113.947 338.267 113.738 338.198C113.539 338.131 113.323 338.142 113.09 338.233C112.864 338.32 112.615 338.458 112.344 338.647L109.135 340.89C108.864 341.079 108.643 341.27 108.472 341.461C108.306 341.648 108.215 341.851 108.197 342.07C108.19 342.291 108.281 342.537 108.47 342.808Z" fill="white"/>
<path d="M107.883 346.187L110.172 345.148L110.34 345.52C110.486 345.592 110.65 345.651 110.832 345.697C111.017 345.75 111.238 345.775 111.495 345.772C111.762 345.772 112.084 345.735 112.461 345.66C112.846 345.583 113.313 345.456 113.862 345.279C114.414 345.109 115.07 344.872 115.828 344.569L118.296 343.605L119.84 347.013L112.521 350.336L112.876 351.12L110.587 352.159L110.191 351.284L111.626 350.524L109.796 346.483L108.279 347.062L107.883 346.187ZM110.818 346.576L112.011 349.21L118.486 346.27L117.89 344.953L116.017 345.707C115.282 346.008 114.653 346.241 114.13 346.406C113.617 346.574 113.182 346.691 112.824 346.756C112.476 346.825 112.179 346.855 111.933 346.846C111.696 346.84 111.492 346.807 111.32 346.748C111.151 346.696 110.984 346.638 110.818 346.576Z" fill="white"/>
<path d="M112.12 352.036L120.749 349.737L121.639 353.087L120.744 353.325L120.174 351.181L117.319 351.942L117.781 353.68L116.929 353.907L116.467 352.169L113.303 353.011L113.879 355.177L113.016 355.407L112.12 352.036Z" fill="white"/>
<path d="M113.194 355.538L117.924 357.199L122.107 354.953L122.213 356.151L118.069 358.205L118.075 358.271L122.368 357.888L122.462 358.943L118.169 359.327L118.176 359.404L122.617 360.68L122.725 361.889L118.21 360.409L113.849 362.893L113.741 361.672L118.023 359.428L118.015 359.34L113.568 359.738L113.474 358.682L117.921 358.285L117.914 358.208L113.302 356.747L113.194 355.538Z" fill="white"/>
<path d="M112.208 362.242L114.706 362.522L114.661 362.928C114.749 363.064 114.86 363.198 114.993 363.332C115.125 363.472 115.302 363.607 115.524 363.735C115.753 363.872 116.049 364.005 116.412 364.135C116.782 364.265 117.248 364.395 117.81 364.525C118.372 364.662 119.056 364.794 119.862 364.921L122.476 365.359L122.06 369.077L114.073 368.182L113.978 369.037L111.48 368.757L111.586 367.803L113.208 367.885L113.701 363.475L112.101 363.196L112.208 362.242ZM114.532 364.079L114.211 366.953L121.277 367.745L121.438 366.308L119.443 365.996C118.657 365.878 117.998 365.756 117.465 365.63C116.938 365.512 116.504 365.389 116.163 365.262C115.829 365.143 115.559 365.016 115.352 364.882C115.151 364.756 114.992 364.623 114.875 364.484C114.756 364.353 114.642 364.218 114.532 364.079Z" fill="white"/>
<path d="M113.028 368.983L121.031 373.38L120.685 374.532L111.584 373.78L111.925 372.65L114.196 372.908L114.721 371.165L112.691 370.103L113.028 368.983ZM115.528 371.581L115.098 373.008L119.168 373.452L115.528 371.581Z" fill="white"/>
<path d="M154.897 80.5581C154.644 78.8583 155.818 77.2754 157.518 77.0233L335.138 50.6821C336.836 50.4302 338.417 51.6022 338.669 53.3005L340.539 65.8834C340.791 67.5831 339.617 69.1661 337.918 69.4181L160.298 95.7594C158.6 96.0112 157.019 94.8392 156.767 93.141L154.897 80.5581Z" fill="#C11C3A"/>
<path d="M177.483 87.2958L179.076 79.2077L181.173 78.8953L185.101 86.1612L183.077 86.4627L180.526 81.4474C180.465 81.3275 180.413 81.2136 180.368 81.1056C180.323 80.9941 180.279 80.8823 180.238 80.7703L180.195 80.7766C180.192 80.8954 180.184 81.0147 180.173 81.1346C180.163 81.2544 180.145 81.3788 180.121 81.5077L179.15 87.0476L177.483 87.2958ZM178.839 85.4603L179.07 84.0878L182.456 83.5835L183.081 84.8284L178.839 85.4603ZM190.468 85.3617L187.439 82.2233L188.543 80.8283L192.808 85.0132L190.468 85.3617ZM186.113 81.2923L187.427 81.0966L189.452 77.689L191.386 77.4008L188.352 82.3291L186.312 82.6329L186.113 81.2923ZM185.8 86.057L184.663 78.4024L186.534 78.1236L187.672 85.7783L185.8 86.057ZM192.466 85.0641L194.058 76.976L196.156 76.6635L200.083 83.9294L198.059 84.2309L195.509 79.2157C195.448 79.0958 195.395 78.9818 195.35 78.8738C195.305 78.7624 195.262 78.6506 195.22 78.5386L195.178 78.5449C195.174 78.6637 195.167 78.783 195.156 78.9028C195.145 79.0227 195.128 79.147 195.104 79.276L194.132 84.8159L192.466 85.0641ZM193.821 83.2286L194.053 81.8561L197.438 81.3518L198.064 82.5967L193.821 83.2286ZM206.745 84.4956L206.518 82.971L201.771 83.6781L201.997 85.2027L200.242 85.4642L199.817 82.6095L208.076 81.3793L208.5 84.234L206.745 84.4956ZM200.35 76.0657L206.164 75.1996L207.301 82.8543L205.43 83.1331L204.49 76.8085L201.998 77.1797L202.288 79.963C202.366 80.7253 202.379 81.3216 202.328 81.7519C202.281 82.1816 202.176 82.5681 202.012 82.9114L200.35 83.1588C200.561 82.7406 200.697 82.3244 200.761 81.9101C200.828 81.4917 200.821 80.8801 200.741 80.0753L200.35 76.0657ZM209.215 82.5693L208.077 74.9146L213.587 74.094L213.784 75.4241L210.136 75.9675L210.392 77.6919L213.552 77.2213L213.748 78.5409L210.588 79.0115L210.878 80.9619L214.584 80.4099L214.782 81.74L209.215 82.5693ZM215.954 81.5654L214.817 73.9107L217.193 73.5568L219.44 77.9349C219.5 78.0548 219.555 78.1667 219.602 78.2707C219.654 78.3741 219.702 78.4941 219.747 78.6306L219.779 78.6259C219.786 78.4815 219.797 78.3527 219.813 78.2393C219.828 78.1225 219.847 77.9996 219.871 77.8707L220.71 73.0329L223.165 72.6672L224.303 80.3219L222.436 80.5998L221.738 75.8998C221.719 75.7736 221.702 75.6347 221.687 75.4829C221.671 75.3312 221.66 75.1949 221.653 75.0742L221.606 75.0812C221.599 75.2041 221.589 75.3434 221.576 75.4994C221.564 75.6553 221.547 75.7992 221.528 75.9311L220.654 80.8653L219.161 81.0877L216.879 76.6128C216.818 76.4929 216.761 76.3617 216.708 76.2192C216.654 76.0732 216.609 75.9402 216.573 75.8201L216.52 75.8279C216.549 75.949 216.578 76.0844 216.608 76.2341C216.64 76.3797 216.666 76.5156 216.684 76.6418L217.384 81.3524L215.954 81.5654ZM232.74 79.065L230.869 79.3438L230.203 74.8646C230.186 74.7489 230.168 74.6172 230.15 74.4695C230.131 74.3218 230.117 74.1878 230.106 74.0676L230.059 74.0746C230.023 74.1946 229.983 74.3151 229.941 74.4362C229.898 74.5572 229.852 74.6858 229.804 74.8219L227.967 79.7761L225.953 80.076L224.816 72.4213L226.687 72.1426L227.344 76.5587C227.361 76.6779 227.38 76.8256 227.399 77.0019C227.421 77.1776 227.439 77.3236 227.453 77.4398L227.5 77.4328C227.532 77.3313 227.571 77.2073 227.617 77.0607C227.663 76.9141 227.709 76.7748 227.754 76.6427L229.589 71.7103L231.603 71.4104L232.74 79.065ZM240.205 77.9531L238.334 78.2319L237.94 75.5822L236.252 75.8335L235.889 75.7049C235.143 75.7194 234.553 75.544 234.119 75.1787C233.688 74.813 233.426 74.3146 233.332 73.6838C233.219 72.9197 233.395 72.2772 233.863 71.7562C234.329 71.2318 235.05 70.897 236.024 70.7518L239.068 70.2984L240.205 77.9531ZM237.746 74.2784L237.391 71.8915L236.324 72.0505C235.841 72.1225 235.52 72.2813 235.363 72.5268C235.206 72.7723 235.153 73.0668 235.205 73.4103C235.257 73.7607 235.394 74.0376 235.618 74.2407C235.842 74.4438 236.195 74.5094 236.679 74.4373L237.746 74.2784ZM235.931 78.5897L233.912 78.8904L235.288 75.0906L237.254 74.7977L235.931 78.5897ZM243.654 77.4394L245.664 72.7442L246.085 72.6816L247.495 69.0432L249.277 68.7777L247.414 73.3111L246.994 73.3738L245.478 77.1677L243.654 77.4394ZM242.627 69.7683L244.809 69.4486L247.255 72.4912L247.276 72.4881L250.614 76.4026L248.406 76.7315L245.849 73.5926L245.834 73.5949L242.627 69.7683ZM250.472 76.4238L252.064 68.3356L254.162 68.0232L258.09 75.2891L256.066 75.5906L253.515 70.5753C253.454 70.4554 253.401 70.3415 253.357 70.2335C253.311 70.122 253.268 70.0103 253.226 69.8983L253.184 69.9045C253.18 70.0233 253.173 70.1426 253.162 70.2625C253.151 70.3823 253.134 70.5067 253.11 70.6356L252.139 76.1755L250.472 76.4238ZM251.828 74.5883L252.059 73.2158L255.444 72.7115L256.07 73.9563L251.828 74.5883ZM257.959 71.6275L257.892 71.1754C257.711 69.9592 257.913 68.978 258.497 68.2319C259.085 67.4852 259.913 67.0322 260.982 66.873C262.026 66.7174 262.879 66.8519 263.54 67.2764C264.201 67.6975 264.61 68.3137 264.766 69.1251L264.783 69.2408L262.88 69.5242L262.855 69.3883C262.779 68.9768 262.602 68.6647 262.323 68.4518C262.048 68.235 261.664 68.1631 261.174 68.2362C260.662 68.3124 260.276 68.5598 260.016 68.9783C259.759 69.3963 259.688 69.9873 259.801 70.7513L259.909 71.4769C260.02 72.2269 260.259 72.77 260.624 73.1061C260.988 73.4386 261.437 73.5653 261.97 73.4859C262.457 73.4133 262.8 73.2279 263 72.9295C263.198 72.6276 263.273 72.2779 263.225 71.8803L263.212 71.7586L265.115 71.4751L265.133 71.596C265.225 72.4063 265.013 73.1114 264.497 73.7114C263.984 74.3108 263.207 74.688 262.166 74.8431C261.09 75.0033 260.164 74.8099 259.388 74.2628C258.615 73.7151 258.139 72.8367 257.959 71.6275ZM271.343 73.315L268.313 70.1766L269.417 68.7816L273.682 72.9665L271.343 73.315ZM266.987 69.2457L268.302 69.0499L270.326 65.6423L272.261 65.3542L269.226 70.2824L267.186 70.5863L266.987 69.2457ZM266.674 74.0104L265.537 66.3557L267.408 66.0769L268.546 73.7316L266.674 74.0104ZM281.084 71.864L279.212 72.1427L278.547 67.6635C278.53 67.5479 278.512 67.4162 278.493 67.2684C278.475 67.1207 278.461 66.9867 278.45 66.8665L278.403 66.8736C278.367 66.9936 278.327 67.1141 278.284 67.2351C278.241 67.3561 278.196 67.4847 278.148 67.6208L276.31 72.575L274.297 72.8749L273.16 65.2203L275.031 64.9415L275.687 69.3576C275.705 69.4768 275.723 69.6245 275.742 69.8008C275.765 69.9766 275.783 70.1226 275.797 70.2387L275.844 70.2317C275.876 70.1303 275.914 70.0063 275.961 69.8597C276.007 69.713 276.053 69.5737 276.097 69.4416L277.933 64.5092L279.946 64.2093L281.084 71.864Z" fill="white"/>
<path d="M170.592 85.362C170.848 85.0169 170.775 84.53 170.43 84.2744L164.809 80.1091C164.464 79.8535 163.977 79.926 163.722 80.2711C163.466 80.6161 163.538 81.1031 163.883 81.3587L168.88 85.0612L165.176 90.0597C164.92 90.4048 164.993 90.8917 165.338 91.1474C165.683 91.403 166.17 91.3304 166.425 90.9854L170.592 85.362ZM159.651 87.2219L170.082 85.6683L169.853 84.1301L159.423 85.6838L159.651 87.2219Z" fill="white"/>
<path d="M303.213 65.8816C303.469 65.5365 303.397 65.0495 303.052 64.7939L297.43 60.6286C297.085 60.373 296.598 60.4455 296.343 60.7906C296.087 61.1357 296.159 61.6226 296.504 61.8782L301.501 65.5808L297.797 70.5793C297.541 70.9243 297.614 71.4113 297.959 71.6669C298.304 71.9225 298.791 71.85 299.046 71.5049L303.213 65.8816ZM292.272 67.7415L302.703 66.1878L302.474 64.6497L292.044 66.2033L292.272 67.7415Z" fill="white"/>
<path d="M317.94 63.6883C318.195 63.3432 318.123 62.8562 317.778 62.6006L312.157 58.4353C311.812 58.1797 311.325 58.2522 311.069 58.5973C310.814 58.9424 310.886 59.4293 311.231 59.6849L316.228 63.3874L312.524 68.386C312.268 68.731 312.34 69.218 312.685 69.4736C313.03 69.7292 313.517 69.6567 313.773 69.3116L317.94 63.6883ZM306.999 65.5482L317.429 63.9945L317.201 62.4564L306.77 64.01L306.999 65.5482Z" fill="white"/>
<path d="M332.662 61.4949C332.918 61.1499 332.846 60.6629 332.501 60.4073L326.879 56.242C326.534 55.9864 326.048 56.0589 325.792 56.404C325.536 56.7491 325.609 57.236 325.953 57.4916L330.95 61.1941L327.246 66.1926C326.991 66.5377 327.063 67.0247 327.408 67.2803C327.753 67.5359 328.24 67.4633 328.496 67.1183L332.662 61.4949ZM321.722 63.3549L332.152 61.8012L331.924 60.2631L321.493 61.8167L321.722 63.3549Z" fill="white"/>
<rect x="159.455" y="395.622" width="25.8907" height="44.1533" rx="12.9513" fill="#BEF318"/>
<path d="M171.384 428.486C171.759 428.861 172.366 428.861 172.741 428.486L178.843 422.378C179.218 422.003 179.218 421.396 178.843 421.021C178.469 420.646 177.861 420.646 177.487 421.021L172.062 426.45L166.638 421.021C166.264 420.646 165.656 420.646 165.282 421.021C164.907 421.396 164.907 422.003 165.282 422.378L171.384 428.486ZM171.104 407.759L171.104 427.808L173.021 427.808L173.021 407.759L171.104 407.759Z" fill="#0D0711"/>
<defs>
<filter id="filter0_d_52_1862" x="52.998" y="337.469" width="56.084" height="56.1418" filterUnits="userSpaceOnUse" color-interpolation-filters="sRGB">
<feFlood flood-opacity="0" result="BackgroundImageFix"/>
<feColorMatrix in="SourceAlpha" type="matrix" values="0 0 0 0 0 0 0 0 0 0 0 0 0 0 0 0 0 0 127 0" result="hardAlpha"/>
<feOffset dy="4"/>
<feGaussianBlur stdDeviation="2"/>
<feComposite in2="hardAlpha" operator="out"/>
<feColorMatrix type="matrix" values="0 0 0 0 0 0 0 0 0 0 0 0 0 0 0 0 0 0 0.25 0"/>
<feBlend mode="normal" in2="BackgroundImageFix" result="effect1_dropShadow_52_1862"/>
<feBlend mode="normal" in="SourceGraphic" in2="effect1_dropShadow_52_1862" result="shape"/>
</filter>
<clipPath id="clip0_52_1862">
<rect width="26.8431" height="26.8687" fill="white" transform="matrix(0.944065 -0.32976 0.329045 0.944314 209.432 322.629)"/>
</clipPath>
<clipPath id="clip1_52_1862">
<rect width="35.2101" height="35.2315" fill="white" transform="matrix(0.865762 0.500457 -0.499544 0.866289 74.5977 337.469)"/>
</clipPath>
</defs>
</svg>
