<svg width="627" height="516" viewBox="0 0 627 516" fill="none" xmlns="http://www.w3.org/2000/svg">
<path d="M257.936 74.8706C257.936 75.282 258.347 75.6933 258.347 76.9275V406.029C258.347 410.966 256.291 415.08 253.411 418.782C249.709 422.485 245.183 424.541 240.658 424.541C235.722 424.541 231.197 422.485 227.906 418.782C224.615 415.491 222.558 411.377 222.558 406.029V73.6364C222.558 63.352 218.855 54.3017 211.45 47.3083C203.634 40.3149 194.584 37.0238 185.122 37.0238C175.249 37.0238 166.61 40.3149 158.794 47.3083C151.389 54.7131 147.687 63.352 147.687 73.6364V165.785C147.687 170.722 146.041 175.247 142.75 178.538C139.048 182.24 134.934 184.297 129.998 184.297C125.061 184.297 120.947 182.24 117.245 178.538C113.543 175.247 111.897 171.133 111.897 165.785V73.6364C111.897 63.7634 108.195 55.1245 101.201 47.3083C93.3851 40.3149 84.3348 37.0238 74.8731 37.0238C65.4115 37.0238 56.7725 40.3149 48.545 47.3083C40.7288 54.3017 37.0264 62.9406 37.0264 73.6364V165.785C37.0264 170.722 35.3809 175.247 32.0899 178.538C28.3875 182.24 24.2737 184.297 19.3372 184.297C14.4007 184.297 10.2869 182.24 6.58448 178.538C2.88208 175.247 0.825195 171.133 0.825195 165.785V73.6364C0.825195 53.4789 8.22999 36.6125 22.6282 21.8029C37.0264 7.81605 54.3043 0.411255 74.4618 0.411255C97.0875 0.411255 115.599 9.05018 129.998 25.5053C143.985 8.6388 162.497 0.411255 185.122 0.411255C205.28 0.411255 222.558 7.81605 236.956 21.8029C251.354 36.2011 258.759 53.4789 258.759 73.6364C258.347 74.0478 257.936 74.8706 257.936 74.8706Z" fill="#0D0711"/>
<path d="M478.846 164.551C478.846 169.899 477.2 174.424 473.909 177.715C470.618 181.006 466.093 182.651 460.745 182.651C457.454 182.651 453.752 181.006 449.226 177.715C445.113 173.601 443.056 169.076 443.056 164.551C427.835 176.892 409.734 182.651 389.165 182.651C363.249 182.651 341.446 174.013 323.756 157.146C305.656 139.868 296.605 118.477 296.605 92.9712C296.605 67.4658 305.656 45.6628 323.756 27.5622C341.857 9.46156 363.66 0.411255 389.165 0.411255C414.671 0.411255 436.062 9.46156 453.34 27.5622C470.207 45.2514 478.846 67.0544 478.846 92.9712V164.551ZM388.754 146.862C403.975 146.862 417.139 141.514 427.424 131.229C437.708 120.945 442.644 108.192 442.644 92.9712C442.644 77.3388 437.708 64.1748 427.424 53.0676C417.139 41.9604 403.975 36.2011 388.754 36.2011C373.533 36.2011 359.958 41.9604 348.85 53.0676C337.743 64.1748 331.984 77.3388 331.984 92.9712C331.984 108.192 337.743 120.945 348.85 131.229C359.546 141.514 372.71 146.862 388.754 146.862Z" fill="#0D0711"/>
<path d="M552.483 164.962C552.483 169.487 550.837 173.601 547.546 177.715C543.844 181.417 539.73 183.063 534.793 183.063C529.857 183.063 525.332 181.417 522.041 177.715C518.338 174.013 516.693 169.899 516.693 164.962V91.7372C516.693 66.2318 525.743 44.8401 543.844 26.7395C561.533 9.0503 583.336 0 608.43 0C612.955 0 617.48 1.64551 621.594 4.93653C624.885 9.0503 626.531 13.1641 626.531 17.6892C626.531 22.2144 624.885 26.3282 621.594 30.4419C617.892 34.1443 613.367 35.7898 608.43 35.7898C593.209 35.7898 580.045 41.1377 569.349 51.8336C558.242 62.9408 552.894 76.1048 552.894 91.3258V164.962H552.483Z" fill="#0D0711"/>
<path d="M183.474 497.356C183.474 501.881 181.829 505.994 178.538 510.108C174.424 513.399 169.899 515.045 165.374 515.045C160.849 515.045 156.735 513.399 152.621 510.108C149.33 505.994 147.685 501.881 147.685 497.356V406.441C131.229 418.782 112.717 424.953 92.1485 424.953C66.6431 424.953 44.8401 415.903 27.1509 398.214C9.0503 380.524 0 359.133 0 333.627C0 308.122 9.0503 286.73 26.7395 269.041C44.8401 250.94 66.2318 241.89 91.7372 241.89C116.831 241.89 138.223 250.94 156.323 269.041C174.424 287.142 183.474 308.533 183.474 333.627V497.356ZM147.273 333.627C147.273 318.818 141.925 305.654 131.229 294.135C119.711 283.439 106.547 278.091 91.7372 278.091C76.5162 278.091 63.3521 283.439 52.6563 294.546C41.5491 305.654 36.2012 318.406 36.2012 333.627C36.2012 348.848 41.5491 362.012 52.6563 372.708C63.3521 383.815 76.5162 389.163 91.7372 389.163C106.547 389.163 119.711 383.815 131.229 373.12C141.925 361.601 147.273 348.437 147.273 333.627Z" fill="#0D0711"/>
<path d="M329.102 349.671C332.804 360.778 339.798 369.828 349.26 376.822C359.133 383.815 370.24 387.517 381.758 387.517C386.284 387.517 388.752 387.517 389.163 387.106L392.043 386.695L394.922 386.283L396.979 385.872L398.625 385.461C406.03 383.815 414.257 380.524 422.485 375.176C426.599 372.297 431.124 372.297 436.06 373.942C440.997 375.999 444.699 378.879 446.756 383.404C451.281 392.454 448.402 400.27 438.117 407.675C425.776 414.668 415.08 419.194 406.03 421.662L403.561 422.073L400.682 422.485L396.979 422.896L392.866 423.307L387.518 423.719H382.17C356.664 423.719 335.273 414.668 317.172 396.568C299.483 378.879 290.433 357.076 290.433 331.982C290.433 306.476 299.483 284.673 317.172 266.984C334.861 249.295 356.664 240.244 382.17 240.244C406.852 240.244 427.421 248.061 444.699 263.693C464.034 281.382 473.907 304.008 473.907 331.982C473.907 336.507 472.261 340.62 468.97 344.734C464.857 348.025 460.332 349.671 455.806 349.671H329.102ZM434.826 313.881C431.124 301.54 424.13 292.489 413.846 285.907C404.796 279.737 394.1 276.857 382.17 276.857C370.651 276.857 359.544 280.559 349.671 287.553C340.209 294.546 333.627 303.185 329.513 314.292H434.826V313.881Z" fill="#0D0711"/>
<path d="M535.612 376.821C539.726 384.226 545.896 387.929 553.713 387.929C558.649 387.929 563.174 386.283 566.877 382.581C570.579 378.878 572.225 374.353 572.225 369.005C572.225 364.069 570.579 359.544 566.877 355.841C563.174 352.139 558.649 350.493 553.713 350.493C538.492 350.493 525.739 345.145 515.043 334.45C504.347 324.165 498.999 311.412 498.999 295.78C498.999 280.559 504.347 267.806 515.043 257.111C525.739 246.415 538.492 241.067 553.713 241.067C566.465 241.067 577.984 244.769 588.268 252.585C598.553 260.402 604.312 269.452 606.369 279.325C607.192 282.205 606.369 286.73 603.901 293.312C601.432 297.014 597.73 299.894 592.382 301.128C582.098 303.185 574.693 298.66 570.99 287.553C568.522 280.971 562.763 277.679 553.713 277.679C548.776 277.679 544.251 279.325 540.548 283.027C536.846 286.73 535.201 291.255 535.201 296.191C535.201 301.128 536.846 305.653 540.548 309.356C544.251 313.058 548.776 314.703 553.713 314.703C568.933 314.703 581.686 320.051 592.382 330.747C603.078 341.443 608.426 354.196 608.426 369.417C608.426 384.226 603.078 396.979 592.382 408.498C581.686 419.193 568.933 424.541 553.713 424.541C541.371 424.541 529.853 420.427 519.568 412.611C510.107 405.207 503.524 396.156 499.822 385.049C498.177 380.524 498.999 375.999 501.879 371.474C505.17 366.948 508.872 364.48 513.398 363.246C522.448 360.778 529.441 365.303 535.612 376.821Z" fill="#0D0711"/>
</svg>
