<svg width="249" height="52" viewBox="0 0 249 52" fill="none" xmlns="http://www.w3.org/2000/svg">
<path d="M0.368588 2.37173H8.00017L21.6744 16.0941L35.3487 2.37173H42.9803V40H35.3487V12.9404L21.6744 26.1091L8.00017 12.9404V40H0.368588V2.37173ZM51.4544 31.0443C51.4544 29.6801 51.7514 28.4363 52.3452 27.3128C52.939 26.1893 53.8298 25.2264 55.0174 24.4239C56.2051 23.6053 57.6817 22.9794 59.4471 22.5461C61.2286 22.0967 63.299 21.872 65.6583 21.872C67.4077 21.872 69.2454 22.0004 71.1714 22.2572C73.1134 22.514 75.1115 22.9072 77.1659 23.4368C77.0856 22.538 76.8128 21.7115 76.3474 20.9572C75.8819 20.1868 75.2319 19.5287 74.3973 18.9831C73.5788 18.4213 72.5837 17.988 71.4121 17.683C70.2565 17.3781 68.9405 17.2256 67.4639 17.2256C66.6614 17.2256 65.7787 17.2738 64.8157 17.3701C63.8527 17.4664 62.8577 17.6108 61.8305 17.8034C60.8033 17.996 59.7842 18.2368 58.7731 18.5256C57.778 18.8145 56.8471 19.1596 55.9804 19.5608L53.8137 13.7108C54.8891 13.3256 56.0366 12.9725 57.2564 12.6515C58.4922 12.3305 59.7521 12.0577 61.036 11.833C62.32 11.5922 63.604 11.4077 64.8879 11.2793C66.1719 11.1509 67.4158 11.0867 68.6195 11.0867C73.9319 11.0867 77.8801 12.4429 80.4641 15.1552C83.0481 17.8676 84.3401 22.0245 84.3401 27.6258V40H77.214V37.3277C76.4758 37.7611 75.6652 38.1703 74.7825 38.5555C73.9158 38.9407 72.9689 39.2778 71.9417 39.5667C70.9146 39.8556 69.8071 40.0802 68.6195 40.2407C67.4479 40.4173 66.204 40.5056 64.8879 40.5056C62.6731 40.5056 60.7231 40.2648 59.0379 39.7833C57.3687 39.3018 55.9724 38.6358 54.8489 37.7852C53.7255 36.9345 52.8748 35.9395 52.297 34.7999C51.7353 33.6444 51.4544 32.3925 51.4544 31.0443ZM58.9656 30.8036C58.9656 31.269 59.086 31.7184 59.3268 32.1517C59.5675 32.569 59.9527 32.9462 60.4823 33.2832C61.012 33.6042 61.6861 33.8691 62.5046 34.0777C63.3392 34.2703 64.3423 34.3666 65.5139 34.3666C66.7657 34.3666 67.9775 34.2542 69.1491 34.0296C70.3207 33.8049 71.4121 33.5079 72.4232 33.1388C73.4344 32.7697 74.3492 32.3443 75.1677 31.8629C75.9862 31.3814 76.6683 30.8838 77.214 30.3702V29.1184C76.1227 28.8134 75.0393 28.5566 73.964 28.348C72.9047 28.1394 71.8856 27.9789 70.9065 27.8665C69.9436 27.7381 69.0287 27.6498 68.1621 27.6017C67.3114 27.5535 66.5651 27.5295 65.9231 27.5295C64.591 27.5295 63.4836 27.6177 62.6009 27.7943C61.7182 27.9708 61.0039 28.2116 60.4583 28.5165C59.9126 28.8054 59.5274 29.1505 59.3027 29.5517C59.078 29.953 58.9656 30.3702 58.9656 30.8036ZM93.7772 11.5922H100.903V15.6849C102.476 14.5132 104.137 13.5021 105.887 12.6515C107.636 11.8009 109.377 11.1509 111.111 10.7015L113.205 17.2256C110.461 17.4985 108.045 18.1164 105.959 19.0794C103.888 20.0263 102.203 21.3664 100.903 23.0998V40H93.7772V11.5922ZM116.816 25.9165C116.816 23.6535 117.242 21.6152 118.092 19.8016C118.943 17.9719 120.115 16.4151 121.607 15.1312C123.116 13.8311 124.897 12.8361 126.952 12.1459C129.022 11.4398 131.261 11.0867 133.668 11.0867C135.739 11.0867 137.641 11.3274 139.374 11.8089C141.107 12.2743 142.608 12.8842 143.876 13.6385V11.5922H151.002V51.6039H143.876V37.3277C143.25 37.7611 142.536 38.1703 141.733 38.5555C140.931 38.9407 140.072 39.2778 139.157 39.5667C138.243 39.8556 137.28 40.0802 136.268 40.2407C135.273 40.4173 134.262 40.5056 133.235 40.5056C130.828 40.5056 128.613 40.1525 126.591 39.4463C124.584 38.7401 122.859 37.745 121.415 36.4611C119.97 35.1771 118.839 33.6444 118.02 31.8629C117.218 30.0653 116.816 28.0832 116.816 25.9165ZM124.304 25.9165C124.304 27.056 124.528 28.1313 124.978 29.1425C125.443 30.1536 126.101 31.0443 126.952 31.8147C127.818 32.569 128.854 33.1709 130.057 33.6203C131.277 34.0536 132.641 34.2703 134.15 34.2703C135.113 34.2703 136.052 34.182 136.967 34.0055C137.881 33.8129 138.748 33.5481 139.567 33.211C140.401 32.874 141.18 32.4647 141.902 31.9832C142.64 31.5017 143.298 30.9641 143.876 30.3702V20.5238C142.415 19.3683 140.907 18.5497 139.35 18.0682C137.809 17.5707 136.228 17.3219 134.607 17.3219C132.97 17.3219 131.51 17.5466 130.226 17.996C128.958 18.4293 127.883 19.0312 127 19.8016C126.133 20.572 125.467 21.4788 125.002 22.522C124.536 23.5652 124.304 24.6967 124.304 25.9165ZM159.934 0.0605923H167.06V40H159.934V0.0605923ZM174.86 25.6998C174.86 23.7739 175.253 21.9362 176.039 20.1868C176.826 18.4213 177.957 16.8645 179.434 15.5163C180.91 14.1682 182.716 13.0929 184.851 12.2904C187.001 11.4879 189.441 11.0867 192.169 11.0867C194.882 11.0867 197.321 11.4959 199.488 12.3145C201.671 13.1169 203.516 14.2244 205.025 15.6367C206.55 17.0491 207.713 18.7102 208.516 20.6201C209.334 22.53 209.744 24.5763 209.744 26.7591C209.744 27.0319 209.736 27.3288 209.719 27.6498C209.719 27.9548 209.703 28.2356 209.671 28.4924H182.804C183.109 29.3431 183.599 30.1215 184.273 30.8277C184.963 31.5338 185.822 32.1437 186.849 32.6573C187.876 33.1709 189.064 33.5721 190.412 33.861C191.76 34.1339 193.253 34.2703 194.89 34.2703C196.527 34.2703 198.156 34.1018 199.777 33.7647C201.398 33.4116 202.947 32.9703 204.423 32.4406L206.831 37.8815C205.9 38.3148 204.953 38.7 203.99 39.037C203.043 39.358 202.048 39.6309 201.005 39.8556C199.977 40.0642 198.894 40.2247 197.754 40.337C196.631 40.4494 195.443 40.5056 194.191 40.5056C190.998 40.5056 188.197 40.1204 185.79 39.35C183.382 38.5796 181.368 37.5284 179.747 36.1962C178.126 34.8641 176.906 33.2993 176.088 31.5017C175.269 29.7042 174.86 27.7702 174.86 25.6998ZM202.184 22.9313C201.927 22.1448 201.526 21.4146 200.98 20.7405C200.451 20.0504 199.785 19.4565 198.982 18.959C198.18 18.4454 197.249 18.0442 196.19 17.7553C195.13 17.4664 193.967 17.3219 192.699 17.3219C191.351 17.3219 190.123 17.4744 189.015 17.7793C187.908 18.0843 186.937 18.4935 186.102 19.0071C185.268 19.5207 184.57 20.1146 184.008 20.7886C183.462 21.4627 183.061 22.1769 182.804 22.9313H202.184ZM218.555 31.2851C220.481 32.4406 222.599 33.2913 224.91 33.837C227.222 34.3826 229.589 34.6555 232.012 34.6555C233.649 34.6555 235.014 34.5431 236.105 34.3184C237.196 34.0938 238.071 33.8049 238.729 33.4518C239.387 33.0987 239.853 32.6974 240.125 32.248C240.398 31.7987 240.535 31.3412 240.535 30.8758C240.535 30.2017 240.238 29.6239 239.644 29.1425C239.066 28.661 238.103 28.4202 236.755 28.4202C236.129 28.4202 235.455 28.4603 234.733 28.5406C234.011 28.6208 233.248 28.7091 232.446 28.8054C231.659 28.8857 230.833 28.9659 229.966 29.0462C229.115 29.1264 228.249 29.1665 227.366 29.1665C225.44 29.1665 223.795 28.9579 222.431 28.5406C221.083 28.1233 219.983 27.5535 219.133 26.8313C218.282 26.1091 217.664 25.2585 217.279 24.2794C216.894 23.2844 216.701 22.2171 216.701 21.0775C216.701 19.6331 217.038 18.301 217.712 17.0812C218.386 15.8614 219.349 14.8102 220.601 13.9274C221.853 13.0287 223.362 12.3305 225.127 11.833C226.909 11.3354 228.891 11.0867 231.073 11.0867C232.213 11.0867 233.401 11.1589 234.636 11.3033C235.888 11.4317 237.116 11.6083 238.32 11.833C239.524 12.0577 240.679 12.3225 241.787 12.6274C242.894 12.9163 243.873 13.2293 244.724 13.5663L242.485 19.1034C240.671 18.4293 238.857 17.8997 237.044 17.5145C235.246 17.1133 233.393 16.9127 231.483 16.9127C230.151 16.9127 229.019 17.017 228.088 17.2256C227.173 17.4182 226.427 17.683 225.849 18.0201C225.272 18.3411 224.846 18.7182 224.573 19.1516C224.317 19.5689 224.188 20.0102 224.188 20.4757C224.188 20.8127 224.252 21.1177 224.381 21.3905C224.525 21.6633 224.75 21.9041 225.055 22.1127C225.376 22.3053 225.785 22.4578 226.283 22.5701C226.796 22.6664 227.422 22.7146 228.16 22.7146C228.835 22.7146 229.549 22.6745 230.303 22.5942C231.057 22.514 231.844 22.4337 232.662 22.3535C233.481 22.2572 234.323 22.1689 235.19 22.0887C236.073 22.0084 236.972 21.9683 237.886 21.9683C239.588 21.9683 241.072 22.1689 242.34 22.5701C243.624 22.9714 244.683 23.5331 245.518 24.2554C246.353 24.9776 246.979 25.8282 247.396 26.8072C247.813 27.7863 248.022 28.8536 248.022 30.0091C248.022 31.5017 247.677 32.89 246.987 34.174C246.296 35.458 245.269 36.5734 243.905 37.5203C242.541 38.4512 240.84 39.1815 238.801 39.7111C236.779 40.2407 234.436 40.5056 231.772 40.5056C230.135 40.5056 228.554 40.4012 227.029 40.1926C225.504 40 224.052 39.7352 222.671 39.3981C221.291 39.045 219.991 38.6358 218.771 38.1703C217.568 37.7049 216.468 37.2074 215.473 36.6777L218.555 31.2851Z" fill="#0D0711"/>
</svg>
