<svg width="36" height="36" viewBox="0 0 36 36" fill="none" xmlns="http://www.w3.org/2000/svg">
<path d="M32.4876 14.488C32.4876 14.1998 32.4308 13.9143 32.3205 13.648C32.2102 13.3817 32.0485 13.1397 31.8446 12.9359C31.6408 12.732 31.3988 12.5704 31.1325 12.46C30.8662 12.3497 30.5807 12.293 30.2925 12.293C30.0042 12.293 29.7188 12.3497 29.4525 12.46C29.1861 12.5704 28.9442 12.732 28.7403 12.9359C28.5365 13.1397 28.3748 13.3817 28.2645 13.648C28.1542 13.9143 28.0974 14.1998 28.0974 14.488H32.4876ZM7.9026 14.488C7.9026 13.9059 7.67133 13.3475 7.25968 12.9359C6.84802 12.5242 6.28969 12.293 5.70751 12.293C5.12534 12.293 4.56701 12.5242 4.15535 12.9359C3.7437 13.3475 3.51243 13.9059 3.51243 14.488H7.9026ZM32.2523 19.5526C32.664 19.9643 33.2224 20.1956 33.8046 20.1956C34.3869 20.1956 34.9453 19.9643 35.357 19.5526C35.7687 19.1409 36 18.5825 36 18.0002C36 17.418 35.7687 16.8595 35.357 16.4478L32.2523 19.5526ZM18 2.19551L19.5524 0.643134C19.3485 0.439239 19.1065 0.277497 18.8402 0.167147C18.5738 0.0567969 18.2883 0 18 0C17.7117 0 17.4262 0.0567969 17.1598 0.167147C16.8935 0.277497 16.6515 0.439239 16.4476 0.643134L18 2.19551ZM0.643011 16.4478C0.231298 16.8595 0 17.418 0 18.0002C0 18.5825 0.231298 19.1409 0.643011 19.5526C1.05472 19.9643 1.61313 20.1956 2.19538 20.1956C2.77763 20.1956 3.33603 19.9643 3.74774 19.5526L0.643011 16.4478ZM9.21965 36H26.7803V31.6098H9.21965V36ZM32.4876 30.2927V14.488H28.0974V30.2927H32.4876ZM7.9026 30.2927V14.488H3.51243V30.2927H7.9026ZM35.357 16.4478L19.5524 0.643134L16.4476 3.74788L32.2523 19.5526L35.357 16.4478ZM16.4476 0.643134L0.643011 16.4478L3.74774 19.5526L19.5524 3.74788L16.4476 0.643134ZM26.7803 36C28.294 36 29.7457 35.3987 30.816 34.3284C31.8863 33.2581 32.4876 31.8064 32.4876 30.2927H28.0974C28.0974 30.6421 27.9586 30.9771 27.7116 31.2241C27.4647 31.471 27.1297 31.6098 26.7803 31.6098V36ZM9.21965 31.6098C8.87035 31.6098 8.53535 31.471 8.28836 31.2241C8.04136 30.9771 7.9026 30.6421 7.9026 30.2927H3.51243C3.51243 31.8064 4.11372 33.2581 5.18404 34.3284C6.25435 35.3987 7.706 36 9.21965 36V31.6098Z" fill="#0D0711"/>
</svg>
