<svg width="418" height="369" viewBox="0 0 418 369" fill="none" xmlns="http://www.w3.org/2000/svg">
<rect y="256.951" width="118.246" height="114.717" rx="13.2365" transform="rotate(-19.2325 0 256.951)" fill="#BEF318"/>
<g clip-path="url(#clip0_133_1874)">
<path d="M30.158 263.583L29.7886 262.524C29.3823 261.36 28.0969 260.739 26.9322 261.146L22.6968 262.623C21.5321 263.03 20.9116 264.315 21.3179 265.48L21.6873 266.539C19.3579 267.351 18.1169 269.922 18.9296 272.251L22.993 283.899C23.3993 285.063 24.6847 285.684 25.8495 285.278L37.7085 281.14L34.852 279.761L25.1107 283.16L23.6331 278.925L25.7507 278.186L26.4895 280.303L27.5484 279.934L26.8096 277.816L32.1038 275.969L31.7344 274.911L23.2637 277.866L21.0472 271.513C20.6409 270.348 21.2614 269.063 22.4261 268.656L30.8969 265.701C32.0616 265.295 33.347 265.915 33.7533 267.08L34.8615 270.256L36.9792 269.518L35.871 266.341C35.0583 264.012 32.4875 262.771 30.158 263.583ZM28.0404 264.322L23.805 265.8L23.4356 264.741L27.671 263.263L28.0404 264.322ZM27.4003 269.296L26.0214 272.153L28.8779 273.532L30.2568 270.675L27.4003 269.296ZM43.1454 274.255L38.0037 271.773C37.755 271.741 37.5063 271.709 37.2945 271.783L34.3297 272.817C33.9062 272.965 33.6304 273.536 33.7782 273.96L34.8125 276.925C34.8864 277.136 35.0662 277.311 35.2459 277.486L40.3876 279.968C40.5304 280.037 40.7791 280.069 41.0968 279.958C41.3085 279.884 41.4834 279.705 41.6582 279.525L43.5886 275.526C43.6576 275.383 43.6896 275.134 43.5788 274.817C43.5049 274.605 43.3251 274.43 43.1454 274.255ZM35.7038 274.713C35.3862 274.824 34.9577 274.617 34.8469 274.3C34.7361 273.982 34.9429 273.554 35.2606 273.443C35.5782 273.332 36.0067 273.539 36.1175 273.856C36.2283 274.174 36.0215 274.603 35.7038 274.713Z" fill="#0D0711"/>
</g>
<path d="M26.1611 299.39L25.6653 297.969L32.2993 295.655L32.7951 297.076L30.4681 297.888L32.7276 304.364L30.7532 305.053L28.4936 298.576L26.1611 299.39ZM34.4112 299.615L34.2447 299.138C33.8044 297.876 33.8148 296.795 34.2759 295.896C34.7406 294.996 35.5244 294.353 36.6274 293.968C37.7267 293.585 38.742 293.6 39.6731 294.013C40.6043 294.426 41.29 295.264 41.7303 296.526L41.8969 297.004C42.3372 298.266 42.3214 299.348 41.8494 300.251C41.3775 301.154 40.5918 301.797 39.4925 302.181C38.3895 302.566 37.3761 302.55 36.4521 302.134C35.5318 301.717 34.8515 300.877 34.4112 299.615ZM36.4948 299.065C36.7648 299.839 37.1167 300.359 37.5504 300.625C37.9864 300.887 38.4666 300.926 38.991 300.743C39.5226 300.558 39.8795 300.226 40.0619 299.749C40.2429 299.268 40.1984 298.641 39.9285 297.867L39.6541 297.08C39.3828 296.303 39.0273 295.784 38.5877 295.523C38.1467 295.259 37.6604 295.22 37.1289 295.406C36.6045 295.589 36.2536 295.92 36.0762 296.4C35.9011 296.874 35.9492 297.501 36.2204 298.278L36.4948 299.065ZM42.6979 292.027L48.6105 289.964L51.3659 297.862L49.3968 298.549L47.1373 292.072L44.7397 292.909L45.7877 296.541C46.0867 297.572 46.1601 298.404 46.0078 299.038C45.8591 299.67 45.378 300.127 44.5643 300.411C44.4486 300.452 44.3231 300.487 44.1879 300.518C44.0563 300.548 43.925 300.561 43.7942 300.558L43.2264 298.931C43.3246 298.933 43.4117 298.927 43.4878 298.913C43.5627 298.895 43.6381 298.873 43.714 298.846C44.0539 298.727 44.2448 298.519 44.2867 298.22C44.3309 297.917 44.2633 297.456 44.0839 296.837L42.6979 292.027ZM50.2866 289.379L52.2557 288.692L53.2076 291.421L54.4552 290.986C55.5256 290.612 56.39 290.578 57.0483 290.884C57.7103 291.189 58.1763 291.728 58.4463 292.502C58.72 293.286 58.6906 293.998 58.3579 294.638C58.0288 295.276 57.3273 295.782 56.2533 296.157L53.042 297.277L50.2866 289.379ZM53.6977 292.826L54.5209 295.185L55.6329 294.797C56.0777 294.642 56.3631 294.431 56.489 294.164C56.6136 293.893 56.6097 293.568 56.4772 293.189C56.3498 292.823 56.1512 292.568 55.8815 292.423C55.6118 292.278 55.2545 292.283 54.8097 292.438L53.6977 292.826ZM65.35 292.983L61.5157 290.329L62.4143 288.58L67.8181 292.122L65.35 292.983ZM59.8729 289.527L61.2236 289.056L62.6977 285.049L64.7535 284.332L62.4609 290.231L60.3725 290.959L59.8729 289.527ZM60.4734 294.685L57.7181 286.787L59.6925 286.098L62.4479 293.996L60.4734 294.685ZM66.8057 288.314L66.6392 287.836C66.1989 286.574 66.2093 285.493 66.6704 284.594C67.1351 283.694 67.9189 283.051 69.0219 282.667C70.1212 282.283 71.1365 282.298 72.0676 282.711C72.9988 283.125 73.6846 283.963 74.1249 285.225L74.2914 285.702C74.7317 286.964 74.7159 288.047 74.2439 288.949C73.772 289.852 72.9864 290.496 71.887 290.879C70.784 291.264 69.7706 291.248 68.8467 290.832C67.9263 290.415 67.246 289.576 66.8057 288.314ZM68.8893 287.763C69.1593 288.537 69.5112 289.057 69.9449 289.324C70.3809 289.585 70.8612 289.625 71.3855 289.442C71.9171 289.256 72.2741 288.925 72.4564 288.447C72.6374 287.966 72.593 287.339 72.323 286.565L72.0486 285.779C71.7773 285.001 71.4219 284.482 70.9822 284.222C70.5412 283.958 70.055 283.919 69.5234 284.104C68.999 284.287 68.6481 284.618 68.4707 285.098C68.2956 285.573 68.3437 286.199 68.6149 286.977L68.8893 287.763ZM40.2664 321.857L36.4321 319.204L37.3308 317.454L42.7345 320.996L40.2664 321.857ZM34.7894 318.401L36.1401 317.93L37.6141 313.923L39.67 313.206L37.3774 319.105L35.289 319.834L34.7894 318.401ZM35.3899 323.559L32.6345 315.661L34.609 314.972L37.3644 322.87L35.3899 323.559ZM42.3169 321.142L42.4215 312.216L44.6238 311.448L50.3233 318.349L48.1861 319.094L44.4423 314.328C44.3547 314.217 44.2763 314.108 44.207 314.002C44.1413 313.896 44.0768 313.786 44.0135 313.674L43.9701 313.69C43.99 313.817 44.0057 313.943 44.0171 314.069C44.0322 314.193 44.0383 314.327 44.0354 314.47L44.0852 320.525L42.3169 321.142ZM43.4941 318.918L43.4436 317.378L46.8936 316.174L47.8174 317.41L43.4941 318.918ZM50.864 311.771C51.057 312.325 51.3124 312.655 51.63 312.764C51.9464 312.868 52.3722 312.827 52.9074 312.64C53.3522 312.485 53.7334 312.328 54.0509 312.168C54.3672 312.005 54.6929 311.817 55.0278 311.602L55.5161 313.002C55.0923 313.276 54.6879 313.506 54.3029 313.693C53.9203 313.875 53.4812 314.053 52.9858 314.225C51.8937 314.606 51.0278 314.665 50.3882 314.402C49.7523 314.137 49.2753 313.549 48.9574 312.637L48.1266 310.256L50.0957 309.569L50.864 311.771ZM54.8474 307.911L57.6028 315.809L55.6283 316.498L52.873 308.6L54.8474 307.911ZM59.2681 315.228L56.5127 307.33L62.1595 305.36L62.6553 306.781L58.9668 308.068L59.5648 309.782L62.7543 308.67L63.2426 310.069L60.053 311.182L60.7324 313.129L64.4807 311.822L64.9746 313.237L59.2681 315.228ZM64.5698 309.217L64.4032 308.739C63.9617 307.474 63.9721 306.393 64.4344 305.497C64.8991 304.597 65.6866 303.953 66.7968 303.566C67.8599 303.195 68.7868 303.166 69.5772 303.478C70.3677 303.791 70.9238 304.367 71.2456 305.208L71.2929 305.344L69.2913 306.042L69.231 305.887C69.0688 305.457 68.8254 305.16 68.501 304.998C68.1765 304.835 67.7702 304.839 67.282 305.009C66.7721 305.187 66.4241 305.509 66.238 305.976C66.0555 306.441 66.1005 307.064 66.373 307.845L66.6682 308.691C66.9319 309.447 67.2788 309.959 67.7089 310.227C68.1414 310.49 68.627 310.527 69.1658 310.339C69.6468 310.171 69.96 309.918 70.1055 309.579C70.2497 309.237 70.2553 308.858 70.1224 308.442L70.0748 308.288L72.0764 307.59L72.1294 307.741C72.3968 308.589 72.3164 309.382 71.8881 310.12C71.4635 310.856 70.7215 311.409 69.6619 311.778C68.5481 312.167 67.5304 312.151 66.6088 311.73C65.6872 311.309 65.0075 310.472 64.5698 309.217ZM71.2259 303.791L70.7301 302.37L77.3641 300.056L77.8599 301.477L75.5329 302.289L77.7924 308.765L75.8179 309.454L73.5584 302.978L71.2259 303.791ZM81.0742 307.621L78.3188 299.723L81.4704 298.623C82.4179 298.293 83.2203 298.203 83.8777 298.355C84.5387 298.506 84.9935 298.937 85.2421 299.65C85.3935 300.084 85.4225 300.475 85.3293 300.824C85.236 301.173 85.0636 301.446 84.812 301.644L84.8195 301.665C85.2092 301.643 85.5753 301.75 85.9178 301.988C86.259 302.222 86.5192 302.595 86.6983 303.109C86.9494 303.829 86.8586 304.487 86.426 305.084C85.9934 305.681 85.3143 306.141 84.3885 306.464L81.0742 307.621ZM82.5763 305.63L83.8945 305.17C84.2959 305.03 84.5565 304.83 84.6764 304.569C84.8 304.307 84.8031 304.008 84.6857 303.671C84.5697 303.338 84.3817 303.108 84.122 302.98C83.8658 302.85 83.537 302.855 83.1356 302.995L81.8175 303.455L82.5763 305.63ZM81.3879 302.224L82.5487 301.819C82.9465 301.68 83.2038 301.499 83.3206 301.276C83.441 301.051 83.4489 300.789 83.3442 300.488C83.2407 300.192 83.072 299.993 82.838 299.892C82.6077 299.79 82.2936 299.808 81.8958 299.947L80.735 300.352L81.3879 302.224ZM88.7985 304.926L86.0432 297.028L91.69 295.058L92.1858 296.479L88.4972 297.766L89.0952 299.48L92.2847 298.367L92.773 299.767L89.5834 300.879L90.2628 302.827L94.0111 301.519L94.505 302.935L88.7985 304.926ZM95.6984 302.519L92.943 294.621L94.9121 293.934L95.9983 297.047L98.9709 296.01L97.8846 292.897L99.8537 292.21L102.609 300.108L100.64 300.795L99.4705 297.442L96.4979 298.479L97.6674 301.832L95.6984 302.519ZM104.28 299.525L101.524 291.627L103.493 290.94L104.58 294.053L107.552 293.016L106.466 289.903L108.435 289.216L111.19 297.114L109.221 297.801L108.052 294.448L105.079 295.486L106.249 298.838L104.28 299.525ZM111.858 296.881L111.962 287.955L114.165 287.187L119.864 294.088L117.727 294.833L113.983 290.067C113.896 289.956 113.817 289.847 113.748 289.741C113.682 289.635 113.618 289.525 113.554 289.413L113.511 289.429C113.531 289.556 113.546 289.682 113.558 289.808C113.573 289.932 113.579 290.066 113.576 290.209L113.626 296.264L111.858 296.881ZM113.035 294.657L112.984 293.117L116.434 291.913L117.358 293.149L113.035 294.657ZM126.552 291.754L124.583 292.441L123.639 289.735L121.865 290.353L121.444 290.281C120.692 290.438 120.056 290.364 119.535 290.059C119.018 289.749 118.645 289.268 118.418 288.617C118.14 287.822 118.193 287.1 118.575 286.451C118.957 285.803 119.647 285.304 120.645 284.956L123.797 283.856L126.552 291.754ZM123.156 288.351L122.314 285.938L121.273 286.301C120.788 286.47 120.488 286.696 120.372 286.98C120.26 287.263 120.265 287.581 120.389 287.936C120.515 288.297 120.713 288.561 120.981 288.727C121.252 288.888 121.63 288.884 122.115 288.715L123.156 288.351ZM122.186 293.278L120.076 294.014L120.771 289.695L122.822 288.979L122.186 293.278ZM41.6485 341.498L38.8932 333.6L45.7171 331.22L48.4724 339.118L46.5034 339.805L44.2438 333.328L41.358 334.335L43.6176 340.811L41.6485 341.498ZM50.1432 338.535L47.3878 330.637L50.6099 329.513C51.5971 329.168 52.4354 329.129 53.1247 329.396C53.8176 329.661 54.311 330.215 54.605 331.058C54.8989 331.9 54.8602 332.644 54.4889 333.289C54.1175 333.933 53.4364 334.429 52.4455 334.774L51.1925 335.211L52.1122 337.848L50.1432 338.535ZM50.7061 333.817L51.8019 333.435C52.2792 333.269 52.5723 333.045 52.681 332.763C52.7897 332.482 52.7753 332.144 52.6378 331.75C52.5016 331.36 52.3046 331.092 52.047 330.946C51.7882 330.797 51.42 330.806 50.9427 330.972L49.847 331.355L50.7061 333.817ZM55.9764 332.338L55.8099 331.86C55.3696 330.598 55.3799 329.518 55.841 328.619C56.3057 327.718 57.0896 327.076 58.1925 326.691C59.2919 326.307 60.3071 326.322 61.2383 326.736C62.1695 327.149 62.8552 327.987 63.2955 329.249L63.4621 329.726C63.9024 330.988 63.8865 332.071 63.4146 332.974C62.9427 333.877 62.157 334.52 61.0577 334.903C59.9547 335.288 58.9413 335.273 58.0173 334.857C57.097 334.439 56.4167 333.6 55.9764 332.338ZM58.06 331.787C58.33 332.561 58.6818 333.081 59.1155 333.348C59.5516 333.609 60.0318 333.649 60.5562 333.466C61.0878 333.28 61.4447 332.949 61.627 332.472C61.8081 331.991 61.7636 331.363 61.4936 330.589L61.2192 329.803C60.948 329.025 60.5925 328.506 60.1528 328.246C59.7119 327.982 59.2256 327.943 58.694 328.128C58.1697 328.311 57.8188 328.643 57.6413 329.122C57.4663 329.597 57.5143 330.223 57.7856 331.001L58.06 331.787ZM72.5089 332.496L71.9601 330.923L67.2029 332.583L67.7517 334.156L65.8965 334.803L64.8519 331.809L73.3248 328.853L74.3695 331.847L72.5089 332.496ZM64.0787 324.814L70.0672 322.724L72.8226 330.622L70.8481 331.311L68.5885 324.835L66.115 325.697L66.9532 328.484C67.1894 329.265 67.3278 329.895 67.3683 330.371C67.4076 330.844 67.3697 331.294 67.2545 331.719L65.5078 332.329C65.6448 331.814 65.704 331.327 65.6855 330.867C65.6693 330.402 65.5374 329.757 65.2897 328.93L64.0787 324.814ZM74.331 328.301C74.4338 328.294 74.5487 328.28 74.6756 328.26C74.8013 328.237 74.9328 328.201 75.0702 328.153C75.3595 328.052 75.5865 327.912 75.7512 327.733C75.9146 327.55 76.0215 327.269 76.0719 326.891L76.1172 327.143L71.1683 322.34L73.2296 321.621L75.7723 324.288C75.9505 324.473 76.0756 324.628 76.1476 324.753C76.2183 324.874 76.3048 324.994 76.4069 325.113L76.4503 325.098C76.4507 324.947 76.4462 324.801 76.437 324.658C76.4264 324.512 76.4292 324.316 76.4451 324.071L76.6524 320.427L78.4316 319.806L77.8671 326.629C77.7948 327.527 77.6099 328.212 77.3124 328.685C77.0173 329.153 76.5335 329.504 75.8609 329.739C75.633 329.818 75.4473 329.873 75.3035 329.903C75.1647 329.935 75.0323 329.951 74.9063 329.95L74.331 328.301ZM86.9152 325.706L83.0809 323.052L83.9795 321.303L89.3833 324.845L86.9152 325.706ZM81.4381 322.25L82.7888 321.779L84.2628 317.772L86.3187 317.055L84.0261 322.954L81.9377 323.682L81.4381 322.25ZM82.0386 327.407L79.2832 319.509L81.2577 318.82L84.0131 326.718L82.0386 327.407ZM96.4847 324.132L95.9359 322.559L89.9691 324.64L87.2137 316.743L89.1828 316.056L91.4423 322.532L94.3281 321.526L92.0686 315.049L94.043 314.36L96.3026 320.837L97.2953 320.49L98.3399 323.485L96.4847 324.132ZM105.673 319.162L103.698 319.851L102.129 315.354C102.087 315.231 102.04 315.091 101.989 314.934C101.937 314.774 101.891 314.63 101.85 314.502L101.802 314.519C101.79 314.661 101.775 314.802 101.755 314.943C101.737 315.079 101.718 315.228 101.697 315.389L100.84 320.848L98.7132 321.59L95.9578 313.692L97.9269 313.005L99.4806 317.458C99.5235 317.581 99.5747 317.734 99.6341 317.916C99.6923 318.094 99.7411 318.246 99.7803 318.37L99.8292 318.353C99.8409 318.235 99.8546 318.095 99.8705 317.931C99.89 317.766 99.9096 317.607 99.9293 317.454L100.786 312.008L102.917 311.264L105.673 319.162ZM113.359 316.48L111.39 317.167L110.446 314.46L108.672 315.079L108.251 315.007C107.499 315.164 106.862 315.09 106.342 314.785C105.824 314.475 105.452 313.994 105.225 313.343C104.947 312.547 104.999 311.825 105.382 311.177C105.764 310.528 106.454 310.03 107.452 309.682L110.604 308.582L113.359 316.48ZM109.963 313.077L109.121 310.663L108.08 311.027C107.595 311.196 107.295 311.422 107.179 311.706C107.066 311.989 107.072 312.307 107.196 312.662C107.322 313.023 107.519 313.287 107.788 313.453C108.059 313.614 108.437 313.61 108.922 313.441L109.963 313.077ZM108.992 318.004L106.882 318.74L107.578 314.42L109.628 313.705L108.992 318.004Z" fill="#0D0711"/>
<path d="M137.132 22.3904C137.374 19.9656 139.536 18.1961 141.961 18.438L243.897 28.6084C246.322 28.8503 248.091 31.0121 247.849 33.4368L246.097 50.9984L135.38 39.9519L137.132 22.3904Z" fill="#5296FF"/>
<path d="M135.381 39.9519L325.982 58.9685C328.407 59.2105 330.176 61.3722 329.934 63.797L328.62 76.9681C328.378 79.3929 326.216 81.1624 323.792 80.9205L133.191 61.9038L135.381 39.9519Z" fill="#5296FF"/>
<path d="M133.189 61.9039L265.102 75.0651L263.35 92.6267C263.108 95.0514 260.946 96.8209 258.521 96.579L135.39 84.2939C132.965 84.052 131.195 81.8902 131.437 79.4655L133.189 61.9039Z" fill="#5296FF"/>
<path d="M143.311 37.9272L144.313 27.8894L152.462 28.7024L151.46 38.7402L149.344 38.5291L150.185 30.0976L146.269 29.7069L145.428 38.1384L143.311 37.9272ZM153.597 38.9535L154.599 28.9157L158.425 29.2974C159.593 29.4139 160.461 29.7837 161.03 30.4068C161.604 31.0303 161.839 31.8637 161.734 32.907C161.631 33.9457 161.236 34.7186 160.549 35.2257C159.867 35.7333 158.94 35.9286 157.768 35.8117L156.059 35.6411L155.707 39.164L153.597 38.9535ZM156.216 34.0623L157.74 34.2143C158.388 34.279 158.851 34.1743 159.129 33.9003C159.407 33.6264 159.572 33.2251 159.625 32.6966C159.677 32.1726 159.594 31.7535 159.374 31.4392C159.155 31.1202 158.722 30.9285 158.074 30.8638L156.55 30.7118L156.216 34.0623ZM170.819 40.6717L168.702 40.4605L169.313 34.3455C169.329 34.1846 169.346 34.0077 169.366 33.8146C169.39 33.6174 169.412 33.4387 169.433 33.2783L169.385 33.2734C169.296 33.4178 169.208 33.5598 169.119 33.6995C169.031 33.8393 168.932 33.9919 168.823 34.1574L164.752 40.0664L162.463 39.838L163.465 29.8002L165.581 30.0114L164.971 36.1265C164.955 36.2873 164.935 36.4663 164.911 36.6635C164.891 36.8611 164.871 37.0379 164.851 37.1937L164.906 37.1992C164.978 37.081 165.061 36.9431 165.156 36.7855C165.255 36.6283 165.357 36.4713 165.461 36.3146L169.532 30.4055L171.82 30.6339L170.819 40.6717ZM172.956 40.8849L173.958 30.8471L176.067 31.0576L175.663 35.1113L179.703 35.5144L180.107 31.4607L182.217 31.6711L181.215 41.7089L179.106 41.4985L179.541 37.1345L175.501 36.7314L175.066 41.0954L172.956 40.8849ZM191.708 42.7558L189.592 42.5447L190.202 36.4296C190.218 36.2687 190.235 36.0918 190.255 35.8988C190.279 35.7016 190.301 35.5228 190.322 35.3624L190.274 35.3576C190.185 35.5019 190.097 35.644 190.008 35.7837C189.92 35.9234 189.821 36.076 189.712 36.2415L185.641 42.1505L183.352 41.9222L184.354 31.8844L186.47 32.0955L185.86 38.2106C185.844 38.3715 185.824 38.5505 185.8 38.7477C185.78 38.9453 185.76 39.122 185.74 39.2778L185.795 39.2833C185.867 39.1652 185.951 39.0273 186.045 38.8696C186.144 38.7124 186.246 38.5554 186.35 38.3987L190.421 32.4897L192.71 32.718L191.708 42.7558ZM193.845 42.9691L194.847 32.9313L197.549 33.2009L199.3 39.9414C199.339 40.1032 199.373 40.2551 199.4 40.3971C199.429 40.5345 199.448 40.6896 199.458 40.8624L199.5 40.8665C199.549 40.6997 199.601 40.5494 199.656 40.4156C199.711 40.2819 199.774 40.1419 199.844 39.9957L202.899 33.7347L205.643 34.0084L204.641 44.0462L202.552 43.8378L203.191 37.4332C203.207 37.2769 203.226 37.1071 203.249 36.9237C203.277 36.7362 203.306 36.5673 203.335 36.417L203.279 36.4115C203.241 36.5609 203.19 36.7275 203.125 36.9113C203.065 37.0911 203 37.2563 202.929 37.4071L199.926 43.5757L198.195 43.4031L196.49 36.7646C196.451 36.6028 196.417 36.4277 196.39 36.2393C196.362 36.0463 196.345 35.8728 196.337 35.7188L196.282 35.7133C196.281 35.8664 196.273 36.0374 196.259 36.2262C196.249 36.411 196.237 36.5815 196.222 36.7378L195.583 43.1424L193.845 42.9691ZM205.524 44.1343L210.336 34.4279L212.562 34.6501L215.431 45.1227L213.156 44.8957L211.285 37.5444C211.245 37.3827 211.214 37.2287 211.192 37.0826C211.174 36.9369 211.158 36.7914 211.145 36.6462L211.09 36.6407C211.048 36.7804 211.001 36.922 210.95 37.0654C210.903 37.2046 210.845 37.3474 210.775 37.4935L207.489 44.3303L205.524 44.1343ZM207.902 42.1366L208.548 40.6204L212.981 41.0627L213.321 42.6772L207.902 42.1366ZM216.32 45.2114L217.321 35.1736L224.078 35.8477L223.917 37.454L219.257 36.989L219.01 39.464L223.043 39.8664L222.885 41.452L218.852 41.0497L218.575 43.8211L223.312 44.2936L223.152 45.8931L216.32 45.2114ZM224.662 46.0437L225.663 36.0059L228.366 36.2755L230.116 43.016C230.156 43.1778 230.189 43.3297 230.217 43.4717C230.245 43.6091 230.264 43.7642 230.275 43.937L230.316 43.9411C230.366 43.7743 230.418 43.624 230.473 43.4903C230.528 43.3565 230.591 43.2165 230.661 43.0704L233.716 36.8093L236.459 37.0831L235.458 47.1209L233.369 46.9124L234.008 40.5078C234.024 40.3516 234.043 40.1817 234.066 39.9983C234.094 39.8108 234.122 39.6419 234.151 39.4916L234.096 39.4861C234.058 39.6355 234.007 39.8021 233.942 39.986C233.882 40.1657 233.817 40.3309 233.746 40.4817L230.742 46.6504L229.012 46.4777L227.307 39.8392C227.267 39.6775 227.234 39.5024 227.206 39.314C227.179 39.1209 227.162 38.9474 227.154 38.7935L227.099 38.788C227.097 38.941 227.089 39.112 227.075 39.3009C227.066 39.4856 227.054 39.6562 227.038 39.8124L226.399 46.217L224.662 46.0437ZM237.661 46.3241C237.693 46.007 237.828 45.7466 238.066 45.5429C238.305 45.3347 238.627 45.2507 239.031 45.2911C239.436 45.3314 239.735 45.4773 239.928 45.7286C240.126 45.9759 240.209 46.258 240.177 46.5752C240.146 46.8923 240.011 47.155 239.772 47.3632C239.533 47.5669 239.212 47.6485 238.807 47.6082C238.398 47.5674 238.097 47.4236 237.903 47.1768C237.71 46.9255 237.629 46.6412 237.661 46.3241ZM238.193 40.995C238.224 40.6778 238.359 40.4174 238.598 40.2138C238.837 40.0055 239.161 39.9218 239.57 39.9626C239.974 40.003 240.273 40.1488 240.466 40.4002C240.66 40.647 240.741 40.9289 240.709 41.246C240.677 41.5632 240.54 41.8233 240.297 42.0265C240.059 42.2302 239.737 42.3118 239.333 42.2715C238.928 42.2311 238.629 42.0876 238.436 41.8408C238.242 41.594 238.161 41.3121 238.193 40.995ZM141.524 55.8383L142.526 45.8005L145.228 46.0701L146.979 52.8106C147.019 52.9724 147.052 53.1243 147.08 53.2663C147.108 53.4037 147.127 53.5588 147.138 53.7316L147.179 53.7357C147.228 53.5689 147.28 53.4186 147.335 53.2848C147.391 53.1511 147.453 53.0111 147.524 52.865L150.578 46.6039L153.322 46.8776L152.321 56.9154L150.232 56.707L150.871 50.3024C150.886 50.1462 150.906 49.9763 150.929 49.7929C150.957 49.6054 150.985 49.4365 151.014 49.2862L150.959 49.2807C150.921 49.4301 150.869 49.5967 150.804 49.7806C150.745 49.9603 150.679 50.1255 150.609 50.2763L147.605 56.445L145.875 56.2723L144.17 49.6338C144.13 49.4721 144.097 49.297 144.069 49.1085C144.042 48.9155 144.024 48.742 144.016 48.5881L143.961 48.5826C143.96 48.7356 143.952 48.9066 143.938 49.0955C143.929 49.2802 143.916 49.4507 143.901 49.607L143.262 56.0116L141.524 55.8383ZM153.258 57.009L158.07 47.3026L160.297 47.5248L163.165 57.9974L160.89 57.7704L159.019 50.4192C158.98 50.2574 158.949 50.1034 158.926 49.9573C158.908 49.8116 158.893 49.6661 158.879 49.5209L158.824 49.5154C158.782 49.6551 158.736 49.7967 158.684 49.9401C158.638 50.0794 158.58 50.2221 158.509 50.3683L155.223 57.205L153.258 57.009ZM155.637 55.0113L156.282 53.4952L160.715 53.9374L161.056 55.5519L155.637 55.0113ZM163.78 55.1832L163.799 54.997L165.95 55.2116L165.934 55.3702C165.885 55.862 166.006 56.2478 166.299 56.5276C166.596 56.8033 167.03 56.9696 167.6 57.0264C168.165 57.0828 168.611 57.0113 168.937 56.8117C169.263 56.6122 169.445 56.324 169.483 55.9471C169.523 55.5473 169.408 55.2272 169.14 54.9869C168.872 54.742 168.261 54.4443 167.307 54.0938C166.282 53.7176 165.517 53.2676 165.012 52.7438C164.512 52.2159 164.301 51.5426 164.378 50.724C164.467 49.837 164.875 49.1629 165.603 48.7018C166.336 48.2411 167.275 48.0678 168.419 48.182C169.559 48.2957 170.444 48.6602 171.075 49.2755C171.709 49.8912 171.981 50.6541 171.891 51.5641L171.873 51.7364L169.757 51.5253L169.772 51.3736C169.815 50.9462 169.711 50.59 169.461 50.3051C169.211 50.0156 168.813 49.8436 168.266 49.789C167.719 49.7345 167.304 49.7975 167.022 49.9782C166.744 50.1593 166.587 50.4246 166.552 50.7739C166.518 51.1232 166.629 51.4012 166.887 51.608C167.15 51.8106 167.756 52.0915 168.704 52.4507C169.715 52.8301 170.479 53.2893 170.996 53.8283C171.518 54.3677 171.736 55.0927 171.65 56.0031C171.555 56.9545 171.125 57.659 170.36 58.1164C169.594 58.5739 168.621 58.7437 167.44 58.6259C166.273 58.5094 165.345 58.1546 164.657 57.5614C163.973 56.9687 163.681 56.1759 163.78 55.1832ZM172.81 50.4443L172.97 48.838L181.057 49.6448L180.897 51.2511L177.912 50.9533L177.07 59.3848L174.954 59.1736L175.795 50.7421L172.81 50.4443ZM181.276 59.8044L182.277 49.7666L189.034 50.4406L188.873 52.047L184.213 51.582L183.966 54.057L187.999 54.4594L187.841 56.045L183.808 55.6426L183.531 58.414L188.267 58.8866L188.108 60.486L181.276 59.8044ZM189.618 60.6366L190.619 50.5988L194.273 50.9634C195.445 51.0803 196.33 51.4494 196.927 52.0707C197.529 52.6878 197.78 53.4973 197.68 54.4992C197.579 55.5104 197.172 56.2704 196.457 56.7793C195.743 57.2837 194.802 57.4776 193.635 57.3611L192.09 57.207L191.727 60.8471L189.618 60.6366ZM192.246 55.649L193.721 55.7962C194.337 55.8576 194.784 55.7514 195.062 55.4774C195.345 55.2038 195.513 54.8145 195.568 54.3094C195.618 53.8085 195.531 53.4029 195.307 53.0927C195.083 52.7825 194.662 52.5967 194.047 52.5353L192.571 52.3881L192.246 55.649ZM195.105 61.1842L193.209 56.323L195.446 56.4417L197.477 61.4208L195.105 61.1842ZM198.733 56.7905L198.795 56.1701C198.955 54.5614 199.49 53.3825 200.401 52.6331C201.316 51.8842 202.437 51.576 203.765 51.7086C205.029 51.8347 205.998 52.2655 206.672 53.0012C207.347 53.7323 207.632 54.6149 207.529 55.649L207.512 55.8213L205.382 55.6088L205.402 55.4089C205.462 54.8068 205.342 54.3284 205.043 53.9736C204.745 53.6143 204.258 53.4009 203.582 53.3335C202.898 53.2652 202.323 53.4468 201.857 53.8785C201.392 54.3056 201.105 55.0637 200.996 56.153L200.888 57.2423C200.787 58.2534 200.915 59.0368 201.273 59.5923C201.631 60.1433 202.171 60.4548 202.893 60.5268C203.536 60.591 204.034 60.4666 204.385 60.1535C204.741 59.8409 204.964 59.3989 205.053 58.8276L205.078 58.6491L207.209 58.8616L207.191 59.0409C207.043 60.0566 206.578 60.8596 205.794 61.4499C205.011 62.0402 203.988 62.2723 202.724 62.1462C201.387 62.0128 200.346 61.4865 199.602 60.5675C198.863 59.6444 198.574 58.3854 198.733 56.7905ZM207.046 62.3755L211.858 52.6691L214.085 52.8913L216.953 63.3639L214.678 63.1369L212.807 55.7857C212.768 55.6239 212.736 55.4699 212.714 55.3238C212.696 55.1781 212.68 55.0326 212.667 54.8874L212.612 54.8819C212.57 55.0216 212.523 55.1632 212.472 55.3066C212.426 55.4459 212.367 55.5886 212.297 55.7348L209.011 62.5715L207.046 62.3755ZM209.425 60.3778L210.07 58.8617L214.503 59.3039L214.843 60.9184L209.425 60.3778ZM217.842 63.4527L218.844 53.4148L222.497 53.7794C223.669 53.8963 224.554 54.2654 225.151 54.8867C225.753 55.5038 226.005 56.3133 225.905 57.3152C225.804 58.3264 225.396 59.0864 224.681 59.5953C223.967 60.0997 223.027 60.2936 221.859 60.1771L220.315 60.023L219.952 63.6631L217.842 63.4527ZM220.47 58.465L221.946 58.6122C222.562 58.6736 223.008 58.5674 223.286 58.2934C223.569 58.0199 223.738 57.6305 223.793 57.1254C223.843 56.6245 223.756 56.2189 223.531 55.9087C223.307 55.5985 222.887 55.4127 222.271 55.3513L220.796 55.2041L220.47 58.465ZM223.33 64.0002L221.434 59.139L223.671 59.2578L225.701 64.2368L223.33 64.0002ZM226.873 64.3537L227.875 54.3159L231.239 54.6516C232.59 54.7864 233.68 55.3128 234.507 56.2309C235.335 57.149 235.675 58.348 235.527 59.828L235.464 60.4553C235.316 61.9399 234.746 63.0504 233.753 63.7869C232.761 64.5234 231.589 64.8242 230.238 64.6894L226.873 64.3537ZM229.134 62.9848L230.368 63.1079C231.149 63.1858 231.807 62.9892 232.341 62.518C232.88 62.0473 233.2 61.304 233.302 60.2883L233.373 59.5713C233.475 58.5556 233.307 57.766 232.872 57.2027C232.441 56.6352 231.835 56.3124 231.053 56.2345L229.819 56.1113L229.134 62.9848ZM235.471 66.806C235.756 66.5095 235.981 66.1907 236.145 65.8497C236.313 65.5137 236.42 65.1182 236.465 64.6632L236.613 63.1809L238.481 63.3673L238.34 64.8503C238.281 65.4385 238.092 65.9651 237.772 66.4298C237.456 66.8996 237.057 67.2915 236.575 67.6055L235.471 66.806ZM243.683 55.8931L245.986 56.1229L247.753 63.1853C247.786 63.3186 247.808 63.4415 247.82 63.5541C247.837 63.6626 247.855 63.7897 247.873 63.9353L247.935 63.9415C247.981 63.8023 248.024 63.6811 248.062 63.5782C248.105 63.4711 248.154 63.3553 248.208 63.2307L251.384 56.6614L253.404 56.863L248.662 66.5624L246.428 66.3396L243.683 55.8931ZM253.25 66.9854L254.252 56.9476L256.368 57.1587L255.367 67.1965L253.25 66.9854ZM257.209 64.5047L257.227 64.3186L259.378 64.5332L259.363 64.6918C259.313 65.1835 259.435 65.5694 259.727 65.8492C260.025 66.1249 260.459 66.2911 261.028 66.348C261.594 66.4044 262.04 66.3328 262.366 66.1333C262.692 65.9338 262.874 65.6456 262.912 65.2687C262.952 64.8688 262.837 64.5487 262.569 64.3084C262.301 64.0635 261.69 63.7658 260.736 63.4154C259.711 63.0392 258.946 62.5892 258.441 62.0654C257.941 61.5374 257.73 60.8642 257.807 60.0456C257.895 59.1586 258.304 58.4845 259.032 58.0233C259.765 57.5627 260.704 57.3894 261.848 57.5036C262.988 57.6173 263.873 57.9818 264.503 58.5971C265.138 59.2128 265.41 59.9756 265.319 60.8857L265.302 61.058L263.186 60.8468L263.201 60.6952C263.244 60.2677 263.14 59.9116 262.89 59.6267C262.64 59.3372 262.242 59.1652 261.695 59.1106C261.148 59.056 260.733 59.1191 260.451 59.2998C260.173 59.4809 260.016 59.7461 259.981 60.0954C259.946 60.4447 260.058 60.7228 260.316 60.9295C260.579 61.1322 261.184 61.4131 262.133 61.7722C263.144 62.1516 263.908 62.6108 264.425 63.1498C264.947 63.6893 265.165 64.4142 265.078 65.3247C264.984 66.2761 264.553 66.9805 263.788 67.438C263.023 67.8955 262.05 68.0653 260.869 67.9474C259.701 67.831 258.774 67.4761 258.086 66.883C257.402 66.2902 257.11 65.4975 257.209 64.5047ZM265.053 68.163L269.865 58.4566L272.092 58.6788L274.96 69.1514L272.685 68.9244L270.814 61.5731C270.774 61.4114 270.743 61.2574 270.721 61.1112C270.703 60.9656 270.687 60.8201 270.674 60.6749L270.619 60.6694C270.577 60.8091 270.53 60.9507 270.479 61.0941C270.432 61.2333 270.374 61.3761 270.304 61.5222L267.018 68.359L265.053 68.163ZM267.432 66.1652L268.077 64.6491L272.51 65.0914L272.85 66.7059L267.432 66.1652ZM275.347 70.7845C275.632 70.488 275.856 70.1692 276.02 69.8281C276.188 69.4921 276.295 69.0966 276.34 68.6416L276.488 67.1594L278.357 67.3458L278.216 68.8287C278.157 69.417 277.967 69.9435 277.647 70.4082C277.331 70.878 276.932 71.2699 276.451 71.5839L275.347 70.7845ZM283.819 70.0353L284.82 59.9975L287.523 60.2671L289.273 67.0076C289.313 67.1694 289.346 67.3212 289.374 67.4633C289.402 67.6007 289.421 67.7558 289.432 67.9286L289.473 67.9327C289.522 67.7659 289.575 67.6156 289.63 67.4818C289.685 67.3481 289.747 67.2081 289.818 67.0619L292.872 60.8008L295.616 61.0746L294.615 71.1124L292.526 70.904L293.165 64.4994C293.18 64.3431 293.2 64.1733 293.223 63.9899C293.251 63.8024 293.279 63.6335 293.308 63.4832L293.253 63.4777C293.215 63.6271 293.163 63.7937 293.099 63.9775C293.039 64.1572 292.974 64.3225 292.903 64.4732L289.899 70.6419L288.169 70.4693L286.464 63.8308C286.424 63.669 286.391 63.4939 286.363 63.3055C286.336 63.1125 286.318 62.939 286.311 62.785L286.255 62.7795C286.254 62.9326 286.246 63.1035 286.232 63.2924C286.223 63.4772 286.211 63.6477 286.195 63.804L285.556 70.2086L283.819 70.0353ZM305.108 72.1593L302.991 71.9481L303.601 65.8331C303.617 65.6722 303.635 65.4953 303.654 65.3022C303.678 65.105 303.701 64.9263 303.722 64.7659L303.673 64.761C303.585 64.9054 303.496 65.0474 303.408 65.1871C303.32 65.3269 303.221 65.4795 303.112 65.645L299.041 71.554L296.752 71.3256L297.753 61.2878L299.87 61.499L299.26 67.6141C299.244 67.7749 299.224 67.9539 299.199 68.1511C299.18 68.3487 299.16 68.5255 299.139 68.6813L299.195 68.6868C299.267 68.5686 299.35 68.4307 299.445 68.2731C299.544 68.1159 299.645 67.9589 299.749 67.8022L303.82 61.8931L306.109 62.1215L305.108 72.1593ZM307.245 72.3725L308.246 62.3347L312.072 62.7165C313.24 62.8329 314.108 63.2027 314.677 63.8258C315.251 64.4494 315.486 65.2828 315.382 66.3261C315.278 67.3648 314.883 68.1377 314.196 68.6448C313.515 69.1523 312.588 69.3476 311.416 69.2307L309.706 69.0601L309.354 72.583L307.245 72.3725ZM309.863 67.4814L311.387 67.6334C312.035 67.698 312.498 67.5934 312.776 67.3194C313.054 67.0454 313.219 66.6442 313.272 66.1156C313.324 65.5917 313.241 65.1725 313.022 64.8582C312.803 64.5393 312.369 64.3475 311.721 64.2829L310.198 64.1308L309.863 67.4814ZM147.994 75.5781L145.877 75.3669L146.487 69.2519C146.503 69.091 146.521 68.914 146.54 68.721C146.565 68.5238 146.587 68.3451 146.608 68.1846L146.56 68.1798C146.471 68.3242 146.382 68.4662 146.294 68.6059C146.206 68.7457 146.107 68.8983 145.998 69.0638L141.927 74.9728L139.638 74.7444L140.64 64.7066L142.756 64.9178L142.146 71.0329C142.13 71.1937 142.11 71.3727 142.086 71.5699C142.066 71.7675 142.046 71.9443 142.026 72.1001L142.081 72.1056C142.153 71.9874 142.236 71.8495 142.331 71.6919C142.43 71.5347 142.532 71.3777 142.636 71.2209L146.706 65.3119L148.995 65.5403L147.994 75.5781ZM159.838 76.7598L156.583 71.7631L158.228 70.6321L162.478 77.0232L159.838 76.7598ZM155.333 70.2667L156.933 70.4263L160.819 66.7199L163.094 66.9469L157.536 72.1228L155.172 71.8868L155.333 70.2667ZM153.578 76.1352L154.58 66.0974L156.696 66.3086L155.695 76.3464L153.578 76.1352ZM163.327 72.3524L163.389 71.7319C163.549 70.1279 164.089 68.9517 165.008 68.2032C165.933 67.4507 167.055 67.1402 168.374 67.2718C169.693 67.4034 170.734 67.9296 171.496 68.8505C172.258 69.7668 172.56 71.0269 172.4 72.6309L172.338 73.2514C172.178 74.8554 171.633 76.0335 170.704 76.7856C169.775 77.5331 168.652 77.8411 167.332 77.7095C166.013 77.5779 164.975 77.0541 164.217 76.1383C163.464 75.2184 163.167 73.9564 163.327 72.3524ZM165.479 72.769C165.375 73.8077 165.507 74.603 165.875 75.1549C166.246 75.7072 166.786 76.0187 167.494 76.0893C168.207 76.1604 168.802 75.9622 169.28 75.4947C169.759 75.0272 170.05 74.2741 170.153 73.2353L170.254 72.2219C170.358 71.1786 170.222 70.3828 169.845 69.8346C169.468 69.2818 168.924 68.9699 168.212 68.8988C167.504 68.8282 166.913 69.0269 166.439 69.4948C165.971 69.9587 165.684 70.7123 165.58 71.7556L165.479 72.769ZM173.626 78.1355L174.628 68.0977L176.737 68.3081L176.333 72.3619L180.373 72.7649L180.777 68.7112L182.887 68.9217L181.885 78.9595L179.776 78.749L180.211 74.3851L176.171 73.982L175.736 78.3459L173.626 78.1355ZM184.022 79.1727L185.024 69.1349L191.78 69.809L191.62 71.4153L186.959 70.9503L186.712 73.4253L190.746 73.8277L190.587 75.4134L186.554 75.011L186.278 77.7824L191.014 78.2549L190.854 79.8544L184.022 79.1727ZM195.031 72.9602C194.956 73.7047 195.067 74.2195 195.364 74.5043C195.661 74.7846 196.182 74.9619 196.926 75.0362C197.455 75.0889 197.94 75.1141 198.381 75.1117C198.827 75.1052 199.282 75.0786 199.747 75.0321L199.59 76.604C198.929 76.668 198.362 76.6973 197.889 76.6919C197.416 76.6865 196.904 76.6563 196.352 76.6013C194.978 76.4641 194.031 76.0981 193.51 75.503C192.989 74.9033 192.785 74.0405 192.898 72.9145L193.193 69.95L195.31 70.1612L195.031 72.9602ZM201.239 70.7527L200.237 80.7905L198.121 80.5793L199.122 70.5415L201.239 70.7527ZM202.374 81.0037L203.376 70.9659L205.486 71.1764L205.081 75.2301L209.121 75.6332L209.525 71.5795L211.635 71.79L210.634 81.8278L208.524 81.6173L208.959 77.2533L204.919 76.8503L204.484 81.2142L202.374 81.0037ZM212.854 77.2938L212.916 76.6733C213.076 75.0693 213.616 73.8931 214.536 73.1447C215.46 72.3921 216.582 72.0816 217.901 72.2132C219.22 72.3448 220.261 72.8711 221.023 73.7919C221.786 74.7082 222.087 75.9683 221.927 77.5724L221.865 78.1928C221.705 79.7968 221.16 80.9749 220.231 81.727C219.303 82.4745 218.179 82.7825 216.86 82.6509C215.541 82.5193 214.502 81.9956 213.744 81.0798C212.991 80.1598 212.694 78.8978 212.854 77.2938ZM215.006 77.7104C214.903 78.7491 215.034 79.5444 215.402 80.0963C215.774 80.6487 216.314 80.9602 217.021 81.0308C217.734 81.1018 218.329 80.9036 218.807 80.4361C219.286 79.9686 219.577 79.2155 219.68 78.1768L219.781 77.1633C219.886 76.12 219.749 75.3243 219.372 74.7761C218.996 74.2232 218.451 73.9113 217.739 73.8402C217.031 73.7696 216.44 73.9683 215.966 74.4363C215.498 74.9001 215.211 75.6537 215.107 76.697L215.006 77.7104ZM226.684 78.6736L226.746 78.0532C226.906 76.4445 227.442 75.2655 228.352 74.5162C229.267 73.7673 230.389 73.4591 231.717 73.5916C232.981 73.7178 233.95 74.1486 234.624 74.8843C235.298 75.6154 235.584 76.4979 235.48 77.5321L235.463 77.7044L233.333 77.4919L233.353 77.2919C233.413 76.6899 233.294 76.2114 232.995 75.8567C232.696 75.4974 232.209 75.284 231.534 75.2166C230.849 75.1483 230.274 75.3299 229.808 75.7616C229.343 76.1887 229.057 76.9468 228.948 78.0361L228.839 79.1254C228.738 80.1365 228.867 80.9199 229.224 81.4754C229.583 82.0264 230.122 82.3379 230.844 82.4099C231.487 82.4741 231.985 82.3496 232.336 82.0366C232.693 81.724 232.915 81.282 233.005 80.7107L233.03 80.5322L235.16 80.7447L235.142 80.924C234.994 81.9397 234.529 82.7427 233.746 83.333C232.963 83.9233 231.939 84.1554 230.675 84.0293C229.338 83.8959 228.297 83.3696 227.554 82.4506C226.815 81.5275 226.525 80.2685 226.684 78.6736ZM236.252 84.3838L237.254 74.346L244.024 75.0214L243.863 76.6278L239.21 76.1635L238.979 78.4799L240.875 78.669C241.978 78.7791 242.799 79.1303 243.339 79.7226C243.878 80.3149 244.1 81.0936 244.004 82.0588C243.907 83.0239 243.536 83.7481 242.889 84.2313C242.242 84.7099 241.367 84.8942 240.264 84.7841L236.252 84.3838ZM238.821 80.0586L238.527 83.0093L240.23 83.1792C240.795 83.2356 241.217 83.1408 241.497 82.8949C241.777 82.6489 241.939 82.3031 241.984 81.8572C242.029 81.4068 241.938 81.038 241.711 80.7508C241.485 80.459 241.089 80.2849 240.524 80.2285L238.821 80.0586ZM245.173 85.2738L246.174 75.236L254.323 76.0491L253.322 86.0869L251.205 85.8757L252.047 77.4442L248.131 77.0535L247.289 85.485L245.173 85.2738Z" fill="#0D0711"/>
<path d="M160.738 108.313C160.738 108.313 165.638 115.875 170.898 116.597C176.158 117.318 182.912 111.354 182.912 111.354C182.912 111.354 176.215 116.541 175.516 121.635C174.818 126.729 179.872 133.528 179.872 133.528C179.872 133.528 175.174 124.864 169.864 124.136C164.554 123.408 157.698 130.488 157.698 130.488C157.698 130.488 163.946 125.286 164.651 120.145C165.356 115.005 160.738 108.313 160.738 108.313Z" fill="#0D0711"/>
<path d="M385 66.0972C385 66.0972 393.764 68.1912 398.069 65.0841C402.375 61.9771 403.149 53 403.149 53C403.149 53 401.879 61.3757 404.888 65.5454C407.897 69.7152 416.246 71.1493 416.246 71.1493C416.246 71.1493 406.869 68.1185 402.522 71.2549C398.176 74.3913 398.097 84.2465 398.097 84.2465C398.097 84.2465 399.031 76.1705 395.995 71.963C392.959 67.7555 385 66.0972 385 66.0972Z" fill="#0D0711"/>
<path d="M42.5566 13C42.5566 13 48.2661 19.9705 53.5741 20.1026C58.8821 20.2347 64.9312 13.5567 64.9312 13.5567C64.9312 13.5567 58.8515 19.456 58.7236 24.5965C58.5957 29.737 64.3745 35.9313 64.3745 35.9313C64.3745 35.9313 58.7429 27.8433 53.3848 27.71C48.0267 27.5767 41.9999 35.3746 41.9999 35.3746C41.9999 35.3746 47.631 29.5108 47.76 24.3237C47.8891 19.1366 42.5566 13 42.5566 13Z" fill="#0D0711"/>
<path d="M117.334 244.019C117.334 244.019 108.961 247.348 107.226 252.366C105.492 257.385 110.023 265.173 110.023 265.173C110.023 265.173 106.243 257.591 101.383 255.912C96.5234 254.232 88.869 257.862 88.869 257.862C88.869 257.862 98.2834 254.946 100.034 249.88C101.785 244.815 96.1804 236.708 96.1804 236.708C96.1804 236.708 100.062 243.851 104.966 245.546C109.87 247.241 117.334 244.019 117.334 244.019Z" fill="#0D0711"/>
<rect width="22.9159" height="39.0326" rx="11.4579" transform="matrix(-0.919741 0.392526 -0.392525 -0.919741 52.4531 86.28)" fill="#5296FF"/>
<path d="M31.3354 63.7052C30.9015 63.5308 30.4083 63.7413 30.234 64.1752L27.3929 71.2468C27.2186 71.6808 27.429 72.1739 27.863 72.3482C28.2969 72.5226 28.79 72.3121 28.9644 71.8782L31.4898 65.5923L37.7756 68.1177C38.2096 68.2921 38.7027 68.0816 38.877 67.6477C39.0514 67.2137 38.8409 66.7206 38.407 66.5462L31.3354 63.7052ZM38.7554 80.4594L31.7985 64.1585L30.2409 64.8233L37.1977 81.1241L38.7554 80.4594Z" fill="#0D0711"/>
<rect width="29.8513" height="50.8456" rx="14.9256" transform="matrix(0.564487 0.825442 -0.825441 0.564488 383.904 1.13647)" fill="#BEF318"/>
<path d="M360.431 33.8537C360.319 34.4524 360.713 35.0289 361.312 35.1413L371.069 36.9731C371.667 37.0855 372.244 36.6913 372.356 36.0926C372.469 35.4938 372.074 34.9173 371.476 34.8049L362.803 33.1766L364.431 24.5038C364.544 23.9051 364.149 23.3286 363.551 23.2161C362.952 23.1037 362.375 23.498 362.263 24.0967L360.431 33.8537ZM379.95 20.1143L360.893 33.1467L362.138 34.9677L381.195 21.9353L379.95 20.1143Z" fill="#0D0711"/>
<rect width="21.2874" height="36.2587" rx="10.6437" transform="matrix(-0.760544 -0.649286 0.649285 -0.760545 379.246 178.953)" fill="#BEF318"/>
<path d="M389.306 152.059C389.272 151.626 388.893 151.303 388.46 151.337L381.402 151.894C380.969 151.928 380.646 152.307 380.68 152.74C380.714 153.173 381.093 153.496 381.526 153.462L387.799 152.967L388.295 159.24C388.329 159.673 388.707 159.997 389.141 159.963C389.574 159.928 389.897 159.55 389.863 159.117L389.306 152.059ZM378.43 165.153L389.12 152.632L387.923 151.61L377.234 164.132L378.43 165.153Z" fill="#0D0711"/>
<ellipse cx="38.7987" cy="38.7987" rx="38.7987" ry="38.7987" transform="matrix(0.866025 0.500001 -0.499999 0.866026 348.799 205)" fill="#0D0711"/>
<mask id="path-19-inside-1_133_1874" fill="white">
<path d="M334.581 243.736C330.371 251.027 329.23 259.692 331.409 267.824C333.588 275.956 338.909 282.89 346.2 287.099C353.491 291.309 362.156 292.45 370.288 290.271C378.42 288.092 385.354 282.771 389.564 275.48L386.814 273.893C383.026 280.455 376.786 285.243 369.467 287.204C362.148 289.165 354.349 288.139 347.787 284.35C341.225 280.562 336.437 274.321 334.476 267.002C332.515 259.683 333.541 251.885 337.33 245.323L334.581 243.736Z"/>
</mask>
<path d="M334.581 243.736C330.371 251.027 329.23 259.692 331.409 267.824C333.588 275.956 338.909 282.89 346.2 287.099C353.491 291.309 362.156 292.45 370.288 290.271C378.42 288.092 385.354 282.771 389.564 275.48L386.814 273.893C383.026 280.455 376.786 285.243 369.467 287.204C362.148 289.165 354.349 288.139 347.787 284.35C341.225 280.562 336.437 274.321 334.476 267.002C332.515 259.683 333.541 251.885 337.33 245.323L334.581 243.736Z" stroke="#E97C18" stroke-width="3.7128" mask="url(#path-19-inside-1_133_1874)"/>
<g clip-path="url(#clip1_133_1874)">
<path d="M370.678 252.501L375.871 258.357L372.777 263.716L369.562 261.859L364.611 270.434C364.447 270.718 364.177 270.926 363.86 271.01C363.543 271.095 363.205 271.051 362.921 270.887L352.203 264.699C351.919 264.535 351.711 264.264 351.626 263.947C351.541 263.63 351.586 263.292 351.75 263.008L356.7 254.434L353.485 252.578L356.579 247.219L364.247 248.788C363.755 249.641 363.621 250.654 363.876 251.605C364.131 252.556 364.753 253.367 365.606 253.86C366.459 254.352 367.472 254.485 368.423 254.23C369.375 253.976 370.186 253.353 370.678 252.501Z" stroke="#E97C18" stroke-width="2.4752" stroke-linecap="round" stroke-linejoin="round"/>
<path d="M361.523 257.219L364.203 258.766L359.501 263.196" stroke="#E97C18" stroke-width="2.4752" stroke-linecap="round" stroke-linejoin="round"/>
</g>
<path d="M342.797 240.587C342.428 240.971 342.06 241.192 341.694 241.252C341.332 241.307 340.974 241.246 340.62 241.069C340.271 240.887 339.93 240.635 339.595 240.314L337.682 238.473C337.317 238.121 337.037 237.774 336.842 237.432C336.652 237.085 336.584 236.737 336.638 236.385C336.693 236.025 336.904 235.654 337.273 235.27C337.6 234.932 337.919 234.724 338.233 234.648C338.551 234.568 338.867 234.597 339.18 234.735C339.498 234.869 339.819 235.093 340.145 235.406L340.573 235.818L339.884 236.533L339.503 236.167C339.302 235.973 339.115 235.815 338.942 235.691C338.769 235.559 338.597 235.497 338.427 235.504C338.256 235.512 338.07 235.621 337.868 235.83C337.662 236.044 337.559 236.245 337.558 236.433C337.553 236.617 337.62 236.806 337.759 237.001C337.899 237.186 338.08 237.386 338.303 237.601L340.449 239.667C340.721 239.929 340.959 240.115 341.162 240.225C341.361 240.33 341.544 240.364 341.709 240.326C341.875 240.288 342.041 240.182 342.209 240.008C342.406 239.803 342.503 239.613 342.5 239.438C342.492 239.258 342.418 239.08 342.279 238.903C342.14 238.727 341.964 238.535 341.75 238.329L341.349 237.943L342.037 237.228L342.439 237.614C342.768 237.931 343.022 238.252 343.199 238.577C343.371 238.898 343.434 239.225 343.388 239.558C343.338 239.888 343.141 240.231 342.797 240.587Z" fill="white"/>
<path d="M344.485 238.757L340.043 232.691L343.382 230.245L347.825 236.311L346.979 236.93L342.981 231.472L341.333 232.678L345.332 238.137L344.485 238.757Z" fill="white"/>
<path d="M350.419 235.041C349.962 235.263 349.554 235.351 349.195 235.305C348.836 235.259 348.518 235.1 348.242 234.829C347.963 234.551 347.715 234.19 347.499 233.744L346.255 231.181C346.039 230.735 345.913 230.326 345.876 229.951C345.842 229.569 345.918 229.23 346.104 228.933C346.293 228.628 346.616 228.365 347.072 228.143C347.529 227.922 347.933 227.833 348.283 227.876C348.634 227.918 348.945 228.07 349.216 228.331C349.493 228.589 349.739 228.94 349.955 229.386L351.203 231.958C351.416 232.398 351.541 232.812 351.578 233.2C351.621 233.585 351.553 233.934 351.375 234.247C351.194 234.555 350.875 234.82 350.419 235.041ZM350.058 234.298C350.309 234.177 350.474 234.035 350.553 233.872C350.63 233.704 350.646 233.518 350.601 233.312C350.554 233.102 350.47 232.871 350.348 232.62L348.91 229.656C348.788 229.405 348.662 229.202 348.531 229.045C348.397 228.883 348.244 228.786 348.07 228.753C347.893 228.715 347.679 228.757 347.429 228.878C347.178 229 347.01 229.143 346.925 229.308C346.843 229.465 346.825 229.646 346.869 229.851C346.911 230.051 346.993 230.276 347.114 230.527L348.553 233.491C348.674 233.742 348.803 233.951 348.939 234.119C349.073 234.281 349.23 234.384 349.409 234.427C349.591 234.463 349.808 234.42 350.058 234.298Z" fill="white"/>
<path d="M352.919 233.819L350.774 226.613L352.563 226.081C352.996 225.952 353.363 225.929 353.666 226.014C353.973 226.09 354.23 226.259 354.437 226.52C354.644 226.782 354.81 227.123 354.935 227.544C355.048 227.923 355.078 228.273 355.024 228.592C354.977 228.91 354.846 229.184 354.631 229.416C354.414 229.642 354.11 229.814 353.718 229.93L352.926 230.166L353.925 233.52L352.919 233.819ZM352.712 229.445L353.175 229.307C353.465 229.221 353.684 229.12 353.83 229.006C353.977 228.891 354.062 228.743 354.086 228.562C354.107 228.374 354.074 228.133 353.986 227.836C353.883 227.492 353.778 227.236 353.67 227.068C353.568 226.898 353.426 226.802 353.245 226.778C353.063 226.755 352.804 226.793 352.466 226.894L351.994 227.034L352.712 229.445Z" fill="white"/>
<path d="M358.036 232.522L357.097 225.849L355.837 226.026L355.729 225.254L359.249 224.758L359.358 225.531L358.135 225.703L359.075 232.376L358.036 232.522Z" fill="white"/>
<path d="M360.859 232.142L360.956 224.624L361.884 224.636L361.817 229.843L364.084 224.664L364.836 224.674L364.739 232.192L363.82 232.18L363.888 226.89L361.639 232.152L360.859 232.142Z" fill="white"/>
<path d="M365.585 232.27L366.941 224.875L368.639 225.186C368.974 225.248 369.257 225.337 369.487 225.455C369.723 225.574 369.909 225.724 370.046 225.907C370.182 226.089 370.268 226.306 370.304 226.558C370.34 226.804 370.33 227.085 370.272 227.401C370.216 227.706 370.128 227.963 370.007 228.174C369.894 228.38 369.747 228.532 369.565 228.631C369.389 228.731 369.176 228.777 368.926 228.768C369.212 228.89 369.431 229.05 369.584 229.248C369.737 229.439 369.833 229.671 369.872 229.942C369.917 230.208 369.908 230.518 369.843 230.871C369.785 231.188 369.695 231.47 369.574 231.718C369.453 231.967 369.297 232.168 369.105 232.321C368.92 232.476 368.696 232.583 368.433 232.641C368.178 232.695 367.886 232.692 367.557 232.632L365.585 232.27ZM366.752 231.72L367.446 231.847C367.909 231.932 368.236 231.882 368.427 231.697C368.625 231.507 368.769 231.171 368.857 230.69C368.914 230.38 368.919 230.113 368.871 229.891C368.831 229.663 368.73 229.481 368.566 229.344C368.41 229.202 368.179 229.103 367.875 229.047L367.263 228.935L366.752 231.72ZM367.407 228.15L368.019 228.262C368.311 228.316 368.546 228.318 368.725 228.269C368.905 228.214 369.045 228.101 369.146 227.931C369.246 227.761 369.323 227.53 369.377 227.237C369.439 226.897 369.433 226.641 369.357 226.469C369.282 226.298 369.138 226.174 368.925 226.098C368.714 226.015 368.432 225.941 368.079 225.876L367.832 225.831L367.407 228.15Z" fill="white"/>
<path d="M370.216 233.182L372.867 226.146L373.848 226.516L372.703 229.556L374.51 230.237L375.655 227.197L376.637 227.567L373.986 234.602L373.005 234.233L374.245 230.941L372.438 230.26L371.198 233.552L370.216 233.182Z" fill="white"/>
<path d="M374.595 234.869L379.802 229.216L380.673 229.732L378.22 237.018L377.366 236.512L378.036 234.708L376.718 233.927L375.441 235.371L374.595 234.869ZM377.221 233.351L378.299 233.99L379.484 230.754L377.221 233.351Z" fill="white"/>
<path d="M378.425 237.13L381.81 235.565C381.65 235.236 381.602 234.876 381.666 234.484C381.738 234.091 381.947 233.689 382.294 233.278C382.554 232.97 382.84 232.746 383.153 232.605C383.47 232.46 383.819 232.43 384.199 232.517C384.58 232.603 384.992 232.834 385.437 233.209L386.601 234.19L381.753 239.937L380.951 239.261L382.962 236.877L382.508 236.494C382.499 236.486 382.468 236.46 382.416 236.416C382.368 236.367 382.339 236.339 382.33 236.331L379.319 237.884L378.425 237.13ZM383.149 236.051L383.447 236.302L385.314 234.088L384.995 233.819C384.635 233.516 384.298 233.365 383.981 233.365C383.67 233.37 383.363 233.551 383.06 233.911C382.716 234.318 382.544 234.69 382.542 235.029C382.54 235.367 382.742 235.708 383.149 236.051Z" fill="white"/>
<path d="M384.944 243.922C384.653 243.506 384.503 243.117 384.491 242.755C384.48 242.393 384.587 242.054 384.812 241.739C385.042 241.419 385.36 241.118 385.766 240.835L388.103 239.204C388.509 238.92 388.893 238.731 389.257 238.636C389.629 238.542 389.976 238.564 390.299 238.701C390.63 238.84 390.94 239.117 391.231 239.533C391.521 239.949 391.673 240.334 391.685 240.687C391.698 241.041 391.597 241.372 391.382 241.68C391.171 241.994 390.862 242.292 390.456 242.575L388.112 244.212C387.711 244.492 387.322 244.68 386.945 244.778C386.571 244.88 386.216 244.868 385.878 244.741C385.546 244.611 385.234 244.338 384.944 243.922ZM385.621 243.449C385.781 243.677 385.947 243.818 386.12 243.871C386.297 243.92 386.484 243.907 386.68 243.831C386.881 243.751 387.095 243.631 387.324 243.472L390.026 241.586C390.254 241.426 390.435 241.27 390.569 241.116C390.708 240.958 390.78 240.791 390.785 240.614C390.795 240.434 390.72 240.229 390.561 240.001C390.401 239.773 390.234 239.629 390.057 239.571C389.89 239.515 389.708 239.525 389.512 239.601C389.321 239.674 389.112 239.79 388.883 239.949L386.182 241.835C385.953 241.995 385.767 242.155 385.623 242.316C385.484 242.473 385.407 242.644 385.392 242.828C385.385 243.014 385.462 243.221 385.621 243.449Z" fill="white"/>
<path d="M385.129 246.293L387.056 245.419L387.198 245.732C387.32 245.792 387.458 245.842 387.612 245.881C387.768 245.925 387.954 245.946 388.17 245.943C388.395 245.944 388.666 245.912 388.984 245.85C389.308 245.784 389.701 245.678 390.163 245.529C390.628 245.386 391.18 245.187 391.819 244.931L393.897 244.121L395.197 246.987L389.034 249.781L389.333 250.441L387.405 251.315L387.072 250.579L388.28 249.94L386.739 246.541L385.462 247.029L385.129 246.293ZM387.6 246.62L388.605 248.834L394.057 246.362L393.555 245.255L391.977 245.889C391.359 246.142 390.829 246.338 390.389 246.476C389.957 246.618 389.591 246.716 389.289 246.771C388.997 246.829 388.746 246.854 388.539 246.846C388.34 246.842 388.168 246.814 388.023 246.764C387.88 246.72 387.74 246.672 387.6 246.62Z" fill="white"/>
<path d="M388.7 251.216L395.966 249.283L396.715 252.1L395.962 252.3L395.482 250.497L393.078 251.137L393.467 252.599L392.749 252.79L392.36 251.328L389.696 252.037L390.181 253.858L389.454 254.051L388.7 251.216Z" fill="white"/>
<path d="M389.607 254.163L393.59 255.56L397.112 253.67L397.202 254.678L393.712 256.406L393.717 256.461L397.332 256.139L397.411 257.026L393.796 257.349L393.802 257.414L397.541 258.487L397.632 259.504L393.831 258.259L390.159 260.348L390.068 259.322L393.673 257.435L393.667 257.361L389.922 257.695L389.843 256.807L393.588 256.473L393.582 256.408L389.698 255.18L389.607 254.163Z" fill="white"/>
<path d="M388.777 259.806L390.88 260.041L390.842 260.383C390.916 260.497 391.01 260.61 391.122 260.722C391.233 260.841 391.382 260.954 391.569 261.062C391.762 261.177 392.011 261.289 392.316 261.398C392.628 261.507 393.02 261.617 393.494 261.726C393.967 261.841 394.542 261.952 395.222 262.059L397.422 262.427L397.072 265.554L390.347 264.801L390.267 265.521L388.164 265.285L388.254 264.483L389.619 264.552L390.034 260.843L388.687 260.609L388.777 259.806ZM390.734 261.351L390.463 263.768L396.413 264.434L396.548 263.226L394.868 262.963C394.207 262.864 393.652 262.761 393.203 262.655C392.759 262.556 392.394 262.453 392.107 262.346C391.826 262.246 391.598 262.139 391.424 262.026C391.255 261.92 391.121 261.809 391.022 261.692C390.923 261.581 390.826 261.468 390.734 261.351Z" fill="white"/>
<path d="M389.47 265.48L396.208 269.179L395.916 270.147L388.254 269.515L388.54 268.564L390.452 268.782L390.894 267.315L389.186 266.422L389.47 265.48ZM391.574 267.666L391.212 268.865L394.638 269.239L391.574 267.666Z" fill="white"/>
<rect x="194.934" y="313.242" width="25.9629" height="44.2225" rx="12.9814" fill="#BEF318"/>
<path d="M206.898 346.157C207.272 346.531 207.88 346.531 208.255 346.157L214.36 340.051C214.735 339.677 214.735 339.069 214.36 338.695C213.985 338.32 213.378 338.32 213.003 338.695L207.576 344.122L202.149 338.695C201.775 338.32 201.167 338.32 200.792 338.695C200.418 339.069 200.418 339.677 200.792 340.051L206.898 346.157ZM206.617 325.398L206.617 345.478L208.536 345.478L208.536 325.398L206.617 325.398Z" fill="#0D0711"/>
<path d="M131.426 241.341C131.191 239.761 132.281 238.29 133.861 238.056L299.425 213.533C301.004 213.299 302.473 214.388 302.708 215.967L304.452 227.689C304.687 229.269 303.596 230.74 302.016 230.974L136.452 255.498C134.874 255.731 133.404 254.642 133.17 253.064L131.426 241.341Z" fill="#C11C3A"/>
<path d="M152.62 248.365L154.054 240.855L155.975 240.569L159.578 247.33L157.736 247.604L155.394 242.913C155.335 242.802 155.282 242.695 155.237 242.592C155.195 242.488 155.154 242.382 155.115 242.275L155.076 242.281C155.069 242.395 155.06 242.508 155.046 242.62C155.036 242.731 155.02 242.848 154.999 242.972L154.129 248.14L152.62 248.365ZM153.797 246.642L154.016 245.395L157.202 244.921L157.774 246.05L153.797 246.642ZM164.557 246.589L161.738 243.622L162.749 242.358L166.687 246.272L164.557 246.589ZM160.53 242.823L161.757 242.64L163.625 239.456L165.375 239.195L162.616 243.746L160.71 244.03L160.53 242.823ZM160.267 247.227L159.208 240.113L160.918 239.858L161.977 246.973L160.267 247.227ZM166.428 246.311L167.863 238.8L169.783 238.515L173.386 245.275L171.544 245.549L169.203 240.858C169.143 240.747 169.091 240.64 169.045 240.537C169.003 240.434 168.963 240.328 168.923 240.221L168.884 240.227C168.878 240.341 168.868 240.454 168.855 240.566C168.845 240.677 168.829 240.794 168.807 240.917L167.938 246.086L166.428 246.311ZM167.605 244.587L167.824 243.341L171.01 242.867L171.583 243.995L167.605 244.587ZM179.676 245.788L179.465 244.371L174.945 245.043L175.156 246.46L173.558 246.698L173.168 244.079L180.879 242.932L181.268 245.551L179.676 245.788ZM173.686 237.959L179.09 237.155L180.149 244.269L178.443 244.523L177.564 238.611L175.179 238.965L175.452 241.637C175.522 242.355 175.535 242.911 175.49 243.304C175.446 243.697 175.349 244.043 175.2 244.341L173.685 244.567C173.877 244.202 174.005 243.827 174.067 243.441C174.13 243.055 174.123 242.485 174.048 241.731L173.686 237.959ZM181.962 244L180.903 236.885L186.053 236.119L186.232 237.321L182.782 237.834L183.028 239.486L186.019 239.041L186.196 240.233L183.205 240.678L183.483 242.545L186.987 242.023L187.165 243.225L181.962 244ZM188.275 243.06L187.216 235.946L189.381 235.624L191.481 239.736C191.537 239.845 191.589 239.948 191.637 240.048C191.685 240.147 191.73 240.26 191.773 240.387L191.807 240.382C191.813 240.248 191.824 240.127 191.838 240.018C191.855 239.909 191.873 239.795 191.891 239.675L192.664 235.135L194.907 234.802L195.966 241.916L194.265 242.169L193.607 237.747C193.59 237.63 193.572 237.501 193.555 237.36C193.54 237.219 193.532 237.092 193.528 236.98L193.479 236.987C193.473 237.101 193.462 237.231 193.447 237.376C193.436 237.521 193.42 237.655 193.402 237.778L192.594 242.418L191.241 242.619L189.095 238.403C189.039 238.295 188.984 238.173 188.931 238.038C188.881 237.903 188.839 237.779 188.806 237.667L188.757 237.675C188.784 237.787 188.811 237.913 188.838 238.052C188.869 238.191 188.892 238.317 188.909 238.431L189.569 242.868L188.275 243.06ZM203.872 240.74L202.161 240.994L201.527 236.734C201.512 236.629 201.496 236.512 201.48 236.381C201.467 236.246 201.455 236.125 201.446 236.016L201.397 236.024C201.369 236.128 201.333 236.235 201.29 236.344C201.249 236.454 201.207 236.57 201.162 236.693L199.362 241.411L197.529 241.683L196.471 234.569L198.176 234.315L198.8 238.508C198.815 238.612 198.832 238.748 198.85 238.915C198.871 239.078 198.887 239.214 198.896 239.323L198.945 239.315C198.971 239.222 199.006 239.108 199.049 238.975C199.095 238.838 199.141 238.71 199.187 238.59L200.976 233.899L202.813 233.626L203.872 240.74ZM210.805 239.708L209.1 239.962L208.73 237.475L207.191 237.704L206.86 237.598C206.137 237.613 205.568 237.453 205.156 237.118C204.746 236.779 204.497 236.317 204.41 235.73C204.305 235.027 204.471 234.433 204.909 233.948C205.346 233.46 206.022 233.148 206.937 233.012L209.747 232.594L210.805 239.708ZM208.554 236.292L208.218 234.035L207.182 234.189C206.723 234.257 206.418 234.409 206.266 234.645C206.118 234.88 206.068 235.159 206.116 235.482C206.164 235.807 206.295 236.068 206.507 236.262C206.722 236.454 207.059 236.515 207.518 236.447L208.554 236.292ZM206.808 240.303L204.956 240.579L206.225 237.054L208.038 236.784L206.808 240.303ZM214.055 239.225L215.895 234.876L216.286 234.818L217.594 231.426L219.207 231.187L217.504 235.386L217.108 235.444L215.701 238.98L214.055 239.225ZM213.104 232.095L215.093 231.804L217.354 234.649L217.379 234.645L220.436 238.276L218.423 238.575L216.053 235.636L216.038 235.639L213.104 232.095ZM220.372 238.285L221.807 230.775L223.728 230.489L227.331 237.25L225.488 237.524L223.147 232.833C223.088 232.722 223.035 232.615 222.99 232.512C222.948 232.408 222.907 232.303 222.868 232.195L222.829 232.201C222.822 232.315 222.812 232.428 222.799 232.54C222.789 232.651 222.773 232.769 222.752 232.892L221.882 238.06L220.372 238.285ZM221.549 236.562L221.769 235.315L224.954 234.841L225.527 235.97L221.549 236.562ZM227.247 233.836L227.186 233.426C227.019 232.302 227.21 231.391 227.759 230.693C228.31 229.992 229.083 229.567 230.076 229.42C231.053 229.274 231.848 229.399 232.459 229.794C233.074 230.186 233.456 230.755 233.607 231.501L233.621 231.594L231.882 231.853L231.861 231.746C231.791 231.37 231.623 231.077 231.355 230.868C231.087 230.654 230.719 230.583 230.25 230.652C229.761 230.725 229.393 230.968 229.144 231.381C228.896 231.791 228.824 232.353 228.931 233.066L229.021 233.672C229.126 234.382 229.356 234.899 229.711 235.223C230.065 235.546 230.493 235.671 230.995 235.596C231.464 235.526 231.794 235.347 231.984 235.059C232.178 234.771 232.254 234.443 232.212 234.076L232.197 233.974L233.937 233.715L233.952 233.817C234.033 234.565 233.834 235.217 233.354 235.774C232.878 236.331 232.152 236.682 231.178 236.827C230.181 236.976 229.319 236.794 228.59 236.283C227.862 235.772 227.414 234.957 227.247 233.836ZM239.727 235.406L236.908 232.439L237.919 231.175L241.857 235.089L239.727 235.406ZM235.701 231.639L236.927 231.457L238.796 228.272L240.545 228.012L237.786 232.563L235.88 232.846L235.701 231.639ZM235.437 236.044L234.378 228.929L236.089 228.675L237.147 235.789L235.437 236.044ZM248.815 234.053L247.105 234.308L246.471 230.047C246.456 229.943 246.44 229.825 246.424 229.695C246.41 229.56 246.399 229.438 246.39 229.33L246.341 229.337C246.313 229.441 246.277 229.548 246.234 229.658C246.193 229.767 246.151 229.883 246.106 230.007L244.305 234.724L242.473 234.997L241.415 227.883L243.12 227.629L243.744 231.821C243.759 231.926 243.776 232.061 243.794 232.228C243.815 232.392 243.83 232.528 243.84 232.636L243.889 232.629C243.915 232.535 243.949 232.422 243.993 232.289C244.039 232.152 244.085 232.024 244.13 231.904L245.92 227.212L247.757 226.939L248.815 234.053Z" fill="white"/>
<path d="M146.052 245.817C146.289 245.496 146.222 245.044 145.901 244.806L140.676 240.934C140.355 240.696 139.902 240.764 139.665 241.084C139.427 241.405 139.495 241.858 139.815 242.095L144.46 245.537L141.018 250.182C140.781 250.503 140.848 250.955 141.169 251.193C141.489 251.431 141.942 251.363 142.18 251.043L146.052 245.817ZM135.856 247.548L145.577 246.101L145.365 244.672L135.644 246.118L135.856 247.548Z" fill="white"/>
<path d="M269.659 227.683C269.897 227.362 269.829 226.909 269.509 226.672L264.283 222.8C263.962 222.562 263.51 222.629 263.272 222.95C263.035 223.271 263.102 223.723 263.423 223.961L268.068 227.403L264.626 232.048C264.388 232.368 264.456 232.821 264.776 233.059C265.097 233.296 265.549 233.229 265.787 232.908L269.659 227.683ZM259.464 229.413L269.185 227.967L268.972 226.538L259.251 227.984L259.464 229.413Z" fill="white"/>
<path d="M283.384 225.641C283.621 225.32 283.554 224.867 283.233 224.63L278.008 220.758C277.687 220.52 277.235 220.587 276.997 220.908C276.759 221.229 276.827 221.681 277.147 221.919L281.792 225.361L278.35 230.006C278.113 230.327 278.18 230.779 278.501 231.017C278.821 231.254 279.274 231.187 279.512 230.866L283.384 225.641ZM273.188 227.372L282.91 225.925L282.697 224.496L272.976 225.942L273.188 227.372Z" fill="white"/>
<path d="M297.108 223.599C297.346 223.278 297.279 222.826 296.958 222.588L291.732 218.716C291.412 218.478 290.959 218.546 290.722 218.866C290.484 219.187 290.551 219.64 290.872 219.877L295.517 223.319L292.075 227.964C291.837 228.285 291.905 228.737 292.225 228.975C292.546 229.213 292.999 229.145 293.236 228.825L297.108 223.599ZM286.913 225.33L296.634 223.884L296.421 222.454L286.7 223.9L286.913 225.33Z" fill="white"/>
<rect x="219.58" y="275" width="200.537" height="28.8948" rx="5.44607" transform="rotate(9.1208 219.58 275)" fill="#BEF318"/>
<path d="M225.269 296.116L222.015 290.314L223.96 289.178L228.215 296.589L225.269 296.116ZM220.708 288.554L222.495 288.841L227.032 284.943L229.578 285.352L223.079 290.792L220.417 290.364L220.708 288.554ZM218.343 295.004L220.136 283.836L222.506 284.216L220.713 295.385L218.343 295.004ZM229.036 296.721L230.829 285.552L235.109 286.24C236.397 286.446 237.339 286.92 237.934 287.661C238.529 288.396 238.733 289.345 238.547 290.505C238.361 291.661 237.87 292.503 237.072 293.03C236.279 293.554 235.234 293.711 233.935 293.502L232.033 293.197L231.406 297.101L229.036 296.721ZM232.315 291.44L233.987 291.709C234.698 291.823 235.218 291.736 235.547 291.448C235.878 291.155 236.09 290.717 236.183 290.134C236.277 289.551 236.212 289.074 235.988 288.702C235.765 288.33 235.297 288.087 234.587 287.973L232.914 287.705L232.315 291.44ZM239.227 296.414C239.359 296.477 239.507 296.535 239.671 296.587C239.841 296.641 240.008 296.681 240.172 296.707C240.601 296.776 240.973 296.749 241.286 296.626C241.6 296.503 241.923 296.222 242.256 295.783L242.212 295.807L239.512 286.946L241.974 287.342L243.427 292.556C243.527 292.913 243.582 293.173 243.592 293.338C243.603 293.502 243.633 293.69 243.683 293.903L243.729 293.91C243.831 293.727 243.915 293.563 243.981 293.416C244.053 293.265 244.184 293.034 244.375 292.724L247.205 288.182L249.407 288.535L244.527 296.092C243.787 297.238 243.098 298 242.46 298.38C241.827 298.761 241.073 298.882 240.199 298.741C239.867 298.688 239.605 298.633 239.415 298.576C239.229 298.525 239.061 298.462 238.911 298.385L239.227 296.414ZM249.317 290.37L249.606 288.567L258.589 290.009L258.299 291.812L254.993 291.281L253.49 300.647L251.119 300.266L252.623 290.9L249.317 290.37ZM256.75 301.17L262.763 290.624L265.263 291.026L267.734 302.934L265.203 302.527L263.622 294.193C263.588 294.009 263.564 293.835 263.548 293.67C263.538 293.505 263.53 293.341 263.525 293.178L263.464 293.168C263.413 293.322 263.354 293.476 263.288 293.628C263.226 293.78 263.151 293.936 263.063 294.095L258.959 301.525L256.75 301.17ZM259.537 299.1L260.354 297.445L265.293 298.238L265.558 300.067L259.537 299.1ZM276.663 304.367L274.293 303.987L274.944 299.929L272.374 299.516L271.965 299.223C271.064 298.952 270.417 298.473 270.024 297.786C269.631 297.098 269.507 296.305 269.651 295.405C269.826 294.315 270.317 293.513 271.123 292.997C271.931 292.476 272.984 292.32 274.283 292.529L278.456 293.199L276.663 304.367ZM275.221 298.203L275.804 294.575L274.2 294.317C273.49 294.203 272.967 294.287 272.633 294.569C272.305 294.852 272.098 295.26 272.012 295.792C271.925 296.334 271.992 296.801 272.212 297.193C272.439 297.581 272.907 297.832 273.618 297.946L275.221 298.203ZM270.511 303.38L267.995 302.976L271.615 298.269L274.031 298.657L270.511 303.38ZM289.764 306.471L286.51 300.668L288.455 299.533L292.71 306.944L289.764 306.471ZM285.203 298.909L286.99 299.196L291.527 295.297L294.073 295.706L287.574 301.146L284.912 300.719L285.203 298.909ZM282.838 305.359L284.631 294.19L287.001 294.571L285.208 305.739L282.838 305.359ZM293.957 301.77L294.068 301.079C294.355 299.295 295.035 298.014 296.109 297.237C297.19 296.456 298.461 296.182 299.923 296.417C301.386 296.652 302.51 297.31 303.297 298.391C304.089 299.467 304.342 300.898 304.056 302.683L303.945 303.373C303.658 305.158 302.97 306.44 301.879 307.22C300.795 307.995 299.521 308.265 298.059 308.031C296.596 307.796 295.474 307.141 294.692 306.066C293.916 304.986 293.671 303.554 293.957 301.77ZM296.342 302.404C296.157 303.555 296.25 304.448 296.62 305.085C296.996 305.717 297.572 306.095 298.35 306.22C299.132 306.346 299.801 306.167 300.355 305.685C300.916 305.198 301.289 304.379 301.474 303.228L301.662 302.055C301.848 300.899 301.75 300.005 301.369 299.372C300.994 298.734 300.415 298.353 299.633 298.227C298.855 298.103 298.189 298.284 297.633 298.772C297.084 299.255 296.716 300.075 296.53 301.231L296.342 302.404ZM308.149 297.966L315.988 299.224L314.195 310.393L311.825 310.012L313.329 300.647L309.8 300.08L308.677 305.266C308.368 306.664 307.937 307.702 307.382 308.379C306.833 309.056 306.003 309.306 304.894 309.128C304.74 309.103 304.578 309.067 304.408 309.018C304.241 308.976 304.078 308.916 303.917 308.837L304.234 306.866C304.345 306.926 304.448 306.971 304.542 307.002C304.638 307.028 304.739 307.049 304.847 307.067C305.343 307.146 305.723 307.003 305.986 306.636C306.249 306.269 306.49 305.586 306.708 304.588L308.149 297.966ZM319.655 299.813L327.494 301.072L325.701 312.24L323.331 311.86L324.835 302.494L321.306 301.927L320.183 307.113C319.874 308.511 319.443 309.549 318.888 310.226C318.339 310.903 317.509 311.153 316.4 310.975C316.246 310.95 316.084 310.914 315.914 310.866C315.747 310.823 315.584 310.763 315.423 310.685L315.74 308.713C315.851 308.773 315.954 308.818 316.048 308.849C316.144 308.875 316.245 308.897 316.353 308.914C316.849 308.994 317.229 308.85 317.492 308.483C317.756 308.116 317.996 307.434 318.214 306.435L319.655 299.813ZM326.66 312.394L332.673 301.848L335.174 302.25L337.645 314.158L335.113 313.751L333.532 305.417C333.499 305.233 333.474 305.059 333.459 304.893C333.449 304.729 333.441 304.565 333.436 304.402L333.374 304.392C333.323 304.546 333.264 304.7 333.198 304.852C333.137 305.004 333.062 305.16 332.974 305.319L328.869 312.749L326.66 312.394ZM329.448 310.324L330.264 308.669L335.204 309.462L335.469 311.291L329.448 310.324ZM338.604 314.312L340.397 303.143L347.922 304.351L347.632 306.154L342.477 305.326L342.066 307.888L344.16 308.224C345.393 308.422 346.288 308.87 346.848 309.569C347.407 310.267 347.601 311.153 347.428 312.227C347.256 313.301 346.791 314.087 346.035 314.584C345.284 315.077 344.295 315.225 343.068 315.028L338.604 314.312ZM341.784 309.645L341.257 312.928L343.129 313.228C343.758 313.329 344.234 313.251 344.559 312.994C344.884 312.736 345.086 312.36 345.165 311.864C345.246 311.363 345.171 310.944 344.942 310.608C344.713 310.267 344.285 310.046 343.656 309.945L341.784 309.645ZM348.926 310.595L349.036 309.904C349.323 308.12 350.003 306.839 351.078 306.062C352.158 305.28 353.429 305.007 354.892 305.242C356.354 305.477 357.479 306.135 358.265 307.216C359.057 308.292 359.31 309.723 359.024 311.508L358.913 312.198C358.626 313.983 357.938 315.265 356.847 316.045C355.763 316.82 354.49 317.09 353.027 316.855C351.564 316.621 350.442 315.966 349.66 314.891C348.884 313.811 348.639 312.379 348.926 310.595ZM351.31 311.229C351.125 312.38 351.218 313.273 351.588 313.91C351.964 314.542 352.54 314.92 353.318 315.045C354.1 315.171 354.769 314.992 355.324 314.51C355.884 314.023 356.257 313.204 356.442 312.053L356.63 310.88C356.816 309.724 356.718 308.83 356.337 308.197C355.962 307.559 355.383 307.178 354.601 307.052C353.824 306.928 353.157 307.109 352.601 307.597C352.052 308.08 351.684 308.9 351.499 310.056L351.31 311.229ZM359.989 317.745L361.782 306.577L366.063 307.264C367.351 307.471 368.293 307.944 368.887 308.685C369.483 309.421 369.687 310.369 369.501 311.53C369.315 312.685 368.823 313.527 368.025 314.055C367.233 314.578 366.188 314.735 364.889 314.527L362.986 314.221L362.36 318.126L359.989 317.745ZM363.268 312.465L364.941 312.733C365.651 312.847 366.172 312.76 366.501 312.472C366.831 312.179 367.043 311.741 367.137 311.158C367.231 310.575 367.166 310.098 366.942 309.726C366.718 309.354 366.251 309.112 365.54 308.997L363.868 308.729L363.268 312.465ZM368.45 319.103L374.463 308.557L376.964 308.959L379.435 320.867L376.903 320.461L375.322 312.126C375.289 311.942 375.264 311.768 375.249 311.603C375.238 311.438 375.231 311.274 375.225 311.111L375.164 311.101C375.113 311.256 375.054 311.409 374.988 311.561C374.927 311.714 374.852 311.869 374.763 312.028L370.659 319.458L368.45 319.103ZM371.237 317.033L372.054 315.378L376.994 316.171L377.259 318L371.237 317.033ZM388.236 324.562L388.593 322.337L380.393 321.021L382.186 309.852L384.557 310.233L383.053 319.599L387.356 320.29L388.86 310.924L391.23 311.304L389.727 320.67L391.1 320.891L390.453 324.918L388.236 324.562ZM401.403 324.394L399.033 324.013L400.119 317.248C400.148 317.069 400.18 316.869 400.215 316.65C400.256 316.43 400.293 316.232 400.327 316.054L400.273 316.045C400.163 316.206 400.054 316.361 399.946 316.512C399.838 316.662 399.72 316.827 399.592 317.006L394.699 323.318L392.13 322.905L393.923 311.737L396.293 312.117L395.207 318.883C395.178 319.062 395.143 319.263 395.102 319.487C395.066 319.707 395.032 319.904 394.999 320.077L395.061 320.087C395.15 319.954 395.253 319.803 395.369 319.633C395.486 319.463 395.608 319.293 395.734 319.125L400.627 312.813L403.196 313.225L401.403 324.394ZM411.713 326.049L409.343 325.669L409.994 321.611L407.424 321.198L407.015 320.904C406.114 320.634 405.467 320.155 405.074 319.468C404.681 318.78 404.557 317.986 404.701 317.086C404.876 315.997 405.367 315.195 406.173 314.679C406.981 314.158 408.034 314.002 409.333 314.211L413.506 314.881L411.713 326.049ZM410.271 319.885L410.854 316.257L409.25 315.999C408.54 315.885 408.017 315.969 407.683 316.251C407.355 316.534 407.148 316.942 407.062 317.473C406.975 318.015 407.042 318.483 407.262 318.875C407.489 319.262 407.957 319.513 408.668 319.627L410.271 319.885ZM405.561 325.061L403.045 324.657L406.665 319.951L409.081 320.339L405.561 325.061Z" fill="black"/>
<rect x="90.6406" y="45.2938" width="15.8193" height="26.9449" rx="7.90964" transform="rotate(-105 90.6406 45.2938)" fill="#C11C3A"/>
<path d="M108.125 33.0619C108.286 32.7823 108.19 32.4248 107.911 32.2633L103.355 29.6329C103.075 29.4715 102.718 29.5673 102.556 29.8469C102.395 30.1264 102.491 30.4839 102.77 30.6454L106.82 32.9835L104.482 37.0334C104.321 37.313 104.416 37.6705 104.696 37.8319C104.975 37.9933 105.333 37.8975 105.494 37.6179L108.125 33.0619ZM95.9521 36.5008L107.77 33.3342L107.467 32.205L95.6495 35.3715L95.9521 36.5008Z" fill="white"/>
<path d="M283.027 124.272C283.027 124.354 283.109 124.435 283.109 124.681V190.093C283.109 191.074 282.7 191.892 282.128 192.628C281.392 193.364 280.493 193.773 279.593 193.773C278.612 193.773 277.713 193.364 277.058 192.628C276.404 191.974 275.995 191.156 275.995 190.093V124.026C275.995 121.982 275.26 120.183 273.788 118.793C272.234 117.403 270.435 116.749 268.555 116.749C266.592 116.749 264.875 117.403 263.322 118.793C261.85 120.265 261.114 121.982 261.114 124.026V142.342C261.114 143.323 260.787 144.223 260.133 144.877C259.397 145.613 258.579 146.021 257.598 146.021C256.617 146.021 255.799 145.613 255.063 144.877C254.328 144.223 254.001 143.405 254.001 142.342V124.026C254.001 122.064 253.265 120.347 251.875 118.793C250.321 117.403 248.522 116.749 246.642 116.749C244.761 116.749 243.044 117.403 241.409 118.793C239.855 120.183 239.119 121.901 239.119 124.026V142.342C239.119 143.323 238.792 144.223 238.138 144.877C237.402 145.613 236.584 146.021 235.603 146.021C234.622 146.021 233.804 145.613 233.069 144.877C232.333 144.223 231.924 143.405 231.924 142.342V124.026C231.924 120.02 233.396 116.668 236.257 113.724C239.119 110.944 242.553 109.472 246.56 109.472C251.057 109.472 254.736 111.189 257.598 114.46C260.378 111.107 264.058 109.472 268.555 109.472C272.561 109.472 275.995 110.944 278.857 113.724C281.719 116.586 283.191 120.02 283.191 124.026C283.109 124.108 283.027 124.272 283.027 124.272Z" fill="#0D0711"/>
<path d="M326.935 142.097C326.935 143.16 326.608 144.059 325.954 144.713C325.3 145.367 324.4 145.694 323.337 145.694C322.683 145.694 321.947 145.367 321.048 144.713C320.23 143.895 319.821 142.996 319.821 142.097C316.796 144.55 313.198 145.694 309.11 145.694C303.959 145.694 299.625 143.977 296.109 140.625C292.512 137.191 290.713 132.939 290.713 127.869C290.713 122.8 292.512 118.466 296.109 114.869C299.707 111.271 304.041 109.472 309.11 109.472C314.18 109.472 318.431 111.271 321.866 114.869C325.218 118.385 326.935 122.718 326.935 127.869V142.097ZM309.028 138.581C312.054 138.581 314.67 137.518 316.714 135.474C318.759 133.429 319.74 130.895 319.74 127.869C319.74 124.762 318.759 122.146 316.714 119.938C314.67 117.73 312.054 116.586 309.028 116.586C306.003 116.586 303.305 117.73 301.097 119.938C298.889 122.146 297.745 124.762 297.745 127.869C297.745 130.895 298.889 133.429 301.097 135.474C303.223 137.518 305.84 138.581 309.028 138.581Z" fill="#0D0711"/>
<path d="M341.573 142.178C341.573 143.078 341.246 143.895 340.591 144.713C339.856 145.449 339.038 145.776 338.057 145.776C337.075 145.776 336.176 145.449 335.522 144.713C334.786 143.977 334.459 143.16 334.459 142.178V127.624C334.459 122.555 336.258 118.303 339.856 114.705C343.371 111.189 347.705 109.39 352.693 109.39C353.592 109.39 354.492 109.717 355.309 110.372C355.963 111.189 356.29 112.007 356.29 112.906C356.29 113.806 355.963 114.623 355.309 115.441C354.573 116.177 353.674 116.504 352.693 116.504C349.667 116.504 347.051 117.567 344.925 119.693C342.717 121.901 341.654 124.517 341.654 127.542V142.178H341.573Z" fill="#0D0711"/>
<path d="M268.227 208.245C268.227 209.144 267.9 209.962 267.246 210.78C266.428 211.434 265.529 211.761 264.63 211.761C263.73 211.761 262.912 211.434 262.095 210.78C261.441 209.962 261.114 209.144 261.114 208.245V190.175C257.843 192.628 254.164 193.854 250.075 193.854C245.006 193.854 240.672 192.055 237.156 188.539C233.559 185.024 231.76 180.772 231.76 175.702C231.76 170.633 233.559 166.381 237.075 162.865C240.672 159.267 244.924 157.469 249.993 157.469C254.981 157.469 259.233 159.267 262.831 162.865C266.428 166.463 268.227 170.715 268.227 175.702V208.245ZM261.032 175.702C261.032 172.759 259.969 170.142 257.843 167.853C255.554 165.727 252.937 164.664 249.993 164.664C246.968 164.664 244.352 165.727 242.226 167.935C240.018 170.142 238.955 172.677 238.955 175.702C238.955 178.728 240.018 181.344 242.226 183.47C244.352 185.678 246.968 186.741 249.993 186.741C252.937 186.741 255.554 185.678 257.843 183.552C259.969 181.262 261.032 178.646 261.032 175.702Z" fill="#0D0711"/>
<path d="M297.172 178.891C297.908 181.099 299.298 182.898 301.179 184.288C303.141 185.678 305.349 186.413 307.638 186.413C308.538 186.413 309.028 186.413 309.11 186.332L309.682 186.25L310.255 186.168L310.664 186.086L310.991 186.005C312.462 185.678 314.098 185.023 315.733 183.96C316.551 183.388 317.45 183.388 318.431 183.715C319.413 184.124 320.148 184.696 320.557 185.596C321.457 187.395 320.884 188.948 318.84 190.42C316.387 191.81 314.261 192.709 312.462 193.2L311.972 193.282L311.4 193.364L310.664 193.445L309.846 193.527L308.783 193.609H307.72C302.651 193.609 298.399 191.81 294.801 188.212C291.285 184.696 289.486 180.363 289.486 175.375C289.486 170.306 291.285 165.972 294.801 162.456C298.317 158.94 302.651 157.141 307.72 157.141C312.626 157.141 316.714 158.695 320.148 161.802C323.991 165.318 325.954 169.815 325.954 175.375C325.954 176.275 325.627 177.092 324.973 177.91C324.155 178.564 323.256 178.891 322.356 178.891H297.172ZM318.186 171.777C317.45 169.324 316.06 167.526 314.016 166.217C312.217 164.991 310.091 164.418 307.72 164.418C305.431 164.418 303.223 165.154 301.261 166.544C299.38 167.934 298.072 169.651 297.254 171.859H318.186V171.777Z" fill="#0D0711"/>
<path d="M338.218 184.287C339.035 185.759 340.262 186.495 341.815 186.495C342.797 186.495 343.696 186.168 344.432 185.432C345.168 184.696 345.495 183.797 345.495 182.734C345.495 181.753 345.168 180.853 344.432 180.117C343.696 179.382 342.797 179.054 341.815 179.054C338.79 179.054 336.255 177.992 334.13 175.866C332.004 173.821 330.941 171.287 330.941 168.18C330.941 165.154 332.004 162.62 334.13 160.494C336.255 158.368 338.79 157.305 341.815 157.305C344.35 157.305 346.64 158.041 348.684 159.594C350.728 161.148 351.873 162.947 352.281 164.909C352.445 165.481 352.281 166.381 351.791 167.689C351.3 168.425 350.564 168.997 349.501 169.243C347.457 169.651 345.986 168.752 345.25 166.544C344.759 165.236 343.614 164.582 341.815 164.582C340.834 164.582 339.935 164.909 339.199 165.645C338.463 166.381 338.136 167.28 338.136 168.261C338.136 169.243 338.463 170.142 339.199 170.878C339.935 171.614 340.834 171.941 341.815 171.941C344.841 171.941 347.376 173.004 349.501 175.13C351.627 177.256 352.69 179.79 352.69 182.816C352.69 185.759 351.627 188.294 349.501 190.583C347.376 192.709 344.841 193.772 341.815 193.772C339.363 193.772 337.073 192.955 335.029 191.401C333.148 189.929 331.84 188.13 331.104 185.923C330.777 185.023 330.941 184.124 331.513 183.225C332.167 182.325 332.903 181.834 333.802 181.589C335.601 181.099 336.991 181.998 338.218 184.287Z" fill="#0D0711"/>
<g clip-path="url(#clip2_133_1874)">
<path d="M98.5759 204.152C125.956 204.152 148.152 181.956 148.152 154.576C148.152 127.196 125.956 105 98.5759 105C71.1959 105 49 127.196 49 154.576C49 181.956 71.1959 204.152 98.5759 204.152Z" fill="white"/>
<path d="M98.576 202.33C124.95 202.33 146.33 180.95 146.33 154.576C146.33 128.202 124.95 106.822 98.576 106.822C72.2023 106.822 50.8223 128.202 50.8223 154.576C50.8223 180.95 72.2023 202.33 98.576 202.33Z" fill="#DC2F34"/>
<path d="M98.576 199.754C123.527 199.754 143.754 179.527 143.754 154.576C143.754 129.625 123.527 109.398 98.576 109.398C73.6251 109.398 53.3984 129.625 53.3984 154.576C53.3984 179.527 73.6251 199.754 98.576 199.754Z" fill="#003361"/>
<path d="M98.576 180.275C112.769 180.275 124.275 168.769 124.275 154.576C124.275 140.383 112.769 128.877 98.576 128.877C84.3828 128.877 72.877 140.383 72.877 154.576C72.877 168.769 84.3828 180.275 98.576 180.275Z" fill="white"/>
<path d="M63.7039 157.403L63.2641 157.969L60.9392 158.095L60.4365 157.592L60.248 154.764L65.8403 154.387L66.0288 157.592L65.2119 157.655L65.0863 155.456L63.6411 155.518L63.7039 157.403ZM61.5047 156.964L62.6357 156.901L62.8871 156.649L62.8242 155.707L61.1906 155.833L61.2534 156.775L61.5047 156.964Z" fill="white"/>
<path d="M66.5946 161.551L61.4422 164.19L61.1908 163.121L62.1962 162.619L61.9448 161.299L60.8138 161.236L60.5625 160.168L66.3432 160.482L66.5946 161.551ZM62.8245 161.299L63.013 162.179L64.521 161.425L64.8352 161.299H64.521H62.8245Z" fill="white"/>
<path d="M66.4683 167.771L66.0913 166.766L66.9082 166.452L67.0339 166.137L66.8454 165.572L66.5312 165.446L63.3267 166.64L63.1382 166.954L63.3267 167.52L63.6408 167.645L64.5205 167.331L64.8975 168.337L63.5152 168.839L62.8868 168.525L62.1328 166.452L62.447 165.823L66.7825 164.252L67.4109 164.566L68.1649 166.64L67.8507 167.268L66.4683 167.771Z" fill="white"/>
<path d="M69.7986 171.981L69.5473 171.478L67.4109 171.667L65.5888 174.18L65.0861 173.238L66.9083 170.724L64.4577 172.044L63.9551 171.101L68.8561 168.462L69.3588 169.405L67.6623 170.347L67.8508 170.661L69.9871 170.473L70.6155 171.604L69.7986 171.981Z" fill="white"/>
<path d="M71.935 175.123L71.0553 173.929L69.7986 174.808L70.5526 175.814L69.8614 176.316L69.1074 175.311L67.8508 176.191L68.7304 177.385L68.0393 177.887L66.5312 175.814L71.0553 172.546L72.5633 174.62L71.935 175.123Z" fill="white"/>
<path d="M73.3188 175.625L75.518 178.013L74.8897 178.578L74.1357 177.762L70.6798 181.029L69.9258 180.275L73.3816 177.008L72.6276 176.191L73.3188 175.625Z" fill="white"/>
<path d="M77.2141 182.474L77.2769 183.165L75.8318 184.988L75.1406 185.05L72.9414 183.228L76.4601 178.893L78.9735 180.966L78.4708 181.595L76.7743 180.212L75.8318 181.343L77.2141 182.474ZM75.3919 183.857L76.0831 182.977L76.0203 182.6L75.2663 181.972L74.1981 183.228L74.9521 183.857H75.3919Z" fill="white"/>
<path d="M82.6794 183.48L82.8679 184.171L80.543 188.129L79.8519 188.318L77.7783 187.061L77.5898 186.37L79.9147 182.411L80.6059 182.223L82.6794 183.48ZM79.9147 186.998L81.674 184.108L81.6112 183.731L80.92 183.354L80.543 183.417L78.7837 186.307L78.8465 186.684L79.5377 187.061L79.9147 186.998Z" fill="white"/>
<path d="M85.0046 184.736L88.0206 185.93L85.9471 191.082L84.9418 190.705L86.7011 186.307L85.6958 185.93L84.1249 189.889L83.4966 190.14L82.3027 189.637L82.6169 188.883L83.0567 189.072L83.3709 188.946L85.0046 184.736Z" fill="white"/>
<path d="M91.6659 189.197L92.0429 189.826L91.4773 192.151L90.849 192.528L88.0215 191.899L89.2782 186.433L90.3463 186.684L89.8437 188.82L91.6659 189.197ZM90.5977 191.334L90.849 190.14L90.6605 189.826L89.718 189.574L89.341 191.271L90.2835 191.522L90.5977 191.334Z" fill="white"/>
<path d="M96.3155 187.689L97.3836 187.752L96.881 193.344L95.8128 193.282L96.0013 190.894L94.8075 190.768L94.619 193.156L93.5508 193.093L94.0534 187.501L95.1216 187.564L94.9331 189.951L96.127 190.077L96.3155 187.689Z" fill="white"/>
<path d="M101.153 187.752L102.975 193.219L101.907 193.282L101.53 192.214L100.21 192.276L99.9588 193.407L98.8906 193.47L100.084 187.815L101.153 187.752ZM100.399 191.46L101.278 191.397L100.776 189.763L100.713 189.449L100.65 189.763L100.399 191.46Z" fill="white"/>
<path d="M104.358 187.375L107.186 186.81L108.317 192.276L107.248 192.465L106.809 190.517L106.117 190.643L105.866 192.716L104.798 192.905L105.049 190.831L104.421 190.454L103.855 187.878L104.358 187.375ZM106.683 189.763L106.306 187.878L105.363 188.066L105.175 188.381L105.489 189.763L105.803 189.952L106.683 189.763Z" fill="white"/>
<path d="M113.657 184.422L117.49 188.758L116.547 189.26L115.793 188.381L114.6 189.009L114.851 190.14L113.908 190.643L112.777 184.988L113.657 184.422ZM114.411 188.129L115.228 187.752L114.16 186.433L113.971 186.181L114.034 186.496L114.411 188.129Z" fill="white"/>
<path d="M119.438 181.846L118.935 182.16L119.312 184.296L122.014 185.867L121.134 186.496L118.495 184.925L120.066 187.25L119.187 187.878L116.045 183.291L116.925 182.663L118.056 184.296L118.37 184.108L117.993 181.972L119.061 181.28L119.438 181.846Z" fill="white"/>
<path d="M121.574 179.018L126.475 182.097L125.721 182.788L124.779 182.16L123.774 183.103L124.276 184.108L123.522 184.799L120.82 179.647L121.574 179.018ZM123.334 182.349L124.025 181.72L122.642 180.778L122.391 180.589L122.58 180.84L123.334 182.349Z" fill="white"/>
<path d="M129.616 177.133L129.93 176.693L131.124 177.636L130.496 178.453L129.93 178.013L128.422 179.898L128.988 180.338L128.297 181.155L127.103 180.212L127.48 179.772L127.417 179.395L123.898 176.631L125.846 174.117L129.616 177.133ZM128.925 178.013L125.846 175.562L125.218 176.379L128.297 178.83L128.925 178.013Z" fill="white"/>
<path d="M128.989 170.787L128.235 172.107L129.554 172.861L130.183 171.792L130.937 172.232L130.308 173.3L131.628 174.054L132.382 172.735L133.136 173.175L131.879 175.437L127.041 172.672L128.298 170.41L128.989 170.787Z" fill="white"/>
<path d="M130.245 166.075L130.622 165.069L135.837 167.08L135.46 168.085L132.821 167.08L135.208 168.839L134.894 169.593L132.004 169.216L134.643 170.222L134.266 171.227L129.051 169.216L129.428 168.148L133.638 168.588L130.245 166.075Z" fill="white"/>
<path d="M131.502 161.55L131.754 160.482L137.22 161.676L136.969 162.744L133.827 162.053L136.78 163.875L136.529 164.944L131.062 163.75L131.314 162.681L134.456 163.373L131.502 161.55Z" fill="white"/>
<path d="M132.066 158.535L132.255 155.707L137.847 156.084L137.784 157.152L135.836 157.027L135.774 157.781L137.721 158.535L137.659 159.603L135.711 158.849L135.145 159.351L132.569 159.163L132.066 158.535ZM134.957 156.901L133.009 156.775L132.946 157.718L133.197 157.969L134.58 158.032L134.831 157.781L134.957 156.901Z" fill="white"/>
<path d="M76.207 118.949L76.7097 120.96L77.8407 120.332L79.5372 124.353L78.4691 124.918L78.9717 126.929L80.2912 126.238L81.8621 130.008L83.8728 128.94L82.3019 125.17L84.3754 124.039L86.6375 127.432L88.6481 126.364L81.7364 116.059L76.207 118.949ZM81.4851 123.348L79.7886 119.326L80.7939 118.761L83.1816 122.405L81.4851 123.348Z" fill="white"/>
<path d="M64.645 129.882L68.2265 133.778L67.7238 134.595L62.6971 132.835L61.252 135.097L62.6343 136.605L63.3883 135.412L67.5353 136.794L71.8709 141.506L73.0647 139.621L69.4204 135.663L69.923 134.909L75.0126 136.605L76.2692 134.72L70.1744 132.647L65.8388 127.997L64.645 129.882Z" fill="white"/>
<path d="M95.1824 112.666L94.6797 114.676H95.9992V125.044H98.2612H102.534V120.96H100.586V123.033H98.2612V114.676H100.586V116.624H102.534V112.666H95.1824Z" fill="white"/>
<path d="M133.888 131.893L124.651 135.349L132.505 129.882L130.872 127.495L128.924 128.249L129.678 129.317L121.195 135.286L122.766 137.548L131.123 134.406L124.023 139.37L125.217 141.067L135.396 133.967L133.888 131.893Z" fill="white"/>
<path d="M118.683 117.755L117.301 119.326L118.306 119.829L116.17 122.279L114.473 121.4L116.861 116.813L114.096 115.368L112.714 116.939L113.908 117.567L109.195 126.803L111.206 127.809L113.594 123.222L115.227 124.039L114.034 129.254L116.044 130.322L117.427 124.039L121.699 119.263L118.683 117.755Z" fill="white"/>
<path d="M134.268 147.539C135.101 147.539 135.776 146.863 135.776 146.031C135.776 145.198 135.101 144.523 134.268 144.523C133.435 144.523 132.76 145.198 132.76 146.031C132.76 146.863 133.435 147.539 134.268 147.539Z" fill="white"/>
<path d="M63.3283 147.539C64.1612 147.539 64.8363 146.863 64.8363 146.031C64.8363 145.198 64.1612 144.523 63.3283 144.523C62.4955 144.523 61.8203 145.198 61.8203 146.031C61.8203 146.863 62.4955 147.539 63.3283 147.539Z" fill="white"/>
<path d="M118.431 163.373C117.677 157.466 115.667 151.811 112.588 146.722C111.708 130.825 104.482 124.541 104.482 124.541C104.482 124.541 99.958 127.871 97.319 137.234C94.3658 129.819 90.4701 127.117 90.4701 127.117C90.4701 127.117 85.8832 133.778 86.0089 144.585L83.0557 148.041L84.1867 150.931L77.7148 154.576L77.9662 155.77C79.2857 161.927 82.4902 165.383 82.6159 165.509L83.1186 166.012H85.2549C87.0143 172.735 90.533 178.955 95.4968 183.982L96.6278 185.113L118.243 164.504L118.494 164.252L118.431 163.373Z" fill="white"/>
<path d="M111.141 148.167C111.141 141.067 108.691 132.27 104.355 127.557C100.899 132.018 99.203 137.988 99.203 137.988L96.3754 139.37C96.0613 138.49 93.8621 131.704 90.6576 129.819C90.6576 129.819 86.5733 135.726 88.0185 143.391L88.1442 145.716L93.1709 144.522L91.7257 147.413L102.847 141.318V148.104H107.811L100.899 151.874C100.899 151.874 108.817 152.754 113.466 160.357H108.377C107.12 169.97 96.7524 173.3 96.7524 181.594C96.7524 181.846 96.7524 182.474 96.7524 182.663C97.8834 182.223 116.859 163.561 116.859 163.561C116.859 163.561 115.917 155.33 111.141 148.167Z" fill="#DC2F34"/>
<path d="M87.391 156.021L86.1971 159.1C87.5795 161.173 88.0193 161.488 91.7265 161.173C96.7532 160.734 101.403 160.419 101.403 160.419L91.7265 165.006L83.8094 164.127L79.9766 156.901L87.391 156.021Z" fill="#EA0029"/>
<path d="M91.9766 151.308L95.3068 148.544H100.585C100.585 148.544 99.2653 150.554 96.3749 151.183L94.9926 150.492L91.9766 151.308Z" fill="#003361"/>
<path d="M117.677 163.498C116.923 157.592 114.912 152 111.833 146.973C111.519 138.93 109.131 130.825 104.419 125.609C101.403 128.374 99.0151 133.966 97.9469 137.862C97.6327 137.988 97.2557 138.113 96.9416 138.302C95.7477 135.223 93.6114 130.888 90.6582 128.311C88.2705 132.458 86.574 139.307 86.7625 144.837C85.5058 146.219 83.8721 148.167 83.8721 148.167L85.066 151.246L78.5312 154.953L78.6569 155.581C79.9764 161.488 82.9925 164.818 83.181 164.944L83.4323 165.195H85.8828C87.5793 171.981 91.0352 178.264 96.0619 183.417L96.6902 184.045L117.802 163.938L117.677 163.498ZM91.098 131.327C92.983 133.652 94.4282 136.731 95.3079 138.993C94.6167 139.307 93.9255 139.684 93.2972 140.061C92.7317 138.616 91.7264 136.543 90.8467 135.035C90.8467 135.035 89.7157 137.045 88.836 139.182C89.3387 136.354 90.1555 133.589 91.098 131.327ZM96.6902 181.594C92.3547 176.945 89.3387 171.415 87.705 165.446C88.3962 166.389 90.2812 168.902 92.3547 170.222C96.8787 163.561 102.157 162.179 102.157 162.179L101.34 160.357L89.8413 163.624L85.3173 161.865L83.935 163.121C83.3066 162.304 82.2384 160.734 81.4216 158.472L83.6836 159.351L87.328 156.021L86.6997 154.639H82.6155L89.7157 150.617L88.836 148.67H86.197C88.8988 146.093 93.1715 144.397 93.1715 144.397C93.1715 144.397 91.6007 144.397 89.2758 144.962C90.9724 143.517 92.9202 142.198 95.1194 141.004C96.6274 140.25 98.9523 139.056 100.963 138.365L99.6434 137.736C100.523 134.783 102.22 130.825 104.23 128.249C107.183 132.207 109.131 137.799 109.76 144.02C109.194 143.266 108.629 142.512 108 141.758C107.435 138.365 106.429 135.16 105.11 132.521C103.476 135.349 102.534 138.805 102.534 138.805C110.011 145.591 114.409 153.822 115.729 163.184L96.6902 181.594Z" fill="#003361"/>
</g>
<path d="M183.286 136.888L189.782 147.866H190.033L196.56 136.888H204.251L194.421 152.993L204.471 169.098H196.639L190.033 158.104H189.782L183.176 169.098H175.375L185.457 152.993L175.564 136.888H183.286Z" fill="#0D0711"/>
<path d="M180.509 133.82L180.801 133.648L180.702 133.482H180.509V133.82ZM188.027 146.526L187.735 146.698L187.834 146.865H188.027V146.526ZM188.318 146.526V146.865H188.511L188.609 146.699L188.318 146.526ZM195.872 133.82V133.482H195.68L195.581 133.647L195.872 133.82ZM204.773 133.82L205.063 133.997L205.377 133.482H204.773V133.82ZM193.397 152.46L193.108 152.283L192.999 152.462L193.109 152.639L193.397 152.46ZM205.028 171.099V171.438H205.639L205.316 170.92L205.028 171.099ZM195.963 171.099L195.673 171.274L195.772 171.438H195.963V171.099ZM188.318 158.376L188.609 158.201L188.51 158.037H188.318V158.376ZM188.027 158.376V158.037H187.835L187.737 158.201L188.027 158.376ZM180.382 171.099V171.438H180.573L180.672 171.274L180.382 171.099ZM171.353 171.099L171.066 170.92L170.742 171.438H171.353V171.099ZM183.021 152.46L183.308 152.64L183.42 152.462L183.31 152.283L183.021 152.46ZM171.572 133.82V133.482H170.966L171.283 133.998L171.572 133.82ZM180.218 133.993L187.735 146.698L188.318 146.353L180.801 133.648L180.218 133.993ZM188.027 146.865H188.318V146.187H188.027V146.865ZM188.609 146.699L196.163 133.994L195.581 133.647L188.027 146.353L188.609 146.699ZM195.872 134.159H204.773V133.482H195.872V134.159ZM204.484 133.644L193.108 152.283L193.686 152.636L205.063 133.997L204.484 133.644ZM193.109 152.639L204.741 171.279L205.316 170.92L193.684 152.281L193.109 152.639ZM205.028 170.761H195.963V171.438H205.028V170.761ZM196.254 170.925L188.609 158.201L188.028 158.55L195.673 171.274L196.254 170.925ZM188.318 158.037H188.027V158.715H188.318V158.037ZM187.737 158.201L180.091 170.925L180.672 171.274L188.317 158.55L187.737 158.201ZM180.382 170.761H171.353V171.438H180.382V170.761ZM171.64 171.279L183.308 152.64L182.734 152.28L171.066 170.92L171.64 171.279ZM183.31 152.283L171.86 133.643L171.283 133.998L182.733 152.637L183.31 152.283ZM171.572 134.159H180.509V133.482H171.572V134.159Z" fill="#BEF318"/>
<path d="M187.114 140.132L187.314 140.014L187.246 139.9H187.114V140.132ZM192.264 148.836L192.064 148.954L192.131 149.068H192.264V148.836ZM192.463 148.836V149.068H192.595L192.663 148.955L192.463 148.836ZM197.638 140.132V139.9H197.506L197.439 140.014L197.638 140.132ZM203.735 140.132L203.934 140.253L204.149 139.9H203.735V140.132ZM195.942 152.901L195.744 152.78L195.67 152.902L195.745 153.024L195.942 152.901ZM203.91 165.669V165.901H204.328L204.107 165.546L203.91 165.669ZM197.7 165.669L197.501 165.789L197.569 165.901H197.7V165.669ZM192.463 156.953L192.662 156.834L192.595 156.721H192.463V156.953ZM192.264 156.953V156.721H192.133L192.065 156.834L192.264 156.953ZM187.027 165.669V165.901H187.158L187.226 165.789L187.027 165.669ZM180.842 165.669L180.645 165.546L180.423 165.901H180.842V165.669ZM188.835 152.901L189.031 153.024L189.108 152.902L189.033 152.779L188.835 152.901ZM180.992 140.132V139.9H180.577L180.794 140.254L180.992 140.132ZM186.914 140.251L192.064 148.954L192.464 148.718L187.314 140.014L186.914 140.251ZM192.264 149.068H192.463V148.604H192.264V149.068ZM192.663 148.955L197.837 140.251L197.439 140.014L192.264 148.717L192.663 148.955ZM197.638 140.364H203.735V139.9H197.638V140.364ZM203.537 140.012L195.744 152.78L196.14 153.022L203.934 140.253L203.537 140.012ZM195.745 153.024L203.713 165.792L204.107 165.546L196.139 152.778L195.745 153.024ZM203.91 165.437H197.7V165.901H203.91V165.437ZM197.899 165.55L192.662 156.834L192.264 157.073L197.501 165.789L197.899 165.55ZM192.463 156.721H192.264V157.185H192.463V156.721ZM192.065 156.834L186.828 165.55L187.226 165.789L192.463 157.073L192.065 156.834ZM187.027 165.437H180.842V165.901H187.027V165.437ZM181.039 165.792L189.031 153.024L188.638 152.778L180.645 165.546L181.039 165.792ZM189.033 152.779L181.189 140.011L180.794 140.254L188.637 153.022L189.033 152.779ZM180.992 140.364H187.114V139.9H180.992V140.364Z" fill="#5296FF"/>
<defs>
<clipPath id="clip0_133_1874">
<rect width="26.9143" height="26.9143" fill="white" transform="translate(13.4863 263.461) rotate(-19.2325)"/>
</clipPath>
<clipPath id="clip1_133_1874">
<rect width="29.7024" height="29.7024" fill="white" transform="matrix(0.866025 0.500001 -0.499999 0.866026 357.076 238.931)"/>
</clipPath>
<clipPath id="clip2_133_1874">
<rect width="99.2147" height="99.2147" fill="white" transform="translate(49 105)"/>
</clipPath>
</defs>
</svg>
