<svg width="32" height="48" viewBox="0 0 32 48" fill="none" xmlns="http://www.w3.org/2000/svg">
<path d="M26.0375 18.4023C26.0375 12.8718 24.1287 6.01991 20.7517 2.34924C18.0599 5.82414 16.7385 10.4737 16.7385 10.4737L14.5361 11.5504C14.2914 10.8652 12.5784 5.57943 10.0823 4.11116C10.0823 4.11116 6.90108 8.71174 8.02675 14.6827L8.12464 16.4936L12.04 15.5637L10.9143 17.815L19.5771 13.0676V18.3534H23.4436L18.0599 21.2899C18.0599 21.2899 24.2266 21.9751 27.8484 27.8971H23.884C22.9052 35.3853 14.8297 37.9792 14.8297 44.4396C14.8297 44.6354 14.8297 45.1248 14.8297 45.2716C15.7107 44.929 30.4912 30.3932 30.4912 30.3932C30.4912 30.3932 29.7571 23.9817 26.0375 18.4023Z" fill="black"/>
<path d="M7.5369 24.5201L6.607 26.9183C7.68373 28.5334 8.02632 28.7781 10.9139 28.5334C14.8293 28.1908 18.451 27.9461 18.451 27.9461L10.9139 31.5189L4.7472 30.8337L1.76172 25.2053L7.5369 24.5201Z" fill="black"/>
<path d="M11.1113 20.8494L13.7053 18.6959H17.8164C17.8164 18.6959 16.7886 20.2621 14.5373 20.7515L13.4606 20.2131L11.1113 20.8494Z" fill="black"/>
<path d="M31.1277 30.3441C30.5404 25.7435 28.9743 21.3877 26.5761 17.4723C26.3314 11.2077 24.4716 4.89412 20.8009 0.831909C18.4517 2.98537 16.5919 7.34123 15.7599 10.3756C15.5152 10.4735 15.2215 10.5714 14.9768 10.7182C14.0469 8.32007 12.3829 4.94306 10.0826 2.93643C8.22277 6.16661 6.90132 11.5013 7.04815 15.8082C6.0693 16.885 4.79681 18.4022 4.79681 18.4022L5.72671 20.8003L0.636719 23.6879L0.734604 24.1774C1.76239 28.7779 4.11162 31.3719 4.25844 31.4698L4.45421 31.6655H6.36296C7.6844 36.9513 10.3762 41.8455 14.2916 45.8588L14.781 46.3482L31.2256 30.6867L31.1277 30.3441ZM10.4252 5.28566C11.8934 7.09652 13.0191 9.49469 13.7043 11.2566C13.1659 11.5013 12.6276 11.795 12.1381 12.0886C11.6977 10.963 10.9146 9.34786 10.2294 8.17325C10.2294 8.17325 9.34844 9.7394 8.66324 11.4034C9.05478 9.20104 9.69103 7.04758 10.4252 5.28566ZM14.781 44.4395C11.404 40.8177 9.05478 36.5108 7.78228 31.8613C8.32065 32.5954 9.78891 34.5531 11.404 35.5809C14.9278 30.393 19.039 29.3163 19.039 29.3163L18.4027 27.897L9.44632 30.442L5.92248 29.0716L4.84575 30.0504C4.35633 29.4142 3.52431 28.1906 2.88806 26.4287L4.64998 27.1139L7.48863 24.52L6.99921 23.4432H3.81796L9.34844 20.3109L8.66324 18.7937H6.60767C8.71219 16.7871 12.0403 15.4656 12.0403 15.4656C12.0403 15.4656 10.8167 15.4656 9.00584 15.9061C10.3273 14.7805 11.8445 13.7527 13.5575 12.8228C14.7321 12.2355 16.5429 11.3056 18.1091 10.7672L17.0813 10.2778C17.7665 7.97748 19.0879 4.89412 20.6541 2.88748C22.9544 5.97085 24.4716 10.3267 24.961 15.172C24.5205 14.5847 24.08 13.9974 23.5906 13.4101C23.1501 10.7672 22.3671 8.27113 21.3393 6.21556C20.0668 8.41796 19.3326 11.1098 19.3326 11.1098C25.1568 16.3955 28.5827 22.807 29.6105 30.0994L14.781 44.4395Z" fill="black"/>
</svg>
