<svg width="40" height="37" viewBox="0 0 40 37" fill="none" xmlns="http://www.w3.org/2000/svg">
<path d="M20 36.0022C18.71 34.8582 17.252 33.6682 15.71 32.4022H15.69C10.26 27.9622 4.10605 22.9382 1.38805 16.9182C0.495081 15.0017 0.0218536 12.9165 2.28119e-05 10.8022C-0.00594078 7.90122 1.15759 5.12022 3.22766 3.08778C5.29774 1.05535 8.09961 -0.0569624 11 0.00224856C13.3613 0.00597816 15.6717 0.688411 17.656 1.96825C18.528 2.53419 19.3169 3.21876 20 4.00225C20.687 3.22183 21.4761 2.53766 22.346 1.96825C24.3295 0.688158 26.6394 0.00568566 29 0.00224856C31.9005 -0.0569624 34.7024 1.05535 36.7724 3.08778C38.8425 5.12022 40.006 7.90122 40.0001 10.8022C39.9797 12.9199 39.5064 15.0086 38.612 16.9282C35.894 22.9482 29.742 27.9702 24.312 32.4022L24.292 32.4182C22.748 33.6762 21.292 34.8662 20.002 36.0182L20 36.0022ZM11 4.00225C9.13707 3.97893 7.34019 4.69194 6.00005 5.98625C4.70882 7.25458 3.98715 8.99234 3.99988 10.8022C4.0227 12.3433 4.3717 13.862 5.02405 15.2582C6.30707 17.8557 8.03826 20.2064 10.138 22.2022C12.12 24.2022 14.4 26.1382 16.372 27.7662C16.918 28.2162 17.474 28.6702 18.03 29.1242L18.38 29.4102C18.914 29.8462 19.466 30.2982 20 30.7422L20.026 30.7182L20.038 30.7082H20.05L20.068 30.6942H20.078H20.088L20.124 30.6642L20.206 30.5982L20.22 30.5862L20.242 30.5702H20.254L20.272 30.5542L21.6 29.4642L21.948 29.1782C22.51 28.7202 23.066 28.2662 23.612 27.8162C25.584 26.1882 27.866 24.2542 29.848 22.2442C31.9481 20.2494 33.6794 17.8993 34.962 15.3022C35.6262 13.8939 35.9802 12.3593 36.0001 10.8022C36.0084 8.99793 35.2871 7.26683 34 6.00225C32.6625 4.70209 30.8653 3.98321 29 4.00225C26.7239 3.98291 24.5479 4.93699 23.02 6.62425L20 10.1042L16.98 6.62425C15.4522 4.93699 13.2762 3.98291 11 4.00225Z" fill="#0D0711"/>
</svg>
