<svg width="77" height="64" viewBox="0 0 77 64" fill="none" xmlns="http://www.w3.org/2000/svg">
<path d="M31.7002 9.35166C31.7002 9.40222 31.7508 9.45277 31.7508 9.60445V50.0507C31.7508 50.6574 31.498 51.163 31.1441 51.618C30.6891 52.0731 30.1329 52.3258 29.5768 52.3258C28.9701 52.3258 28.414 52.0731 28.0095 51.618C27.605 51.2136 27.3522 50.708 27.3522 50.0507V9.19998C27.3522 7.93604 26.8972 6.82376 25.9872 5.96428C25.0266 5.1048 23.9143 4.70033 22.7515 4.70033C21.5381 4.70033 20.4764 5.1048 19.5158 5.96428C18.6057 6.87432 18.1507 7.93604 18.1507 9.19998V20.5249C18.1507 21.1316 17.9485 21.6878 17.544 22.0922C17.089 22.5473 16.5834 22.8 15.9767 22.8C15.37 22.8 14.8645 22.5473 14.4094 22.0922C13.9544 21.6878 13.7522 21.1822 13.7522 20.5249V9.19998C13.7522 7.98659 13.2972 6.92488 12.4377 5.96428C11.4771 5.1048 10.3648 4.70033 9.20198 4.70033C8.03915 4.70033 6.97743 5.1048 5.96627 5.96428C5.00567 6.82376 4.55065 7.88548 4.55065 9.19998V20.5249C4.55065 21.1316 4.34842 21.6878 3.94396 22.0922C3.48894 22.5473 2.98336 22.8 2.37667 22.8C1.76997 22.8 1.26439 22.5473 0.809372 22.0922C0.354352 21.6878 0.101562 21.1822 0.101562 20.5249V9.19998C0.101562 6.72265 1.0116 4.64978 2.78113 2.82969C4.55065 1.11073 6.67408 0.200684 9.15142 0.200684C11.9321 0.200684 14.2072 1.2624 15.9767 3.28471C17.6957 1.21184 19.9708 0.200684 22.7515 0.200684C25.2288 0.200684 27.3522 1.11073 29.1218 2.82969C30.8913 4.59922 31.8013 6.72265 31.8013 9.19998C31.7508 9.25054 31.7002 9.35166 31.7002 9.35166Z" fill="#0D0711"/>
<path d="M58.8498 20.3733C58.8498 21.0305 58.6475 21.5867 58.2431 21.9911C57.8386 22.3956 57.2825 22.5978 56.6252 22.5978C56.2208 22.5978 55.7657 22.3956 55.2096 21.9911C54.704 21.4855 54.4512 20.9294 54.4512 20.3733C52.5806 21.89 50.356 22.5978 47.8282 22.5978C44.643 22.5978 41.9634 21.5361 39.7895 19.4632C37.5649 17.3398 36.4526 14.7108 36.4526 11.5762C36.4526 8.44162 37.5649 5.76205 39.7895 3.5375C42.014 1.31296 44.6936 0.200684 47.8282 0.200684C50.9627 0.200684 53.5918 1.31296 55.7152 3.5375C57.7881 5.71149 58.8498 8.39106 58.8498 11.5762V20.3733ZM47.7776 18.1993C49.6482 18.1993 51.2661 17.542 52.53 16.2781C53.794 15.0141 54.4007 13.4468 54.4007 11.5762C54.4007 9.655 53.794 8.03715 52.53 6.67209C51.2661 5.30703 49.6482 4.59922 47.7776 4.59922C45.907 4.59922 44.2386 5.30703 42.8735 6.67209C41.5084 8.03715 40.8006 9.655 40.8006 11.5762C40.8006 13.4468 41.5084 15.0141 42.8735 16.2781C44.188 17.542 45.8058 18.1993 47.7776 18.1993Z" fill="#0D0711"/>
<path d="M67.8995 20.4238C67.8995 20.98 67.6973 21.4856 67.2928 21.9911C66.8378 22.4462 66.3322 22.6484 65.7255 22.6484C65.1188 22.6484 64.5627 22.4462 64.1582 21.9911C63.7032 21.5361 63.501 21.0305 63.501 20.4238V11.4245C63.501 8.28996 64.6132 5.66095 66.8378 3.43641C69.0118 1.26242 71.6913 0.150146 74.7754 0.150146C75.3315 0.150146 75.8877 0.352378 76.3932 0.756841C76.7977 1.26242 76.9999 1.768 76.9999 2.32413C76.9999 2.88027 76.7977 3.38585 76.3932 3.89143C75.9382 4.34645 75.3821 4.54868 74.7754 4.54868C72.9047 4.54868 71.2869 5.20593 69.9724 6.52044C68.6073 7.8855 67.9501 9.50335 67.9501 11.374V20.4238H67.8995Z" fill="#0D0711"/>
<path d="M22.5488 61.2746C22.5488 61.8307 22.3466 62.3363 21.9421 62.8419C21.4365 63.2464 20.8804 63.4486 20.3243 63.4486C19.7681 63.4486 19.2625 63.2464 18.757 62.8419C18.3525 62.3363 18.1503 61.8307 18.1503 61.2746V50.1013C16.128 51.6181 13.8529 52.3764 11.325 52.3764C8.19037 52.3764 5.51081 51.2642 3.33682 49.0902C1.11227 46.9162 0 44.2872 0 41.1526C0 38.018 1.11227 35.389 3.28626 33.215C5.51081 30.9904 8.13982 29.8782 11.2744 29.8782C14.3584 29.8782 16.9874 30.9904 19.212 33.215C21.4365 35.4395 22.5488 38.0685 22.5488 41.1526V61.2746ZM18.0997 41.1526C18.0997 39.3325 17.4425 37.7146 16.128 36.299C14.7123 34.9845 13.0945 34.3273 11.2744 34.3273C9.40376 34.3273 7.78591 34.9845 6.47141 36.3496C5.10634 37.7146 4.44909 39.2819 4.44909 41.1526C4.44909 43.0232 5.10634 44.6411 6.47141 45.9556C7.78591 47.3206 9.40376 47.9779 11.2744 47.9779C13.0945 47.9779 14.7123 47.3206 16.128 46.0061C17.4425 44.5905 18.0997 42.9727 18.0997 41.1526Z" fill="#0D0711"/>
<path d="M40.4463 43.1243C40.9013 44.4894 41.7608 45.6016 42.9236 46.4611C44.137 47.3206 45.5021 47.7756 46.9177 47.7756C47.4738 47.7756 47.7772 47.7756 47.8277 47.7251L48.1816 47.6745L48.5355 47.6239L48.7883 47.5734L48.9906 47.5228C49.9006 47.3206 50.9118 46.9161 51.9229 46.2589C52.4285 45.905 52.9846 45.905 53.5913 46.1072C54.198 46.36 54.653 46.7139 54.9058 47.27C55.462 48.3823 55.1081 49.3429 53.8441 50.253C52.3274 51.1124 51.0129 51.6686 49.9006 51.9719L49.5973 52.0225L49.2434 52.073L48.7883 52.1236L48.2828 52.1742L47.6255 52.2247H46.9683C43.8337 52.2247 41.2047 51.1124 38.9801 48.8879C36.8061 46.7139 35.6938 44.0343 35.6938 40.9503C35.6938 37.8157 36.8061 35.1362 38.9801 32.9622C41.1541 30.7882 43.8337 29.6759 46.9683 29.6759C50.0017 29.6759 52.5296 30.6365 54.653 32.5577C57.0293 34.7317 58.2427 37.5124 58.2427 40.9503C58.2427 41.5064 58.0404 42.012 57.636 42.5176C57.1304 42.9221 56.5742 43.1243 56.0181 43.1243H40.4463ZM53.4397 38.7258C52.9846 37.209 52.1252 36.0968 50.8612 35.2878C49.7489 34.5295 48.4344 34.1756 46.9683 34.1756C45.5526 34.1756 44.1876 34.6306 42.9742 35.4901C41.8113 36.3495 41.0024 37.4113 40.4968 38.7763H53.4397V38.7258Z" fill="#0D0711"/>
<path d="M65.8263 46.4611C66.3319 47.3711 67.0903 47.8261 68.0509 47.8261C68.6576 47.8261 69.2137 47.6239 69.6687 47.1689C70.1237 46.7139 70.326 46.1577 70.326 45.5005C70.326 44.8938 70.1237 44.3376 69.6687 43.8826C69.2137 43.4276 68.6576 43.2254 68.0509 43.2254C66.1802 43.2254 64.6129 42.5681 63.2984 41.2536C61.9839 39.9897 61.3267 38.4224 61.3267 36.5012C61.3267 34.6305 61.9839 33.0632 63.2984 31.7487C64.6129 30.4342 66.1802 29.777 68.0509 29.777C69.6182 29.777 71.0338 30.232 72.2977 31.1926C73.5617 32.1532 74.2695 33.2655 74.5223 34.4789C74.6234 34.8328 74.5223 35.3889 74.2189 36.1978C73.9156 36.6528 73.4605 37.0068 72.8033 37.1584C71.5394 37.4112 70.6293 36.8551 70.1743 35.49C69.8709 34.6811 69.1631 34.2766 68.0509 34.2766C67.4442 34.2766 66.888 34.4789 66.433 34.9339C65.978 35.3889 65.7758 35.945 65.7758 36.5517C65.7758 37.1584 65.978 37.7146 66.433 38.1696C66.888 38.6246 67.4442 38.8268 68.0509 38.8268C69.9215 38.8268 71.4888 39.4841 72.8033 40.7986C74.1178 42.1131 74.7751 43.6804 74.7751 45.551C74.7751 47.3711 74.1178 48.9384 72.8033 50.354C71.4888 51.6685 69.9215 52.3258 68.0509 52.3258C66.5341 52.3258 65.1185 51.8202 63.8546 50.8596C62.6917 49.9496 61.8828 48.8373 61.4278 47.4722C61.2255 46.9161 61.3267 46.36 61.6806 45.8038C62.085 45.2477 62.5401 44.9443 63.0962 44.7927C64.2085 44.4893 65.0679 45.0455 65.8263 46.4611Z" fill="#0D0711"/>
</svg>
