<svg width="82" height="24" viewBox="0 0 82 24" fill="none" xmlns="http://www.w3.org/2000/svg">
<g clip-path="url(#clip0_151_1562)">
<path d="M17.5998 16.8421C17.5998 17.1858 17.4853 17.4435 17.2562 17.6726C17.0271 17.9016 16.7408 18.0162 16.4258 18.0162C16.1108 18.0162 15.8244 17.9016 15.5954 17.6726C15.3663 17.4435 15.2517 17.1858 15.2517 16.8421V10.8574C15.2517 10.1988 15.0227 9.62611 14.5359 9.13932C14.0204 8.68116 13.4477 8.45208 12.8178 8.45208C12.1878 8.45208 11.6151 8.68116 11.0997 9.13932C10.6129 9.62611 10.3838 10.1702 10.3838 10.8574V16.8421C10.3838 17.1858 10.2692 17.4435 10.0402 17.6726C9.81108 17.9016 9.52473 18.0162 9.20975 18.0162C8.89476 18.0162 8.60841 17.9016 8.37933 17.6726C8.15025 17.4435 8.03571 17.1858 8.03571 16.8421V10.8574C8.03571 10.2274 7.80663 9.65475 7.34847 9.13932C6.83304 8.68116 6.26034 8.45208 5.63037 8.45208C5.0004 8.45208 4.4277 8.68116 3.91227 9.13932C3.42547 9.62611 3.19639 10.1702 3.19639 10.8574V16.8421C3.19639 17.1858 3.08185 17.4435 2.85277 17.6726C2.62369 17.9016 2.33734 18.0162 2.02235 18.0162C1.736 18.0448 1.44965 17.9303 1.22057 17.6726C0.991493 17.4721 0.876953 17.1858 0.876953 16.8421V10.8574C0.876953 9.56884 1.33511 8.45208 2.28007 7.50712C3.22503 6.56216 4.34179 6.104 5.659 6.104C7.11939 6.104 8.32206 6.64807 9.23838 7.7362C10.1833 6.64807 11.3574 6.104 12.8178 6.104C14.135 6.104 15.2517 6.56216 16.1967 7.50712C17.1417 8.45208 17.5998 9.56884 17.5998 10.8574C17.5998 10.9147 17.5998 10.9433 17.5712 10.9433C17.5998 10.972 17.5998 11.0006 17.5998 11.0579V16.8421Z" fill="#0D0711"/>
<path d="M31.9447 16.7849C31.9447 17.1285 31.8302 17.4149 31.6011 17.644C31.372 17.8731 31.0857 17.9876 30.7421 17.9876C30.513 17.9876 30.2839 17.8731 29.9976 17.644C29.7399 17.3863 29.5967 17.0999 29.5967 16.7849C28.6231 17.5867 27.449 17.959 26.0746 17.959C24.3851 17.959 22.982 17.4149 21.8366 16.2981C20.6625 15.1814 20.0898 13.7782 20.0898 12.1174C20.0898 10.4566 20.6625 9.02483 21.8366 7.87943C23.0106 6.70539 24.4137 6.13269 26.0746 6.13269C27.7354 6.13269 29.1385 6.70539 30.2553 7.87943C31.372 9.02483 31.9161 10.4566 31.9161 12.1174V16.7849H31.9447ZM26.1032 15.6395C27.1054 15.6395 27.9358 15.2959 28.6231 14.6087C29.2817 13.9501 29.6253 13.1196 29.6253 12.1174C29.6253 11.1152 29.2817 10.2275 28.6231 9.54026C27.9358 8.82438 27.1054 8.45213 26.1032 8.45213C25.101 8.45213 24.2419 8.82438 23.526 9.54026C22.8102 10.2561 22.4379 11.1438 22.4379 12.1174C22.4379 13.091 22.8102 13.9214 23.526 14.6087C24.1847 15.2959 25.0437 15.6395 26.1032 15.6395Z" fill="#0D0711"/>
<path d="M36.7289 16.8136C36.7289 17.0999 36.6144 17.3863 36.3853 17.644C36.1562 17.8731 35.8699 17.9876 35.5549 17.9876C35.2113 17.9876 34.9536 17.8731 34.7245 17.644C34.4954 17.4149 34.3809 17.1286 34.3809 16.8136V12.0602C34.3809 10.428 34.9536 8.99621 36.1276 7.82218C37.273 6.67678 38.6761 6.07544 40.3369 6.07544C40.6233 6.07544 40.9096 6.18998 41.196 6.41906C41.4251 6.67678 41.5396 6.96313 41.5396 7.24948C41.5396 7.53583 41.4251 7.82218 41.196 8.07989C40.9669 8.30897 40.6806 8.42351 40.3369 8.42351C39.3347 8.42351 38.5043 8.76713 37.7884 9.45437C37.0726 10.1702 36.7289 11.0293 36.7289 12.0315V16.8136Z" fill="#0D0711"/>
<path d="M54.3679 22.7983C54.3679 23.0846 54.2533 23.371 54.0243 23.6287C53.7665 23.8578 53.4802 23.9723 53.1652 23.9723C52.8789 23.9723 52.5925 23.8578 52.3348 23.6287C52.1057 23.371 51.9912 23.0846 51.9912 22.7983V16.8708C50.9317 17.6726 49.729 18.0735 48.3832 18.0735C46.7223 18.0735 45.3192 17.5008 44.1452 16.3268C42.9998 15.1814 42.3984 13.7496 42.3984 12.0888C42.3984 10.4566 42.9711 9.05346 44.1452 7.87943C45.3192 6.70539 46.7223 6.13269 48.3832 6.13269C50.0154 6.13269 51.4185 6.70539 52.5925 7.87943C53.7665 9.05346 54.3392 10.4566 54.3392 12.0888V22.7983H54.3679ZM52.0198 12.1174C52.0198 11.1438 51.6762 10.2848 50.9889 9.54026C50.2444 8.85302 49.3854 8.5094 48.4118 8.5094C47.4096 8.5094 46.5792 8.85302 45.8633 9.56889C45.1474 10.2848 44.8038 11.1152 44.8038 12.1174C44.8038 13.1196 45.1474 13.9501 45.8633 14.6659C46.5505 15.3818 47.4096 15.7254 48.4118 15.7254C49.3854 15.7254 50.2444 15.3818 50.9889 14.6946C51.6762 13.9501 52.0198 13.091 52.0198 12.1174Z" fill="#0D0711"/>
<path d="M56.8867 1.37924C56.8867 1.06425 57.0013 0.777901 57.2303 0.548821C57.4594 0.31974 57.7171 0.2052 58.0608 0.2052C58.3471 0.2052 58.6335 0.31974 58.8912 0.548821C59.1203 0.806536 59.2348 1.09289 59.2348 1.37924V16.8422C59.2348 17.1858 59.1203 17.4435 58.8912 17.6726C58.6621 17.9017 58.3757 18.0162 58.0608 18.0162C57.7171 18.0162 57.4594 17.9017 57.2303 17.6726C57.0013 17.4435 56.8867 17.1858 56.8867 16.8422V1.37924Z" fill="#0D0711"/>
<path d="M63.8448 13.2055C64.1025 13.9214 64.532 14.5227 65.162 14.9522C65.8206 15.4104 66.5078 15.6395 67.281 15.6395C67.5673 15.6395 67.7391 15.6395 67.7678 15.6108L67.9682 15.5822L68.1687 15.5536L68.3118 15.5249L68.4264 15.4963C68.9132 15.3818 69.4286 15.1527 69.9727 14.8377C70.2304 14.6659 70.5454 14.6372 70.8603 14.7804C71.204 14.895 71.433 15.124 71.5476 15.4104C71.8339 15.9831 71.6335 16.5272 70.9749 16.9853C70.1731 17.4435 69.4859 17.7585 68.8845 17.9016L68.7127 17.9303L68.5123 17.9589L68.2832 17.9875L68.0255 18.0162L67.6819 18.0448H67.3382C65.706 18.0448 64.2743 17.4721 63.1003 16.2981C61.9549 15.1527 61.3535 13.7496 61.3535 12.0887C61.3535 10.4279 61.9262 9.02478 63.1003 7.85074C64.2457 6.70534 65.6774 6.104 67.3382 6.104C68.9418 6.104 70.2876 6.61943 71.4044 7.62166C72.6644 8.76706 73.2943 10.2274 73.2943 12.0601C73.2943 12.3464 73.1798 12.6328 72.9507 12.8905C72.693 13.1196 72.4066 13.2341 72.0917 13.2341H63.8448V13.2055ZM70.7172 10.8288C70.4881 10.027 70.0299 9.42567 69.3427 8.99614C68.77 8.59525 68.0541 8.39481 67.281 8.39481C66.5078 8.39481 65.8206 8.62389 65.162 9.08205C64.532 9.51157 64.1025 10.1129 63.8448 10.8288H70.7172Z" fill="#0D0711"/>
<path d="M77.247 14.9523C77.5047 15.4391 77.9056 15.6682 78.421 15.6682C78.7646 15.6682 79.051 15.5536 79.28 15.3245C79.5091 15.0955 79.6237 14.7805 79.6237 14.4368C79.6237 14.0932 79.5091 13.8069 79.28 13.5778C79.051 13.3487 78.7646 13.2342 78.421 13.2342C77.4474 13.2342 76.5883 12.8906 75.9011 12.2033C75.2139 11.5447 74.8702 10.6857 74.8702 9.68343C74.8702 8.70984 75.2139 7.85079 75.9011 7.16355C76.5883 6.47631 77.4474 6.13269 78.421 6.13269C79.2514 6.13269 79.9959 6.39041 80.6832 6.8772C81.3418 7.39263 81.7427 7.96533 81.8572 8.62394C81.9145 8.82438 81.8572 9.11073 81.6854 9.54026C81.5136 9.79797 81.2845 9.96978 80.9409 10.0271C80.2536 10.1702 79.7955 9.88388 79.5378 9.13937C79.366 8.70984 78.9937 8.5094 78.421 8.5094C78.0774 8.5094 77.791 8.62394 77.5619 8.85302C77.3329 9.0821 77.2183 9.36845 77.2183 9.71207C77.2183 10.0557 77.3329 10.342 77.5619 10.5711C77.791 10.8002 78.0774 10.9147 78.421 10.9147C79.3946 10.9147 80.2536 11.2584 80.9409 11.9456C81.6281 12.6328 81.9717 13.4919 81.9717 14.4655C81.9717 15.4104 81.6281 16.2695 80.9409 17.014C80.2536 17.7012 79.3946 18.0449 78.421 18.0449C77.6192 18.0449 76.8747 17.7871 76.2161 17.2717C75.5861 16.7849 75.1852 16.1836 74.9275 15.4677C74.813 15.1814 74.8702 14.8664 75.0707 14.58C75.2711 14.2937 75.5288 14.1219 75.8438 14.0646C76.4165 13.8928 76.8747 14.2078 77.247 14.9523Z" fill="#0D0711"/>
</g>
<defs>
<clipPath id="clip0_151_1562">
<rect width="81.123" height="23.7384" fill="white" transform="translate(0.876953 0.2052)"/>
</clipPath>
</defs>
</svg>
