<svg width="40" height="40" viewBox="0 0 40 40" fill="none" xmlns="http://www.w3.org/2000/svg">
<path d="M28.0684 9.66064C28.7012 9.66064 29.2242 10.1309 29.3069 10.741L29.3184 10.9106V33.6069C29.3184 34.2973 28.7587 34.8569 28.0684 34.8569C27.4355 34.8569 26.9125 34.3867 26.8298 33.7766L26.8184 33.6069V10.9106C26.8184 10.2203 27.378 9.66064 28.0684 9.66064Z" fill="black"/>
<path d="M33.9782 25.8982C34.4652 25.4089 35.2566 25.4071 35.7459 25.8941C36.1907 26.3369 36.2327 27.0312 35.8707 27.5214L35.75 27.6619L28.9537 34.4896C28.5095 34.9359 27.8124 34.9765 27.3222 34.6114L27.1819 34.4896L20.3856 27.6619C19.8985 27.1726 19.9004 26.3811 20.3896 25.8941C20.8344 25.4514 21.529 25.4126 22.0175 25.7768L22.1574 25.8982L28.067 31.8348L33.9782 25.8982Z" fill="black"/>
<path d="M11.5215 5.13818C12.1543 5.13818 12.6773 5.60844 12.7601 6.21857L12.7715 6.38818V29.0845C12.7715 29.7748 12.2118 30.3345 11.5215 30.3345C10.8887 30.3345 10.3657 29.8642 10.2829 29.2541L10.2715 29.0845V6.38818C10.2715 5.69783 10.8311 5.13818 11.5215 5.13818Z" fill="black"/>
<path d="M10.635 5.50537C11.0792 5.05911 11.7763 5.01854 12.2664 5.38366L12.4068 5.50537L19.2031 12.3331C19.6902 12.8224 19.6883 13.6139 19.199 14.1009C18.7542 14.5437 18.0597 14.5824 17.5712 14.2182L17.4313 14.0968L11.5205 8.15832L5.61053 14.0968C5.16778 14.5416 4.47344 14.5836 3.98325 14.2216L3.84277 14.1009C3.39797 13.6582 3.35602 12.9638 3.71798 12.4736L3.83869 12.3331L10.635 5.50537Z" fill="black"/>
</svg>
