<svg width="48" height="48" viewBox="0 0 48 48" fill="none" xmlns="http://www.w3.org/2000/svg">
<path fill-rule="evenodd" clip-rule="evenodd" d="M15.832 7C10.466 7 7 10.27 7 15.33V32.668C7 37.728 10.466 41 15.832 41H32.168C37.534 41 41 37.728 41 32.668V15.33C41 10.27 37.534 7 32.168 7H15.832ZM32.168 44H15.832C8.756 44 4 39.446 4 32.668V15.33C4 8.552 8.756 4 15.832 4H32.168C39.244 4 44 8.552 44 15.33V32.668C44 39.446 39.244 44 32.168 44Z" fill="#5296FF"/>
<path fill-rule="evenodd" clip-rule="evenodd" d="M32.1721 25.5H15.8281C15.0001 25.5 14.3281 24.828 14.3281 24C14.3281 23.172 15.0001 22.5 15.8281 22.5H32.1721C33.0001 22.5 33.6721 23.172 33.6721 24C33.6721 24.828 33.0001 25.5 32.1721 25.5Z" fill="#5296FF"/>
<path fill-rule="evenodd" clip-rule="evenodd" d="M24.6433 32.9959C24.2593 32.9959 23.8733 32.8499 23.5813 32.5539C22.9973 31.9659 22.9993 31.0179 23.5853 30.4339L30.0453 23.9999L23.5853 17.5659C22.9993 16.9819 22.9973 16.0339 23.5813 15.4459C24.1653 14.8579 25.1133 14.8579 25.7013 15.4419L33.2293 22.9379C33.5133 23.2179 33.6713 23.6019 33.6713 23.9999C33.6713 24.3979 33.5133 24.7819 33.2293 25.0619L25.7013 32.5579C25.4093 32.8499 25.0253 32.9959 24.6433 32.9959Z" fill="#5296FF"/>
</svg>
