<svg width="36" height="38" viewBox="0 0 36 38" fill="none" xmlns="http://www.w3.org/2000/svg">
<path d="M4 38H0V36C0.00881727 28.2717 6.27167 22.0088 14 22H22C29.7283 22.0088 35.9912 28.2717 36 36V38H32V36C31.9934 30.4799 27.5201 26.0066 22 26H14C8.47989 26.0066 4.00661 30.4799 4 36V38ZM18 20C12.4772 20 8 15.5228 8 10C8 4.47715 12.4772 0 18 0C23.5228 0 28 4.47715 28 10C27.9934 15.5201 23.5201 19.9934 18 20ZM18 4C14.6863 4 12 6.68629 12 10C12 13.3137 14.6863 16 18 16C21.3137 16 24 13.3137 24 10C24 6.68629 21.3137 4 18 4Z" fill="#0D0711"/>
</svg>
